<svg width="462" height="350" viewBox="0 0 462 350" fill="none" xmlns="http://www.w3.org/2000/svg">
<path opacity="0.1" fill-rule="evenodd" clip-rule="evenodd" d="M427.404 248.402C425.971 249.662 424.502 250.889 422.998 252.081C422.746 252.285 422.487 252.507 422.231 252.69C416.877 256.844 411.256 260.641 405.404 264.058C398.689 268.027 391.681 271.637 384.578 275.044C373.903 280.209 362.968 284.821 351.818 288.861L351.316 289.044C346.411 290.792 341.45 292.406 336.434 293.885L336.345 293.911C332.845 294.932 329.321 295.876 325.772 296.742L325.287 296.861C320.064 298.122 314.789 299.193 309.46 300.076L308.234 300.272C304.34 300.885 300.418 301.385 296.47 301.771C274.277 303.9 251.817 302.171 229.761 299.182C185.219 293.14 141.269 281.814 101.172 264.058C85.8942 257.325 71.1084 249.527 56.924 240.721C54.9142 239.469 52.9173 238.192 50.9331 236.889C50.6223 236.68 50.3072 236.463 49.9963 236.263C30.4355 223.187 12.7695 207.262 4.5517 187.165C-4.61557 164.73 1.25183 136.296 23.9592 123.015C31.8023 118.459 40.8504 115.977 50.0049 113.929L50.9416 113.72C52.4915 113.38 54.0414 113.052 55.587 112.724C60.9903 111.578 66.4234 110.442 71.8054 109.168C81.8072 106.814 91.6344 104.004 100.793 99.8777C101.469 99.5768 102.142 99.266 102.811 98.9452C109.977 95.5389 117.774 90.5827 123.675 84.6301C128.759 79.4908 132.417 73.5979 133.021 67.2749C133.196 65.4786 133.115 63.6667 132.783 61.8929C132.153 58.5292 131.544 55.242 131.08 52.0316C130.228 46.0024 129.956 40.2372 131.118 34.6764C132.302 29.0091 134.98 23.5547 140.098 18.2664C140.873 17.4659 141.705 16.6697 142.593 15.8777C146.726 12.2515 151.401 9.29479 156.448 7.11492C157.076 6.83106 157.706 6.56565 158.339 6.31869C172.39 0.630127 189.281 -0.557829 205.061 0.225626C219.804 0.982578 234.454 3.01841 248.845 6.31018C249.986 6.56565 251.127 6.8339 252.251 7.1064C264.498 10.0715 276.549 13.7958 288.333 18.2579C322.979 31.2871 355.403 50.0602 385.387 70.4385L386.818 71.4136C387.519 71.8933 388.22 72.3759 388.922 72.8613C390.358 73.8491 391.786 74.8426 393.205 75.8418C394.261 76.577 395.314 77.3179 396.364 78.0644L398.625 79.6697L400.035 80.683C407.699 86.2183 415.24 91.9537 422.227 98.1064L422.993 98.7877C431.509 106.367 439.22 114.567 445.394 123.722C471.585 162.571 463.818 216.395 427.404 248.402Z" fill="#4D7CFE"/>
<path opacity="0.03" fill-rule="evenodd" clip-rule="evenodd" d="M422.998 6.31018V252.081C422.746 252.285 422.487 252.507 422.231 252.69C416.877 256.844 411.256 260.641 405.404 264.058H101.206C85.9166 257.327 71.1194 249.528 56.924 240.721C54.9142 239.469 52.9173 238.192 50.9331 236.889C50.6223 236.68 50.3072 236.463 49.9964 236.263V6.33573L422.998 6.31018Z" fill="black"/>
<path fill-rule="evenodd" clip-rule="evenodd" d="M422.252 7.10645V252.69C416.898 256.844 411.277 260.641 405.425 264.058H101.206C85.9166 257.327 71.1193 249.529 56.924 240.721C54.9142 239.469 52.9173 238.192 50.9331 236.889V7.10645H422.252Z" fill="#FEFEFE"/>
<g opacity="0.7">
<path fill-rule="evenodd" clip-rule="evenodd" d="M324.069 108.543C324.069 103.604 328.073 99.601 333.011 99.601C337.949 99.601 341.953 103.604 341.953 108.543C341.953 113.481 337.949 117.484 333.011 117.484C328.073 117.484 324.069 113.481 324.069 108.543ZM325.772 108.543C325.772 112.54 329.013 115.781 333.011 115.781L332.99 115.768C336.681 115.783 339.792 113.018 340.211 109.35C340.629 105.682 338.22 102.287 334.62 101.471C331.02 100.654 327.382 102.677 326.177 106.167C325.907 106.93 325.771 107.733 325.772 108.543Z" fill="#FF6584"/>
<path fill-rule="evenodd" clip-rule="evenodd" d="M335.753 112.426L336.877 111.297C336.971 111.204 337.024 111.077 337.024 110.944C337.024 110.811 336.971 110.684 336.877 110.591L334.846 108.555L336.877 106.524C336.971 106.431 337.024 106.304 337.024 106.171C337.024 106.038 336.971 105.911 336.877 105.818L335.753 104.689C335.659 104.595 335.531 104.542 335.398 104.542C335.264 104.542 335.136 104.595 335.042 104.689L333.011 106.72L330.98 104.689C330.886 104.595 330.759 104.542 330.627 104.542C330.494 104.542 330.367 104.595 330.273 104.689L329.145 105.839C329.051 105.932 328.998 106.06 328.998 106.192C328.998 106.325 329.051 106.452 329.145 106.546L331.176 108.577L329.145 110.612C329.051 110.705 328.998 110.833 328.998 110.965C328.998 111.098 329.051 111.225 329.145 111.319L330.273 112.447C330.367 112.541 330.494 112.594 330.627 112.594C330.759 112.594 330.886 112.541 330.98 112.447L333.011 110.412L335.042 112.447C335.246 112.633 335.561 112.624 335.753 112.426Z" fill="#FF6584"/>
</g>
<path opacity="0.1" fill-rule="evenodd" clip-rule="evenodd" d="M311.342 165.803C313.326 167.136 314.694 169.207 315.141 171.555C315.253 172.109 315.312 172.672 315.315 173.237C315.322 176.194 313.868 178.962 311.429 180.634C308.991 182.306 305.884 182.664 303.129 181.591L302.873 181.489C299.571 180.081 297.426 176.839 297.422 173.249C297.417 169.658 299.553 166.411 302.852 164.994C303.307 164.799 303.779 164.645 304.262 164.534L304.53 164.47C306.888 163.983 309.342 164.463 311.342 165.803ZM313.488 174.336C313.49 174.327 313.49 174.319 313.488 174.31C313.549 173.954 313.582 173.594 313.586 173.233C313.58 170.973 312.517 168.845 310.714 167.482C308.911 166.118 306.575 165.675 304.398 166.284L304.13 166.365C303.63 166.525 303.15 166.743 302.699 167.012C300.684 168.209 299.373 170.307 299.181 172.643C298.989 174.979 299.94 177.263 301.732 178.773C302.14 179.116 302.586 179.412 303.061 179.654C303.142 179.699 303.226 179.741 303.312 179.777C305.359 180.724 307.73 180.663 309.725 179.612C311.72 178.561 313.112 176.64 313.488 174.417V174.336Z" fill="#4D7CFE"/>
<path opacity="0.1" fill-rule="evenodd" clip-rule="evenodd" d="M309.09 177.103L310.218 175.975C310.312 175.882 310.365 175.754 310.365 175.622C310.365 175.489 310.312 175.362 310.218 175.268L308.187 173.237L310.218 171.206C310.313 171.112 310.366 170.984 310.366 170.851C310.366 170.717 310.313 170.589 310.218 170.495L309.09 169.371C308.996 169.277 308.869 169.224 308.737 169.224C308.604 169.224 308.477 169.277 308.383 169.371L306.352 171.411L304.308 169.371C304.215 169.277 304.088 169.224 303.955 169.224C303.822 169.224 303.695 169.277 303.602 169.371L302.473 170.495C302.379 170.589 302.326 170.717 302.326 170.851C302.326 170.984 302.379 171.112 302.473 171.206L304.509 173.237L302.473 175.268C302.379 175.362 302.326 175.489 302.326 175.622C302.326 175.754 302.379 175.882 302.473 175.975L303.602 177.103C303.695 177.198 303.822 177.25 303.955 177.25C304.088 177.25 304.215 177.198 304.308 177.103L306.344 175.072L308.375 177.103C308.469 177.2 308.598 177.255 308.732 177.255C308.867 177.255 308.996 177.2 309.09 177.103Z" fill="#4D7CFE"/>
<path opacity="0.7" fill-rule="evenodd" clip-rule="evenodd" d="M274.69 43.337C274.69 38.3987 278.694 34.3954 283.632 34.3954C288.57 34.3954 292.574 38.3987 292.574 43.337C292.574 48.2753 288.57 52.2786 283.632 52.2786C278.694 52.2786 274.69 48.2753 274.69 43.337ZM283.632 50.5754C279.634 50.5754 276.394 47.3347 276.394 43.337C276.394 39.3393 279.634 36.0985 283.632 36.0985C287.63 36.0985 290.87 39.3393 290.87 43.337C290.874 45.257 290.112 47.0992 288.754 48.4561C287.395 49.813 285.552 50.5726 283.632 50.5669V50.5754ZM287.881 40.0201L288.695 40.8376V40.8291C288.781 40.9103 288.83 41.0241 288.83 41.143C288.829 41.2619 288.778 41.375 288.69 41.455L282.461 47.6375C282.381 47.7207 282.27 47.7678 282.155 47.7678C282.039 47.7678 281.928 47.7207 281.848 47.6375L278.569 44.3333C278.486 44.2531 278.439 44.1424 278.439 44.0268C278.439 43.9111 278.486 43.8005 278.569 43.7202L279.391 42.9069C279.471 42.825 279.581 42.7788 279.696 42.7788C279.81 42.7788 279.92 42.825 280 42.9069L282.159 45.0827L287.268 40.0201C287.349 39.9368 287.459 39.8898 287.575 39.8898C287.69 39.8898 287.801 39.9368 287.881 40.0201Z" fill="#3ACC6C"/>
<path opacity="0.1" fill-rule="evenodd" clip-rule="evenodd" d="M290.534 108.543C290.534 103.604 294.537 99.601 299.476 99.601C304.414 99.601 308.417 103.604 308.417 108.543C308.417 113.481 304.414 117.484 299.476 117.484C294.537 117.484 290.534 113.481 290.534 108.543ZM299.476 115.781C296.548 115.781 293.909 114.017 292.788 111.313C291.668 108.608 292.287 105.494 294.357 103.424C296.427 101.354 299.541 100.735 302.246 101.855C304.951 102.975 306.714 105.615 306.714 108.543C306.719 110.463 305.957 112.307 304.599 113.664C303.24 115.022 301.396 115.782 299.476 115.777V115.781ZM303.725 105.221L304.538 106.043V106.039C304.622 106.12 304.668 106.233 304.667 106.349C304.665 106.466 304.616 106.577 304.53 106.656L298.296 112.839C298.216 112.922 298.105 112.969 297.99 112.969C297.874 112.969 297.763 112.922 297.683 112.839L294.409 109.535C294.325 109.454 294.278 109.344 294.278 109.228C294.278 109.112 294.325 109.002 294.409 108.922L295.231 108.108C295.311 108.025 295.421 107.978 295.537 107.978C295.653 107.978 295.763 108.025 295.844 108.108L298.002 110.284L303.112 105.221C303.192 105.138 303.303 105.091 303.418 105.091C303.534 105.091 303.645 105.138 303.725 105.221Z" fill="#4D7CFE"/>
<path opacity="0.7" fill-rule="evenodd" clip-rule="evenodd" d="M263.765 173.748C263.765 168.81 267.768 164.807 272.706 164.807C277.645 164.807 281.648 168.81 281.648 173.748C281.648 178.686 277.645 182.69 272.706 182.69C267.768 182.69 263.765 178.686 263.765 173.748ZM272.706 180.987C268.709 180.987 265.468 177.746 265.468 173.748C265.468 169.75 268.709 166.51 272.706 166.51C276.704 166.51 279.945 169.75 279.945 173.748C279.95 175.669 279.189 177.513 277.831 178.871C276.472 180.229 274.627 180.989 272.706 180.982V180.987ZM276.956 170.427L277.769 171.249V171.244C277.852 171.326 277.899 171.438 277.897 171.555C277.896 171.672 277.846 171.783 277.76 171.862L271.527 178.044C271.446 178.128 271.336 178.175 271.22 178.175C271.105 178.175 270.994 178.128 270.914 178.044L267.639 174.74C267.556 174.66 267.509 174.549 267.509 174.434C267.509 174.318 267.556 174.207 267.639 174.127L268.461 173.314C268.541 173.231 268.652 173.184 268.768 173.184C268.883 173.184 268.994 173.231 269.074 173.314L271.233 175.49L276.342 170.427C276.423 170.344 276.533 170.297 276.649 170.297C276.765 170.297 276.875 170.344 276.956 170.427Z" fill="#3ACC6C"/>
<path opacity="0.1" fill-rule="evenodd" clip-rule="evenodd" d="M247.277 235.536C248.661 232.195 251.922 230.016 255.538 230.016C260.477 230.016 264.48 234.02 264.48 238.958C264.48 242.575 262.301 245.835 258.96 247.219C255.619 248.603 251.773 247.838 249.216 245.281C246.658 242.723 245.893 238.877 247.277 235.536ZM255.538 246.196C251.541 246.196 248.3 242.956 248.3 238.958C248.3 234.96 251.541 231.72 255.538 231.72C259.536 231.72 262.777 234.96 262.777 238.958C262.774 242.954 259.534 246.192 255.538 246.192V246.196ZM259.788 235.637L260.601 236.454V236.45C260.686 236.531 260.734 236.644 260.734 236.762C260.733 236.88 260.683 236.992 260.597 237.072L254.367 243.254C254.287 243.337 254.176 243.384 254.061 243.384C253.945 243.384 253.834 243.337 253.754 243.254L250.476 239.95C250.394 239.87 250.348 239.76 250.348 239.646C250.348 239.531 250.394 239.421 250.476 239.341L251.293 238.524C251.373 238.44 251.484 238.393 251.6 238.393C251.715 238.393 251.826 238.44 251.906 238.524L254.065 240.699L259.175 235.637C259.255 235.554 259.365 235.506 259.481 235.506C259.597 235.506 259.707 235.554 259.788 235.637Z" fill="#4D7CFE"/>
<path opacity="0.7" fill-rule="evenodd" clip-rule="evenodd" d="M350.033 74.4495C350.765 70.1193 354.533 66.9615 358.925 66.9981C362.967 66.9766 366.521 69.6697 367.593 73.5671C368.666 77.4646 366.99 81.5969 363.506 83.6465C363.099 83.8943 362.672 84.1066 362.229 84.281C360.326 85.0349 358.221 85.1131 356.268 84.5024C356.17 84.4768 356.076 84.4428 355.982 84.4087L355.982 84.4087C351.823 83.0003 349.302 78.7797 350.033 74.4495ZM362.097 82.4415C361.797 82.5897 361.486 82.7163 361.168 82.8205C359.812 83.2592 358.357 83.2903 356.983 82.9099C356.791 82.8546 356.6 82.795 356.417 82.7268C353.191 81.5364 351.248 78.2411 351.767 74.8423C352.287 71.4435 355.126 68.8792 358.56 68.7067C361.994 68.5343 365.075 70.8013 365.933 74.1309C366.79 77.4605 365.187 80.9339 362.097 82.4415ZM363.174 72.6271L363.987 73.4318C364.074 73.5111 364.125 73.623 364.126 73.7408C364.128 73.8586 364.081 73.9718 363.996 74.0535L361.203 76.8254L360.351 77.677L357.771 80.2317C357.676 80.3278 357.542 80.3735 357.409 80.3552C357.314 80.3399 357.226 80.2953 357.158 80.2274L356.974 80.0443L353.883 76.9233C353.8 76.843 353.753 76.7324 353.753 76.6167C353.753 76.5011 353.8 76.3904 353.883 76.3102L354.705 75.4969C354.785 75.4136 354.896 75.3666 355.012 75.3666C355.127 75.3666 355.238 75.4136 355.318 75.4969L357.477 77.6727L358.367 76.7913L358.865 76.2931L358.946 76.2165L359.904 75.267L362.561 72.6271C362.641 72.5438 362.752 72.4968 362.867 72.4968C362.983 72.4968 363.094 72.5438 363.174 72.6271Z" fill="#3ACC6C"/>
<rect opacity="0.2" x="71.7798" y="34.6721" width="186.965" height="17.3552" rx="8.67762" fill="#4D7CFE"/>
<rect opacity="0.2" x="71.7798" y="67.2749" width="262.589" height="17.3552" rx="8.67762" fill="#4D7CFE"/>
<rect opacity="0.1" x="71.7798" y="99.8777" width="202.898" height="17.3552" rx="8.67762" fill="#4D7CFE"/>
<rect opacity="0.1" x="71.7798" y="132.48" width="262.589" height="17.3552" rx="8.67762" fill="#4D7CFE"/>
<rect opacity="0.2" x="71.7798" y="165.083" width="176.865" height="17.3552" rx="8.67762" fill="#4D7CFE"/>
<rect opacity="0.1" x="71.7798" y="197.69" width="262.589" height="17.3552" rx="8.67762" fill="#4D7CFE"/>
<rect opacity="0.1" x="71.7798" y="230.293" width="158.863" height="17.3552" rx="8.67762" fill="#4D7CFE"/>
<path opacity="0.1" fill-rule="evenodd" clip-rule="evenodd" d="M308.434 43.337C308.434 38.3987 312.438 34.3954 317.376 34.3954C322.314 34.3954 326.318 38.3987 326.318 43.337C326.318 48.2753 322.314 52.2786 317.376 52.2786C312.438 52.2786 308.434 48.2753 308.434 43.337ZM310.137 43.337C310.137 47.3347 313.378 50.5754 317.376 50.5754V50.5669C319.296 50.5726 321.139 49.813 322.497 48.4561C323.856 47.0992 324.618 45.257 324.614 43.337C324.614 39.3393 321.374 36.0985 317.376 36.0985C313.378 36.0985 310.137 39.3393 310.137 43.337Z" fill="#4D7CFE"/>
<path opacity="0.1" fill-rule="evenodd" clip-rule="evenodd" d="M320.118 47.216L321.246 46.0919C321.341 45.9976 321.394 45.8697 321.394 45.7363C321.394 45.603 321.341 45.475 321.246 45.3808L319.211 43.3498L321.242 41.3188C321.336 41.2245 321.39 41.0966 321.39 40.9632C321.39 40.8298 321.336 40.7019 321.242 40.6077L320.114 39.4836C320.02 39.3895 319.893 39.3365 319.76 39.3365C319.628 39.3365 319.5 39.3895 319.407 39.4836L317.376 41.5146L315.345 39.4836C315.251 39.3892 315.123 39.3362 314.989 39.3362C314.856 39.3362 314.728 39.3892 314.634 39.4836L313.51 40.6077C313.414 40.7014 313.361 40.8295 313.361 40.9632C313.361 41.097 313.414 41.2251 313.51 41.3188L315.541 43.3498L313.514 45.3765C313.419 45.4702 313.365 45.5983 313.365 45.7321C313.365 45.8658 313.419 45.9939 313.514 46.0876L314.638 47.2117C314.732 47.3061 314.86 47.3591 314.994 47.3591C315.127 47.3591 315.255 47.3061 315.349 47.2117L317.38 45.1807L319.411 47.2117C319.504 47.3064 319.631 47.3601 319.764 47.3609C319.896 47.3617 320.024 47.3095 320.118 47.216Z" fill="#4D7CFE"/>
<path opacity="0.1" fill-rule="evenodd" clip-rule="evenodd" d="M383.505 75.9398C383.505 71.0015 387.509 66.9982 392.447 66.9982C394.821 66.9914 397.099 67.9313 398.777 69.6096C400.456 71.288 401.395 73.5663 401.389 75.9398C401.389 80.8781 397.385 84.8814 392.447 84.8814C387.509 84.8814 383.505 80.8781 383.505 75.9398ZM385.437 77.7913C386.278 80.9711 389.158 83.1839 392.447 83.1783V83.174C394.982 83.1705 397.33 81.8413 398.638 79.6697C400.333 76.8508 399.914 73.2435 397.618 70.8878C395.323 68.5322 391.727 68.0206 388.866 69.6423C386.004 71.2641 384.596 74.6114 385.437 77.7913Z" fill="#4D7CFE"/>
<path opacity="0.1" fill-rule="evenodd" clip-rule="evenodd" d="M395.181 79.8188L396.309 78.6947C396.403 78.6004 396.456 78.4725 396.456 78.3391C396.456 78.2057 396.403 78.0778 396.309 77.9836L394.274 75.9526L396.309 73.9215C396.403 73.828 396.456 73.7008 396.456 73.5681C396.456 73.4355 396.403 73.3083 396.309 73.2147L395.181 72.0864C395.087 71.9923 394.96 71.9393 394.827 71.9393C394.695 71.9393 394.567 71.9923 394.474 72.0864L392.447 74.1174L390.416 72.0864C390.323 71.9923 390.195 71.9393 390.063 71.9393C389.93 71.9393 389.803 71.9923 389.709 72.0864L388.581 73.2147C388.487 73.3083 388.434 73.4355 388.434 73.5681C388.434 73.7008 388.487 73.828 388.581 73.9215L390.612 75.9526L388.581 77.9836C388.487 78.0778 388.433 78.2057 388.433 78.3391C388.433 78.4725 388.487 78.6004 388.581 78.6947L389.709 79.8188C389.802 79.915 389.929 79.9695 390.063 79.9695C390.196 79.9695 390.324 79.915 390.416 79.8188L392.447 77.7877L394.482 79.8188C394.676 80.0092 394.987 80.0092 395.181 79.8188Z" fill="#4D7CFE"/>
<g opacity="0.7">
<path fill-rule="evenodd" clip-rule="evenodd" d="M279.881 238.958C279.881 234.02 283.884 230.016 288.822 230.016C293.761 230.016 297.764 234.02 297.764 238.958C297.764 243.896 293.761 247.9 288.822 247.9C283.884 247.9 279.881 243.896 279.881 238.958ZM281.584 238.958C281.584 242.956 284.825 246.196 288.822 246.196V246.192C290.743 246.198 292.587 245.438 293.946 244.08C295.304 242.722 296.065 240.879 296.061 238.958C296.061 234.96 292.82 231.72 288.822 231.72C284.825 231.72 281.584 234.96 281.584 238.958Z" fill="#FF6584"/>
<path fill-rule="evenodd" clip-rule="evenodd" d="M291.565 242.837L292.689 241.713C292.783 241.619 292.836 241.491 292.836 241.357C292.836 241.224 292.783 241.096 292.689 241.002L290.658 238.971L292.689 236.94C292.783 236.846 292.836 236.719 292.836 236.586C292.836 236.454 292.783 236.326 292.689 236.233L291.565 235.105C291.47 235.01 291.342 234.957 291.209 234.957C291.076 234.957 290.948 235.01 290.853 235.105L288.822 237.136L286.791 235.105C286.698 235.01 286.571 234.958 286.438 234.958C286.305 234.958 286.178 235.01 286.085 235.105L284.956 236.233C284.862 236.326 284.809 236.454 284.809 236.586C284.809 236.719 284.862 236.846 284.956 236.94L286.987 238.971L284.956 241.002C284.862 241.096 284.809 241.224 284.809 241.357C284.809 241.491 284.862 241.619 284.956 241.713L286.085 242.837C286.177 242.933 286.305 242.988 286.438 242.988C286.571 242.988 286.699 242.933 286.791 242.837L288.822 240.806L290.853 242.837C290.948 242.931 291.076 242.984 291.209 242.984C291.342 242.984 291.47 242.931 291.565 242.837Z" fill="#FF6584"/>
</g>
<ellipse opacity="0.1" cx="326.811" cy="344.58" rx="50.618" ry="2.46959" fill="#4D7CFE"/>
<path fill-rule="evenodd" clip-rule="evenodd" d="M370.604 169.707C370.604 169.707 358.635 147.83 360.658 144.271C362.68 140.711 364.158 135.559 364.158 135.559C364.158 135.559 368.577 132.536 368.577 131.301C368.577 130.066 372.077 127.209 373.921 125.966C375.765 124.723 374.841 118.851 373.921 118.14C373.001 117.429 371.541 114.938 371.541 114.938C371.541 114.938 372.818 111.383 371.541 110.314C370.744 109.647 371.014 108.984 371.284 108.319C371.448 107.918 371.611 107.516 371.541 107.112C371.353 106.039 371.541 102.134 371.541 102.134C370.046 100.057 368.39 99.0858 366.832 98.7281L366.695 98.166L365.908 94.8491C365.908 94.8491 369.74 87.5042 363.523 83.6594C363.083 83.3841 362.624 83.1421 362.148 82.9355C362.148 82.9355 362.148 82.7567 362.114 82.4544C362.029 81.3558 361.769 78.601 361.211 76.8297C360.887 75.7993 360.466 75.1052 359.934 75.2628C359.803 75.3006 359.683 75.3692 359.585 75.4629C359.331 75.6924 359.109 75.9544 358.925 76.2421C358.917 76.2592 358.907 76.275 358.895 76.2889C358.189 77.5558 357.694 78.9292 357.43 80.3552C357.241 81.1983 357.099 82.0512 357.004 82.91C356.735 83.4214 356.498 83.949 356.293 84.4896C355.54 86.444 354.658 89.8291 356.263 92.3327C357.626 94.4617 359.461 97.3869 360.794 99.5158L360.836 99.5839L360.917 99.7159L360.777 99.8053L360.798 100.133L360.922 101.926L361.973 117.412C361.663 117.322 361.348 117.255 361.028 117.212C360.573 117.145 360.113 117.115 359.653 117.122C359.264 115.595 358.582 114.115 357.897 112.627C356.999 110.677 356.096 108.715 355.842 106.622C355.797 106.253 355.772 105.882 355.769 105.511C355.787 104.435 355.921 103.357 356.055 102.28V102.28C356.21 101.033 356.365 99.7874 356.34 98.545V98.5449C356.34 98.1191 356.34 97.6934 356.297 97.2676C356.297 97.1527 356.297 97.0334 356.263 96.9142C355.79 93.493 353.66 90.5251 350.571 88.9817C350.105 88.7497 349.622 88.5517 349.139 88.3537C348.515 88.0977 347.891 87.8418 347.305 87.5128C345.911 86.7316 344.808 85.5859 343.701 84.4365C342.902 83.6061 342.101 82.7737 341.186 82.0754C339.564 80.8364 337.141 80.1721 335.332 80.798C334.372 80.9426 333.421 81.1388 332.483 81.3856C330.196 81.9841 328.002 82.8954 325.964 84.0937C325.687 84.2597 325.411 84.43 325.147 84.6259C324.57 85.0021 324.114 85.5355 323.831 86.163C323.648 86.6948 323.578 87.259 323.627 87.8193C323.627 88.2238 323.627 88.6369 323.652 89.0414C323.59 92.5745 321.586 95.693 319.587 98.8044C317.731 101.693 315.879 104.574 315.588 107.776C315.588 107.871 315.578 107.965 315.569 108.06C315.563 108.123 315.557 108.186 315.554 108.249V108.394V108.977V109.241V109.509C315.61 111.059 316.065 112.553 316.52 114.048C316.921 115.366 317.323 116.686 317.453 118.046C317.478 118.306 317.491 118.561 317.495 118.821C317.448 120.155 317.194 121.474 316.741 122.73C315.819 122.976 314.93 123.336 314.097 123.803L313.91 123.923C311.647 125.375 307.798 127.846 306.369 132.455C305.992 133.685 305.803 134.966 305.811 136.253C305.787 140.801 305.371 145.338 304.568 149.814C304.382 150.942 304.121 152.056 303.785 153.148C303.753 153.255 303.744 153.366 303.759 153.476L302.873 164.973L302.716 166.995L302.495 169.873C302.495 169.873 302.558 170.048 302.652 170.342C302.791 170.778 302.907 171.222 303.001 171.67C303.249 172.645 303.288 173.66 303.116 174.651C303.029 175.072 302.811 175.454 302.495 175.745C302.467 175.769 302.443 175.796 302.422 175.826C302.171 176.179 301.945 177.231 301.749 178.755C301.673 179.352 301.6 180.033 301.528 180.74C301.102 185.274 300.838 192.061 300.676 197.673C300.523 203.209 300.468 207.581 300.468 207.581C301.185 208.044 301.952 208.424 302.754 208.714L302.709 208.826L302.709 208.826C302.663 208.94 302.616 209.057 302.571 209.178C301.847 211.057 301.38 213.025 301.183 215.029C300.825 219.214 301.996 223.864 307.834 226.257C308.207 226.412 308.59 226.543 308.979 226.648C310.257 226.989 311.198 226.895 311.892 226.47C311.892 226.631 311.904 226.788 311.916 226.945C311.923 227.032 311.93 227.119 311.934 227.206C311.994 228.245 312.045 229.195 312.071 229.991C312.254 234.973 313.488 243.684 313.488 243.684C313.488 243.684 313.914 247.244 313.544 248.308C313.173 249.373 313.544 253.644 313.544 253.644C313.544 253.644 314.821 255.772 313.544 256.845C312.266 257.918 311.887 263.232 312.266 263.96C312.271 263.987 312.271 264.015 312.266 264.041C312.547 265.808 310.959 292.063 310.959 292.063C310.959 292.063 309.456 296.082 308.26 300.255C307.093 304.317 306.216 308.524 307.297 309.311C307.834 309.703 309.082 309.997 310.665 310.223C310.665 310.352 310.651 310.481 310.637 310.612C310.632 310.658 310.627 310.704 310.623 310.751C310.47 312.628 310.227 314.651 309.878 315.162C309.371 315.886 308.839 321.498 308.6 324.529L308.575 324.866C308.029 326.159 307.571 327.488 307.204 328.842C307.204 328.842 303.129 339.061 304.509 341.714C304.637 341.952 304.809 342.165 305.015 342.34C305.056 342.383 305.1 342.423 305.147 342.459C307.11 344.03 312.028 344.358 313.812 344.431L313.744 346.96V347.054H316.064V346.99C316.064 346.67 316.116 345.206 316.192 343.247C316.192 342.991 316.206 342.726 316.22 342.454C316.225 342.356 316.23 342.257 316.235 342.157C316.235 341.973 316.247 341.787 316.258 341.598C316.265 341.486 316.273 341.373 316.277 341.259C316.961 339.443 317.303 337.518 317.287 335.578C317.289 333.351 317.59 331.135 318.181 328.987C318.473 327.881 318.867 326.805 319.36 325.772C319.36 325.772 320.084 321.94 319.075 319.228C318.882 318.69 318.594 318.19 318.223 317.755V317.482V317.172V316.903C318.201 315.069 318.383 313.238 318.768 311.445C318.766 311.416 318.766 311.388 318.768 311.359C318.802 311.21 318.841 311.07 318.879 310.934L318.905 310.84L319.658 310.866C321.97 310.929 323.669 310.929 323.669 310.929C323.669 310.929 325.513 301.502 325.33 297.415V296.861C325.266 292.799 326.445 287.277 326.445 287.277L327.919 272.872C327.919 272.872 327.182 270.377 327.919 268.614C328.374 267.516 329.315 265.476 329.971 264.071C330.091 263.816 330.201 263.583 330.297 263.38C330.446 263.064 330.56 262.822 330.622 262.687L330.682 262.568C330.45 262.489 330.229 262.378 330.026 262.24C329.426 261.84 328.889 261.057 330.686 259.903C333.45 258.123 332.53 253.678 332.53 253.678C332.53 253.678 331.717 252.077 332.675 250.654C333.633 249.232 332.675 243.897 332.675 243.897C333.456 242.48 334.081 240.983 334.54 239.431C335.225 237.302 336.958 226.891 337.776 221.871C338.044 220.223 338.201 219.159 338.201 219.159L338.227 219.418L338.252 219.7L338.482 222.071L338.512 222.386L338.938 226.87C338.938 226.87 339.79 238.656 339.257 243.276V243.361C339.216 243.839 339.111 244.31 338.946 244.762C337.967 246.976 338.146 255.772 338.197 257.718V258.11C338.197 258.131 338.17 258.21 338.129 258.334C337.958 258.842 337.537 260.096 337.678 261.116C337.713 261.438 337.829 261.745 338.014 262.01C338.269 262.424 338.384 262.91 338.342 263.394V263.437C338.337 263.642 338.32 263.847 338.291 264.05C338.162 264.874 337.945 265.682 337.644 266.46C337.644 266.46 336.656 269.057 337.03 270.415C337.075 270.592 337.158 270.756 337.273 270.897C337.36 271.053 337.408 271.229 337.414 271.408C337.412 271.423 337.412 271.439 337.414 271.454C337.759 274.32 336.869 286.97 336.341 293.894C336.128 296.627 335.974 298.467 335.974 298.467L334.54 313.599L334.684 313.701C334.85 313.821 335.161 314.025 335.578 314.272V314.306L335.515 314.762C335.306 316.218 335.025 317.912 334.718 319.207C334.709 319.244 334.7 319.28 334.691 319.315C334.676 319.375 334.662 319.432 334.646 319.488C334.087 319.585 333.555 319.799 333.083 320.114C329.984 325.619 331.355 329.984 333.083 331.252C333.573 331.61 333.905 332.611 334.127 333.854L334.552 339.342V339.973C334.553 340.143 334.58 340.313 334.633 340.475L334.765 342.14L334.944 344.456H336.358V341.654H336.434C338.665 341.731 342.263 341.825 343.83 341.701H343.873C344.003 341.701 344.117 341.683 344.218 341.667L344.245 341.663C344.263 341.66 344.281 341.657 344.299 341.654C344.383 341.642 344.466 341.619 344.546 341.586C345.376 341.186 347.445 335.319 345.58 333.986C343.715 332.653 343.302 328.877 343.302 328.877C343.141 328.383 342.979 327.914 342.813 327.467V327.178C342.762 325.351 342.783 323.371 343.034 322.298C343.315 321.119 343.46 318.641 343.519 316.469V315.979V315.928C343.843 315.846 344.16 315.743 344.469 315.617L344.537 315.588C345.107 315.349 345.642 315.032 346.125 314.647L351.286 291.53L351.835 288.844L354.948 273.6C354.948 273.6 353.845 268.265 354.948 267.38C355.373 267.056 355.463 265.676 355.437 264.08C355.395 261.286 354.948 257.774 354.948 257.774C354.948 257.774 356.421 255.462 357.162 254.04C357.903 252.617 357.162 248.883 357.162 248.883L358.631 240.367C358.631 240.367 360.291 230.17 364.345 221.654C367.325 215.373 365.426 198.414 363.493 189.387C363.442 189.153 363.391 188.923 363.34 188.702V188.668C364.251 188.217 365.367 187.672 366.559 187.101L367.01 186.888C368.522 186.177 370.123 185.445 371.558 184.836L371.651 184.797C372.684 184.347 373.74 183.952 374.815 183.614C375.132 183.517 375.457 183.45 375.786 183.414C378.341 183.231 370.604 169.707 370.604 169.707ZM312.99 198.661H313.757C313.667 198.827 313.582 198.998 313.497 199.168L313.459 199.244L313.458 199.244C313.42 199.32 313.383 199.394 313.348 199.47C313.067 200.054 312.807 200.65 312.594 201.233C312.679 200.603 312.786 199.917 312.905 199.185L312.91 199.152C312.938 198.97 312.962 198.81 312.99 198.661ZM310.921 209.672C310.923 209.692 310.923 209.712 310.921 209.732C310.968 209.889 311.015 210.034 311.1 210.158C311.185 210.417 311.266 210.681 311.347 210.95C311.371 210.746 311.397 210.537 311.424 210.323C311.435 210.236 311.446 210.148 311.457 210.06C311.463 210.006 311.472 209.953 311.481 209.899C311.497 209.798 311.513 209.697 311.513 209.591C311.515 209.566 311.515 209.54 311.513 209.515C311.521 209.455 311.53 209.395 311.54 209.334C311.563 209.196 311.585 209.057 311.585 208.918V208.778L311.53 208.799C311.257 208.896 310.989 208.985 310.725 209.068C310.735 209.099 310.746 209.132 310.756 209.164C310.788 209.265 310.822 209.369 310.857 209.472L310.921 209.672Z" fill="url(#paint0_linear)"/>
<path fill-rule="evenodd" clip-rule="evenodd" d="M366.197 101.47L361.599 103.101L359.929 100.333C358.652 98.2044 356.881 95.292 355.574 93.1758C353.266 89.4502 356.285 83.7786 356.285 83.7786C356.285 83.7786 356.813 78.1071 358.763 76.3358C360.713 74.5645 361.245 83.7786 361.245 83.7786C369.041 87.3255 364.864 95.6539 364.864 95.6539L365.622 98.9623L366.197 101.47Z" fill="#A1616A"/>
<path opacity="0.1" fill-rule="evenodd" clip-rule="evenodd" d="M366.197 101.47L361.599 103.101L359.929 100.333V100.091C359.929 100.091 362.565 98.281 365.639 98.9623L366.197 101.47Z" fill="black"/>
<path fill-rule="evenodd" clip-rule="evenodd" d="M358.763 120.12L361.066 118.187L359.912 100.636C359.912 100.636 365.852 96.5608 370.285 102.943C370.285 102.943 370.106 106.844 370.285 107.908C370.464 108.973 369.046 110.037 370.285 111.097C371.524 112.158 370.285 115.704 370.285 115.704C370.285 115.704 371.686 118.187 372.571 118.898C373.457 119.609 374.347 125.455 372.571 126.698C370.796 127.942 367.432 130.773 367.432 132.016C367.432 133.26 363.174 136.274 363.174 136.274L359.448 131.31L358.763 120.12Z" fill="#5A5773"/>
<path fill-rule="evenodd" clip-rule="evenodd" d="M308.945 226.665C300.353 223.021 302.26 214.117 303.878 209.634C304.203 208.726 304.582 207.838 305.015 206.977L309.844 204.06C309.844 204.06 310.827 206.568 311.879 209.936C314.31 217.732 317.116 230.131 308.945 226.665Z" fill="#A1616A"/>
<path fill-rule="evenodd" clip-rule="evenodd" d="M320.757 307.902C320.174 309.034 319.745 310.238 319.479 311.483C319.061 313.49 318.882 315.54 318.947 317.589C318.981 319.007 319.1 319.935 319.1 319.935L309.529 326.518C309.529 326.518 309.584 325.747 309.678 324.614C309.925 321.6 310.44 316.005 310.925 315.281C311.262 314.774 311.496 312.756 311.645 310.887C311.794 309.018 311.853 307.37 311.853 307.37C311.853 307.37 323.35 303.048 320.757 307.902Z" fill="#A1616A"/>
<path fill-rule="evenodd" clip-rule="evenodd" d="M343.362 312.624C343.362 312.624 343.362 314.455 343.294 316.584C343.226 318.713 343.098 321.221 342.83 322.396C342.583 323.465 342.566 325.44 342.613 327.259C342.676 329.388 342.83 331.304 342.83 331.304C342.83 331.304 333.036 322.064 334.054 321.332C334.322 321.136 334.586 320.348 334.829 319.301C335.127 318.023 335.395 316.32 335.595 314.868C335.834 313.165 335.983 311.76 335.983 311.76L343.362 312.624Z" fill="#A1616A"/>
<path opacity="0.1" fill-rule="evenodd" clip-rule="evenodd" d="M320.757 307.902C320.174 309.034 319.745 310.238 319.479 311.483C316.859 311.418 314.244 311.219 311.645 310.887C311.79 309.056 311.853 307.37 311.853 307.37C311.853 307.37 323.35 303.048 320.757 307.902Z" fill="black"/>
<path opacity="0.1" fill-rule="evenodd" clip-rule="evenodd" d="M343.362 312.624C343.362 312.624 343.362 314.455 343.294 316.584C340.245 317.363 337.111 315.805 335.595 314.881C335.834 313.178 335.983 311.772 335.983 311.772L343.362 312.624Z" fill="black"/>
<path fill-rule="evenodd" clip-rule="evenodd" d="M363.37 222.08C359.47 230.595 357.873 240.691 357.873 240.691L356.459 249.207C356.459 249.207 357.166 252.928 356.459 254.346C355.752 255.764 354.33 258.067 354.33 258.067C354.33 258.067 355.395 266.758 354.33 267.639C353.266 268.521 354.33 273.847 354.33 273.847L350.783 291.752L345.819 314.796C341.033 318.696 334.663 313.731 334.663 313.731L336.068 298.667C336.068 298.667 338.197 272.268 337.311 271.186C336.426 270.105 337.665 266.758 337.665 266.758C337.665 266.758 338.908 263.564 338.023 262.321C337.137 261.078 338.197 258.421 338.197 258.421C338.197 258.421 337.844 247.61 338.908 245.128C339.973 242.645 338.908 227.287 338.908 227.287L338.482 222.505L338.24 219.857L338.214 219.597C338.214 219.597 338.052 220.662 337.788 222.305C337.005 227.308 335.336 237.676 334.676 239.81C334.219 241.34 333.602 242.819 332.836 244.221C332.836 244.221 333.756 249.539 332.836 250.957C331.917 252.375 332.696 253.971 332.696 253.971C332.696 253.971 333.582 258.4 330.92 260.175C328.259 261.951 330.92 262.832 330.92 262.832C330.92 262.832 328.97 267.09 328.263 268.861C327.557 270.633 328.263 273.119 328.263 273.119L326.875 287.473C326.875 287.473 325.632 293.498 325.811 297.577C325.99 301.656 324.193 311.07 324.193 311.07C324.193 311.07 310.542 311.07 308.439 309.473C306.335 307.877 311.973 292.258 311.973 292.258C311.973 292.258 313.569 264.957 313.212 264.246C312.854 263.535 313.212 258.221 314.455 257.156C315.698 256.092 314.455 253.967 314.455 253.967C314.455 253.967 314.102 249.709 314.455 248.649C314.808 247.589 314.4 244.038 314.4 244.038C314.4 244.038 313.212 235.352 313.037 230.387C312.863 225.422 311.973 214.254 311.973 214.254C311.973 214.254 312.901 207.347 313.041 204.06C313.092 202.851 313.633 201.344 314.297 199.922C315.065 198.315 315.948 196.765 316.937 195.285C316.937 195.285 358.95 182.877 360.726 184.116C361.194 184.444 361.875 186.671 362.548 189.898C364.409 198.895 366.24 215.795 363.37 222.08Z" fill="#605D82"/>
<circle cx="337.486" cy="101.47" r="12.233" fill="#A1616A"/>
<path opacity="0.1" fill-rule="evenodd" clip-rule="evenodd" d="M362.535 189.898C361.126 190.618 360.181 191.12 360.181 191.12C360.181 191.12 340.326 200.518 334.663 199.985C330.294 199.56 319.143 199.798 314.285 199.922C315.053 198.315 315.935 196.765 316.925 195.285C316.925 195.285 358.937 182.877 360.713 184.116C361.181 184.444 361.863 186.662 362.535 189.898Z" fill="black"/>
<path fill-rule="evenodd" clip-rule="evenodd" d="M328.979 121.005C328.979 121.005 317.631 122.781 314.974 124.552C312.318 126.324 306.995 129.683 306.995 136.964C306.995 144.245 305.756 151.675 305.045 153.804C304.334 155.933 316.231 173.114 316.231 173.114L311.973 199.172C311.973 199.172 329.004 198.644 334.676 199.172C340.347 199.7 360.193 190.311 360.193 190.311C360.193 190.311 371.894 184.103 374.377 183.925C376.859 183.746 369.412 170.274 369.412 170.274C369.412 170.274 357.89 148.469 359.84 144.922C361.79 141.375 363.208 136.236 363.208 136.236L361.079 118.153C361.079 118.153 357.89 117.092 355.229 119.038C352.568 120.984 343.528 119.928 343.528 119.928L328.979 121.005Z" fill="#5A5773"/>
<path opacity="0.1" fill-rule="evenodd" clip-rule="evenodd" d="M309.746 152.561L305.313 153.804L304.07 170.47C304.07 170.47 305.667 174.898 304.07 176.32C302.473 177.742 302.12 208.05 302.12 208.05C302.12 208.05 307.263 211.776 313.288 208.936C313.288 208.936 312.403 205.568 315.064 193.335C317.725 181.102 317.721 174.898 317.721 174.898C317.721 174.898 317.721 159.654 318.964 157.172C320.207 154.69 318.964 148.486 318.964 148.486C318.964 148.486 316.482 145.118 316.656 143.875C316.831 142.631 309.746 152.561 309.746 152.561Z" fill="black"/>
<path opacity="0.1" fill-rule="evenodd" clip-rule="evenodd" d="M311.87 209.936C309.26 210.816 306.417 210.712 303.878 209.642C304.203 208.734 304.582 207.847 305.015 206.985L309.844 204.06C309.844 204.06 310.819 206.568 311.87 209.936Z" fill="black"/>
<path fill-rule="evenodd" clip-rule="evenodd" d="M309.477 152.561L305.045 153.804L303.806 170.47C303.806 170.47 305.403 174.898 303.806 176.32C302.209 177.742 301.856 208.05 301.856 208.05C301.856 208.05 306.995 211.776 313.024 208.936C313.024 208.936 312.139 205.568 314.796 193.335C317.453 181.102 317.457 174.898 317.457 174.898C317.457 174.898 317.457 159.654 318.696 157.172C319.935 154.69 318.696 148.486 318.696 148.486C318.696 148.486 316.213 145.118 316.392 143.875C316.571 142.631 309.477 152.561 309.477 152.561Z" fill="#5A5773"/>
<path opacity="0.1" fill-rule="evenodd" clip-rule="evenodd" d="M354.863 155.23C354.863 155.23 352.559 175.085 345.819 178.807C345.819 178.798 360.887 174.544 354.863 155.23Z" fill="black"/>
<path opacity="0.1" fill-rule="evenodd" clip-rule="evenodd" d="M321.004 156.993C321.004 156.993 329.332 161.072 327.391 163.908C325.449 166.744 321.004 156.993 321.004 156.993Z" fill="black"/>
<path opacity="0.1" fill-rule="evenodd" clip-rule="evenodd" d="M321.004 165.151C321.004 165.151 326.322 170.644 325.262 172.594C324.201 174.544 321.004 165.151 321.004 165.151Z" fill="black"/>
<path opacity="0.1" fill-rule="evenodd" clip-rule="evenodd" d="M363.919 119.588C363.919 119.588 366.005 123.134 366.206 125.438C366.406 127.742 363.919 119.588 363.919 119.588Z" fill="black"/>
<path opacity="0.1" fill-rule="evenodd" clip-rule="evenodd" d="M363.919 114.802C363.919 114.802 364.967 113.916 367.641 114.802C370.314 115.687 363.919 114.802 363.919 114.802Z" fill="black"/>
<path opacity="0.1" fill-rule="evenodd" clip-rule="evenodd" d="M353.666 218.422C349.274 219.045 344.794 218.472 340.701 216.762L338.465 222.48L338.223 219.831C338.585 217.613 339.296 215.233 340.701 214.633C340.701 214.633 345.61 218.554 353.666 218.422Z" fill="black"/>
<path opacity="0.1" fill-rule="evenodd" clip-rule="evenodd" d="M317.299 225.865C317.299 225.865 328.204 228.126 331.261 227.73L317.299 225.865Z" fill="black"/>
<path opacity="0.1" fill-rule="evenodd" clip-rule="evenodd" d="M318.432 228.726C318.432 228.726 323.086 228.526 325.411 229.459L318.432 228.726Z" fill="black"/>
<path opacity="0.1" fill-rule="evenodd" clip-rule="evenodd" d="M318.964 230.655C321.088 231.104 323.243 231.389 325.411 231.507L318.964 230.655Z" fill="black"/>
<path opacity="0.1" fill-rule="evenodd" clip-rule="evenodd" d="M318.696 255.053C318.896 254.917 328.004 252.792 329.136 254.321L318.696 255.053Z" fill="black"/>
<path opacity="0.1" fill-rule="evenodd" clip-rule="evenodd" d="M318.696 257.846C318.696 257.846 326.607 256.918 326.807 257.846C327.007 258.774 318.696 257.846 318.696 257.846Z" fill="black"/>
<path opacity="0.1" fill-rule="evenodd" clip-rule="evenodd" d="M318.696 260.371C318.696 260.371 327.139 258.642 328.136 259.038C329.132 259.434 318.696 260.371 318.696 260.371Z" fill="black"/>
<path opacity="0.1" fill-rule="evenodd" clip-rule="evenodd" d="M319.096 319.935L309.524 326.518C309.524 326.518 309.58 325.747 309.673 324.614C311.802 319.373 314.574 316.609 314.574 316.609C316.733 316.052 318.095 316.571 318.943 317.589C318.977 319.007 319.096 319.935 319.096 319.935Z" fill="black"/>
<path fill-rule="evenodd" clip-rule="evenodd" d="M320.029 325.853C318.678 328.933 317.998 332.263 318.032 335.625C318.085 338.388 317.384 341.113 316.005 343.507C315.806 343.843 315.581 344.164 315.332 344.465C315.332 344.465 308.681 344.414 306.352 342.481C306.097 342.279 305.887 342.027 305.735 341.74C304.402 339.083 308.328 328.911 308.328 328.911C310.389 321.063 314.574 316.878 314.574 316.878C322.021 314.949 320.029 325.853 320.029 325.853Z" fill="#5A5773"/>
<path opacity="0.1" fill-rule="evenodd" clip-rule="evenodd" d="M316.005 343.507C315.806 343.843 315.581 344.164 315.332 344.465C315.332 344.465 308.681 344.414 306.352 342.481C307.498 338.691 311.155 327.229 312.863 329.175C314.472 331.006 315.592 339.819 316.005 343.507Z" fill="black"/>
<path fill-rule="evenodd" clip-rule="evenodd" d="M315.085 329.89L314.621 347.062H316.852C316.852 347.062 317.214 331.998 318.21 329.89C319.207 327.782 315.085 329.89 315.085 329.89Z" fill="#5A5773"/>
<path opacity="0.1" fill-rule="evenodd" clip-rule="evenodd" d="M342.83 331.303C342.83 331.303 333.036 322.064 334.054 321.331C334.322 321.136 334.586 320.348 334.829 319.3C336.707 318.968 339.939 319.756 342.613 327.258C342.676 329.379 342.83 331.303 342.83 331.303Z" fill="black"/>
<path fill-rule="evenodd" clip-rule="evenodd" d="M344.29 341.608C344.214 341.636 344.136 341.657 344.056 341.671C342.906 341.876 338.67 341.757 336.298 341.671C335.401 341.629 334.691 340.897 334.676 339.998C334.676 339.359 334.676 338.58 334.625 337.75C334.514 335.127 334.199 332.006 333.258 331.303C331.593 330.026 330.277 325.687 333.258 320.199C333.258 320.199 338.972 315.839 343.094 328.953C343.094 328.953 343.494 332.7 345.291 334.029C347.088 335.357 345.091 341.207 344.29 341.608Z" fill="#5A5773"/>
<path opacity="0.1" fill-rule="evenodd" clip-rule="evenodd" d="M344.056 341.671C342.906 341.876 338.67 341.757 336.298 341.671C335.401 341.629 334.691 340.896 334.676 339.998C334.676 339.359 334.676 338.58 334.625 337.75C335.344 334.569 336.379 331.303 337.712 330.558C337.712 330.558 341.744 330.103 344.056 341.671Z" fill="black"/>
<path fill-rule="evenodd" clip-rule="evenodd" d="M333.982 330.171L335.05 344.465H336.413V328.953L333.982 330.171Z" fill="#5A5773"/>
<path opacity="0.1" fill-rule="evenodd" clip-rule="evenodd" d="M337.311 81.9945C333.449 82.2821 329.71 83.4831 326.403 85.4988C325.551 86.014 324.7 86.6357 324.346 87.5596C324.04 88.3601 324.167 89.2628 324.18 90.1144C324.295 97.4507 316.12 102.999 316.375 110.327C316.477 113.235 317.938 115.943 318.206 118.842C318.653 123.675 315.792 128.129 313.05 132.136C315.875 132.306 318.657 131.384 320.821 129.56C323.721 139.207 324.099 149.436 321.919 159.271H325.841C326.228 159.246 326.617 159.295 326.986 159.416C327.331 159.578 327.64 159.808 327.893 160.093C331.559 163.742 334.016 169.137 332.615 174.119L340.96 170.989C342.957 170.24 344.984 169.478 346.721 168.238C348.459 166.999 349.915 165.215 350.281 163.129C350.507 161.852 350.434 160.327 351.486 159.586C352.003 159.307 352.556 159.101 353.13 158.973C355.42 158.169 356.434 155.52 356.902 153.136C357.472 150.21 357.651 147.222 357.434 144.249C357.064 139.268 355.591 134.209 356.804 129.347C357.49 126.617 359.014 124.071 359.137 121.257C359.338 116.607 355.706 112.609 355.165 107.989C354.786 104.766 355.948 101.513 355.569 98.2938C355.142 94.9219 353.097 91.9704 350.089 90.3869C349.063 89.8589 347.96 89.5012 346.947 88.9222C344.635 87.5809 343.158 85.1624 341.058 83.5018C338.959 81.8413 335.463 81.2153 333.884 83.3784L337.311 81.9945Z" fill="black"/>
<path fill-rule="evenodd" clip-rule="evenodd" d="M337.311 81.4495C333.447 81.7435 329.708 82.9519 326.403 84.975C325.551 85.4902 324.7 86.1119 324.346 87.0401C324.04 87.8406 324.167 88.7433 324.18 89.5948C324.295 96.927 316.12 102.475 316.375 109.803C316.477 112.711 317.938 115.419 318.206 118.319C318.653 123.156 315.792 127.605 313.05 131.612C315.875 131.782 318.657 130.86 320.821 129.036C323.721 138.683 324.099 148.913 321.919 158.748H325.841C326.228 158.722 326.617 158.771 326.986 158.892C327.331 159.054 327.64 159.285 327.893 159.569C331.559 163.218 334.016 168.613 332.615 173.595L340.96 170.465C342.957 169.716 344.984 168.954 346.721 167.715C348.459 166.476 349.915 164.692 350.281 162.605C350.507 161.328 350.434 159.803 351.486 159.063C352.002 158.783 352.556 158.578 353.13 158.454C355.42 157.645 356.434 154.996 356.902 152.612C357.472 149.686 357.651 146.698 357.434 143.726C357.064 138.744 355.591 133.685 356.804 128.823C357.49 126.094 359.014 123.547 359.137 120.733C359.338 116.083 355.706 112.085 355.165 107.465C354.786 104.242 355.948 100.989 355.569 97.77C355.142 94.3981 353.097 91.4467 350.089 89.8631C349.063 89.3351 347.96 88.9817 346.947 88.3984C344.635 87.0571 343.158 84.6386 341.058 82.9781C338.959 81.3175 335.463 80.6916 333.884 82.8546L337.311 81.4495Z" fill="#4A4347"/>
<g opacity="0.1">
<path fill-rule="evenodd" clip-rule="evenodd" d="M324.172 87.7981C324.155 87.9636 324.146 88.1299 324.146 88.2963C324.159 88.1302 324.167 87.9556 324.172 87.7981Z" fill="black"/>
<path fill-rule="evenodd" clip-rule="evenodd" d="M355.135 104.847C355.288 102.59 355.791 100.325 355.603 98.0767C355.446 100.333 354.943 102.594 355.135 104.847Z" fill="black"/>
<path fill-rule="evenodd" clip-rule="evenodd" d="M318.206 116.058C317.959 113.418 316.729 110.948 316.439 108.308C316.382 108.791 316.36 109.278 316.375 109.765C316.478 112.643 317.904 115.325 318.193 118.191C318.264 117.482 318.268 116.768 318.206 116.058Z" fill="black"/>
<path fill-rule="evenodd" clip-rule="evenodd" d="M356.804 126.554C356.405 128.286 356.262 130.068 356.378 131.842C356.423 130.807 356.565 129.779 356.804 128.772C357.49 126.043 359.014 123.496 359.137 120.682C359.158 120.181 359.135 119.68 359.069 119.183C358.754 121.717 357.43 124.054 356.804 126.554Z" fill="black"/>
<path fill-rule="evenodd" clip-rule="evenodd" d="M320.821 126.783C319.046 128.275 316.847 129.169 314.536 129.338C314.051 130.096 313.548 130.841 313.05 131.569C315.875 131.739 318.657 130.817 320.821 128.993C322.373 134.16 323.207 139.515 323.299 144.909C323.422 138.775 322.586 132.659 320.821 126.783Z" fill="black"/>
<path fill-rule="evenodd" clip-rule="evenodd" d="M356.902 150.321C356.434 152.706 355.42 155.354 353.13 156.163C352.557 156.291 352.004 156.496 351.486 156.772C350.434 157.517 350.507 159.05 350.285 160.314C349.915 162.418 348.463 164.206 346.721 165.445C344.98 166.684 342.957 167.446 340.96 168.196L332.998 171.176C332.959 171.977 332.83 172.771 332.615 173.544L340.96 170.414C342.957 169.665 344.984 168.903 346.721 167.664C348.459 166.425 349.915 164.64 350.285 162.554C350.507 161.277 350.434 159.752 351.486 159.012C352.002 158.732 352.556 158.527 353.13 158.403C355.42 157.594 356.434 154.945 356.902 152.561C357.387 150.079 357.588 147.551 357.502 145.024C357.444 146.803 357.244 148.574 356.902 150.321Z" fill="black"/>
<path fill-rule="evenodd" clip-rule="evenodd" d="M327.893 157.3C327.64 157.015 327.331 156.785 326.986 156.623C326.617 156.502 326.228 156.453 325.841 156.478H322.362C322.226 157.223 322.081 157.964 321.936 158.701H325.858C326.245 158.676 326.634 158.725 327.003 158.846C327.348 159.007 327.657 159.238 327.91 159.523C330.592 162.192 332.628 165.799 332.973 169.495C333.398 165.054 331.133 160.502 327.893 157.3Z" fill="black"/>
</g>
<path opacity="0.1" fill-rule="evenodd" clip-rule="evenodd" d="M308.439 171.798C308.439 171.798 311.606 170.47 312.313 171.798C313.02 173.127 308.439 171.798 308.439 171.798Z" fill="black"/>
<path opacity="0.1" fill-rule="evenodd" clip-rule="evenodd" d="M309.537 174.076C309.537 174.076 312.705 172.743 313.416 174.076C314.127 175.409 309.537 174.076 309.537 174.076Z" fill="black"/>
<path fill-rule="evenodd" clip-rule="evenodd" d="M427.43 318.27C427.43 318.27 429.772 321.331 426.353 325.934C422.934 330.537 420.115 334.45 421.243 337.333C421.243 337.333 426.404 328.753 430.611 328.634C434.818 328.515 432.046 323.418 427.43 318.27Z" fill="#4D7CFE"/>
<path opacity="0.1" fill-rule="evenodd" clip-rule="evenodd" d="M427.43 318.27C427.634 318.566 427.795 318.89 427.907 319.232C432.003 324.044 434.187 328.536 430.249 328.647C426.583 328.753 422.184 335.31 421.128 336.966C421.163 337.095 421.204 337.221 421.252 337.345C421.252 337.345 426.412 328.766 430.619 328.647C434.826 328.527 432.046 323.418 427.43 318.27Z" fill="black"/>
<path fill-rule="evenodd" clip-rule="evenodd" d="M431.777 322.17C431.777 323.248 431.658 324.12 431.509 324.12C431.36 324.12 431.241 323.269 431.241 322.17C431.241 321.072 431.39 321.6 431.539 321.6C431.688 321.6 431.777 321.093 431.777 322.17Z" fill="#FFD037"/>
<path fill-rule="evenodd" clip-rule="evenodd" d="M433.272 323.456C432.327 323.971 431.501 324.282 431.432 324.15C431.364 324.018 432.067 323.494 433.012 322.979C433.957 322.464 433.587 322.843 433.655 322.979C433.723 323.116 434.217 322.941 433.272 323.456Z" fill="#FFD037"/>
<path fill-rule="evenodd" clip-rule="evenodd" d="M415.074 318.27C415.074 318.27 412.736 321.331 416.155 325.934C419.574 330.537 422.393 334.45 421.265 337.333C421.265 337.333 416.108 328.753 411.897 328.634C407.686 328.515 410.458 323.418 415.074 318.27Z" fill="#4D7CFE"/>
<path opacity="0.1" fill-rule="evenodd" clip-rule="evenodd" d="M415.074 318.27C414.871 318.568 414.711 318.891 414.597 319.232C410.501 324.044 408.321 328.536 412.255 328.647C415.925 328.753 420.345 335.31 421.38 336.966C421.345 337.095 421.303 337.222 421.252 337.345C421.252 337.345 416.096 328.766 411.884 328.647C407.673 328.527 410.458 323.418 415.074 318.27Z" fill="black"/>
<path fill-rule="evenodd" clip-rule="evenodd" d="M410.726 322.17C410.726 323.248 410.85 324.12 410.999 324.12C411.148 324.12 411.267 323.269 411.267 322.17C411.267 321.072 411.118 321.6 410.969 321.6C410.82 321.6 410.726 321.093 410.726 322.17Z" fill="#FFD037"/>
<path fill-rule="evenodd" clip-rule="evenodd" d="M409.236 323.456C410.181 323.971 411.003 324.282 411.075 324.15C411.148 324.018 410.437 323.494 409.491 322.979C408.546 322.464 408.921 322.843 408.849 322.979C408.776 323.116 408.291 322.941 409.236 323.456Z" fill="#FFD037"/>
<path fill-rule="evenodd" clip-rule="evenodd" d="M411.471 336.945C411.471 336.945 418.012 336.741 419.987 335.34C421.963 333.939 430.049 332.261 430.534 334.488C431.019 336.715 440.366 345.682 432.982 345.742C425.599 345.802 415.823 344.592 413.856 343.396C411.889 342.199 411.471 336.945 411.471 336.945Z" fill="#A8A8A8"/>
<path opacity="0.2" fill-rule="evenodd" clip-rule="evenodd" d="M433.11 344.98C425.727 345.04 415.951 343.83 413.984 342.634C412.489 341.718 411.889 338.444 411.689 336.937H411.471C411.471 336.937 411.897 342.208 413.852 343.409C415.806 344.61 425.595 345.815 432.978 345.755C435.107 345.755 435.844 344.98 435.805 343.856C435.507 344.546 434.694 344.967 433.11 344.98Z" fill="black"/>
<rect opacity="0.1" x="50.9416" y="7.10645" width="371.29" height="11.1515" fill="#4D7CFE"/>
<circle cx="58.3929" cy="12.6843" r="2.36314" fill="#FEFEFE"/>
<circle cx="65.6314" cy="12.6843" r="2.36314" fill="#FEFEFE"/>
<circle cx="72.8698" cy="12.6843" r="2.36314" fill="#FEFEFE"/>
<path fill-rule="evenodd" clip-rule="evenodd" d="M195.919 331.61C195.919 331.61 177.917 330.524 180.037 343.136C180.037 343.136 179.611 345.367 181.638 346.381C181.638 346.381 181.672 345.444 183.486 345.763C184.132 345.87 184.787 345.902 185.44 345.857C186.324 345.795 187.163 345.449 187.833 344.869C187.833 344.869 192.892 342.779 194.859 334.51C194.859 334.51 196.315 332.704 196.255 332.24L193.22 333.518C193.22 333.518 194.259 335.706 193.441 337.529C193.441 337.529 193.343 333.594 192.76 333.696C192.641 333.718 191.18 334.454 191.18 334.454C191.18 334.454 192.968 338.286 191.606 341.05C191.606 341.05 192.117 336.345 190.609 334.731L188.481 335.979C188.481 335.979 190.567 339.926 189.153 343.141C189.153 343.141 189.515 338.206 188.029 336.285L186.092 337.797C186.092 337.797 188.055 341.684 186.858 344.35C186.858 344.35 186.701 338.606 185.675 338.172C185.675 338.172 183.971 339.666 183.72 340.3C183.72 340.3 185.061 343.119 184.231 344.609C184.231 344.609 183.72 340.777 183.299 340.777C183.299 340.777 181.595 343.311 181.434 345.035C181.434 345.035 181.506 342.451 182.89 340.522C181.916 340.704 181.017 341.169 180.305 341.859C180.305 341.859 180.565 340.066 183.307 339.909C183.307 339.909 184.704 337.988 185.074 337.869C185.074 337.869 182.349 337.644 180.697 338.376C180.697 338.376 182.153 336.673 185.577 337.452L187.488 335.889C187.488 335.889 183.899 335.4 182.379 335.94C182.379 335.94 184.129 334.446 188.004 335.536L190.086 334.288C190.086 334.288 187.029 333.633 185.206 333.863C185.206 333.863 187.127 332.828 190.699 333.952L192.185 333.283C192.185 333.283 189.945 332.858 189.29 332.773C188.634 332.687 188.6 332.521 188.6 332.521C190.018 332.284 191.475 332.447 192.807 332.99C192.807 332.99 195.974 331.81 195.919 331.61Z" fill="#4D7CFE"/>
<ellipse opacity="0.1" cx="183.516" cy="347.479" rx="12.7397" ry="2.1545" fill="#4D7CFE"/>
<path fill-rule="evenodd" clip-rule="evenodd" d="M164.381 332.283C164.381 332.283 154.23 331.67 155.439 338.78C155.313 339.521 155.677 340.258 156.342 340.607C156.342 340.607 156.342 340.083 157.381 340.262C157.745 340.322 158.115 340.339 158.484 340.313C158.983 340.281 159.457 340.085 159.833 339.755C159.833 339.755 162.686 338.58 163.793 333.918C163.793 333.918 164.615 332.9 164.581 332.64L162.878 333.373C162.878 333.373 163.465 334.608 163.005 335.634C163.005 335.634 162.95 333.42 162.618 333.471C162.554 333.471 161.728 333.897 161.728 333.897C161.728 333.897 162.737 336.051 161.975 337.614C161.975 337.614 162.265 334.965 161.413 334.054L160.208 334.757C160.208 334.757 161.387 336.979 160.587 338.793C160.587 338.793 160.791 336.013 159.957 334.931L158.863 335.783C158.863 335.783 159.97 337.971 159.288 339.479C159.288 339.479 159.203 336.238 158.624 335.991C158.209 336.342 157.838 336.742 157.521 337.184C157.521 337.184 158.279 338.772 157.807 339.611C157.807 339.611 157.521 337.456 157.283 337.443C157.283 337.443 156.333 338.874 156.231 339.853C156.277 338.945 156.561 338.064 157.053 337.299C156.504 337.402 155.998 337.664 155.597 338.052C155.597 338.052 155.741 337.043 157.3 336.954C157.3 336.954 158.088 335.872 158.3 335.804C158.3 335.804 156.763 335.676 155.831 336.089C155.831 336.089 156.648 335.136 158.582 335.57L159.659 334.689C159.659 334.689 157.636 334.412 156.776 334.718C156.776 334.718 157.764 333.867 159.948 334.488L161.123 333.786C160.221 333.588 159.296 333.508 158.373 333.547C158.373 333.547 159.454 332.964 161.468 333.598L162.32 333.22C162.32 333.22 161.043 332.973 160.685 332.934C160.327 332.896 160.297 332.794 160.297 332.794C161.097 332.66 161.918 332.752 162.669 333.058C162.669 333.058 164.411 332.394 164.381 332.283Z" fill="#4D7CFE"/>
<ellipse opacity="0.1" cx="157.385" cy="341.229" rx="7.18309" ry="1.2135" fill="#4D7CFE"/>
<path fill-rule="evenodd" clip-rule="evenodd" d="M183.699 317.206C183.699 317.206 171.445 316.465 172.892 325.053C172.738 325.946 173.176 326.836 173.978 327.259C173.978 327.259 173.978 326.62 175.234 326.833C175.674 326.907 176.122 326.929 176.567 326.897C177.168 326.857 177.74 326.62 178.193 326.224C178.193 326.224 181.638 324.802 182.979 319.173C182.979 319.173 183.971 317.946 183.929 317.627L181.864 318.513C181.864 318.513 182.571 320.003 182.013 321.242C182.013 321.242 181.945 318.568 181.549 318.628C181.468 318.628 180.476 319.147 180.476 319.147C180.476 319.147 181.689 321.745 180.774 323.635C180.774 323.635 181.123 320.433 180.097 319.335L178.641 320.186C178.641 320.186 180.058 322.873 179.096 325.061C179.096 325.061 179.343 321.702 178.334 320.378L177.014 321.408C177.014 321.408 178.351 324.052 177.533 325.87C177.533 325.87 177.427 321.957 176.729 321.664C176.729 321.664 175.575 322.681 175.4 323.099C175.4 323.099 176.311 325.019 175.745 326.032C175.745 326.032 175.396 323.426 175.111 323.414C175.111 323.414 173.965 325.142 173.833 326.322C173.891 325.228 174.233 324.168 174.825 323.248C174.162 323.374 173.551 323.692 173.067 324.163C173.067 324.163 173.246 322.941 175.111 322.835C175.111 322.835 176.06 321.523 176.316 321.446C176.316 321.446 174.459 321.289 173.335 321.787C173.335 321.787 174.323 320.637 176.652 321.161L177.955 320.097C177.955 320.097 175.515 319.765 174.476 320.131C174.476 320.131 175.668 319.113 178.308 319.858L179.726 319.007C179.726 319.007 177.644 318.581 176.401 318.721C176.401 318.721 177.712 318.015 180.139 318.781L181.153 318.325C181.153 318.325 179.628 318.027 179.181 317.981C178.734 317.934 178.713 317.81 178.713 317.81C179.679 317.647 180.671 317.756 181.578 318.125C181.578 318.125 183.737 317.338 183.699 317.206Z" fill="#4D7CFE"/>
<ellipse opacity="0.1" cx="175.26" cy="328.004" rx="8.67336" ry="1.46472" fill="#4D7CFE"/>
<ellipse opacity="0.1" cx="264.65" cy="328.608" rx="12.7397" ry="2.1545" fill="#4D7CFE"/>
<path fill-rule="evenodd" clip-rule="evenodd" d="M256.092 318.598C256.092 318.598 263.36 318.377 265.553 316.818C267.746 315.26 276.73 313.412 277.275 315.894C277.82 318.377 288.196 328.336 279.991 328.404C271.787 328.472 260.925 327.127 258.74 325.794C256.556 324.461 256.092 318.598 256.092 318.598Z" fill="#A8A8A8"/>
<path opacity="0.2" fill-rule="evenodd" clip-rule="evenodd" d="M280.136 327.531C271.931 327.599 261.074 326.254 258.885 324.921C257.22 323.907 256.56 320.271 256.33 318.589H256.088C256.088 318.589 256.552 324.452 258.736 325.785C260.92 327.118 271.782 328.459 279.987 328.395C282.355 328.374 283.172 327.544 283.13 326.266C282.802 327.046 281.899 327.518 280.136 327.531Z" fill="black"/>
<defs>
<linearGradient id="paint0_linear" x1="376.284" y1="347.062" x2="376.284" y2="75.2287" gradientUnits="userSpaceOnUse">
<stop stop-color="#808080" stop-opacity="0.25"/>
<stop offset="0.54" stop-color="#808080" stop-opacity="0.12"/>
<stop offset="1" stop-color="#808080" stop-opacity="0.1"/>
</linearGradient>
</defs>
</svg>
