<svg width="460" height="312" viewBox="0 0 460 312" fill="none" xmlns="http://www.w3.org/2000/svg">
<path opacity="0.1" fill-rule="evenodd" clip-rule="evenodd" d="M248.935 45.5538C220.707 45.5092 193.508 36.7392 167.486 26.9794C141.464 17.2196 115.649 6.33615 87.9314 1.66719C70.0831 -1.33457 49.8414 -1.13175 35.94 9.52857C22.566 19.7873 18.7367 36.8122 16.9032 52.5593C15.528 64.3959 14.9115 76.8289 20.2173 87.6758C23.9046 95.2086 30.1921 101.423 34.642 108.607C50.1254 133.595 40.9376 165.397 26.0261 190.88C19.0287 202.81 10.8307 214.261 5.55326 226.901C0.275839 239.541 -1.8619 253.884 3.58995 266.39C9.00124 278.791 21.1705 287.833 34.1877 294.002C60.6721 306.577 91.4483 309.344 121.401 310.468C187.716 312.958 254.132 308.52 320.373 304.058C344.886 302.411 369.509 300.748 393.507 295.828C406.832 293.098 420.547 289.029 429.974 280.04C441.941 268.633 444.342 249.954 435.576 236.498C420.868 213.908 382.267 209.543 371.679 185.132C365.85 171.693 370.799 156.331 378.113 143.407C393.807 115.706 420.884 90.9291 421.253 59.8892C421.504 38.5686 407.327 17.7307 386.217 8.40088C364.086 -1.39136 333.971 1.01817 318.544 19.0612C302.659 37.6397 273.862 45.5944 248.935 45.5538Z" fill="#4D7CFE"/>
<path fill-rule="evenodd" clip-rule="evenodd" d="M389.353 253.933C389.353 253.933 384.368 250.643 379.427 252.984C379.427 252.984 380.948 255.917 387.203 255.637L389.353 253.933Z" fill="#4D7CFE"/>
<path fill-rule="evenodd" clip-rule="evenodd" d="M389.966 254.111C389.966 254.111 391.483 259.888 387.682 263.819C387.682 263.819 385.394 261.433 387.682 255.6L389.966 254.111Z" fill="#4D7CFE"/>
<path fill-rule="evenodd" clip-rule="evenodd" d="M396.184 248.566C396.184 248.566 395.815 243.65 384.725 245.281C384.725 245.281 384.672 248.453 388.566 249.954C392.46 251.454 394.241 250.189 396.184 248.566Z" fill="#4D7CFE"/>
<path fill-rule="evenodd" clip-rule="evenodd" d="M396.866 248.53C396.866 248.53 401.559 250.039 397.377 260.444C397.377 260.444 394.282 259.75 393.726 255.612C393.17 251.475 394.833 250.039 396.866 248.53Z" fill="#4D7CFE"/>
<path fill-rule="evenodd" clip-rule="evenodd" d="M403.149 241.561C403.149 241.561 403.782 233.476 392.444 234.308C392.444 234.308 391.633 241.61 401.145 243.504L403.149 241.561Z" fill="#4D7CFE"/>
<path fill-rule="evenodd" clip-rule="evenodd" d="M410.641 232.434C410.641 232.434 409.084 223.274 397.754 226.004C397.754 226.004 397.709 233.927 408.787 234.62L410.641 232.434Z" fill="#4D7CFE"/>
<path fill-rule="evenodd" clip-rule="evenodd" d="M416.113 222.999C416.113 222.999 413.513 214.074 402.285 216.748C402.285 216.748 404.954 224.771 415.367 224.65L416.113 222.999Z" fill="#4D7CFE"/>
<path fill-rule="evenodd" clip-rule="evenodd" d="M421.314 213.786C421.314 213.786 418.77 204.526 407.928 207.296C407.928 207.296 411.546 216.095 420.6 215.356L421.314 213.786Z" fill="#4D7CFE"/>
<path fill-rule="evenodd" clip-rule="evenodd" d="M424.668 205.033C424.668 205.033 422.713 193.723 412.617 196.214C412.617 196.214 415.554 206.517 423.934 206.68L424.668 205.033Z" fill="#4D7CFE"/>
<path fill-rule="evenodd" clip-rule="evenodd" d="M427.808 194.458C427.808 194.458 425.463 183.039 415.233 186.345C415.233 186.345 419.245 197.131 427.086 196.015L427.808 194.458Z" fill="#4D7CFE"/>
<path fill-rule="evenodd" clip-rule="evenodd" d="M429.755 184.613C429.755 184.613 426.027 173.198 418.121 173.506C418.121 173.506 421.934 185.566 429.074 186.892L429.755 184.613Z" fill="#4D7CFE"/>
<path fill-rule="evenodd" clip-rule="evenodd" d="M430.992 175.011C430.992 175.011 426.936 161.268 420.502 162.326C420.502 162.326 423.31 172.833 430.765 177.149L430.992 175.011Z" fill="#4D7CFE"/>
<path fill-rule="evenodd" clip-rule="evenodd" d="M431.682 163.539C431.682 163.539 427.881 152.084 421.541 151.63C421.541 151.63 424.129 162.898 431.552 166.513L431.682 163.539Z" fill="#4D7CFE"/>
<path fill-rule="evenodd" clip-rule="evenodd" d="M432.465 152.859C432.465 152.859 427.723 141.391 423.541 141.136C423.541 141.136 425.597 152.421 432.059 154.741L432.465 152.859Z" fill="#4D7CFE"/>
<path fill-rule="evenodd" clip-rule="evenodd" d="M432.988 142.912C432.988 142.912 430.059 130.443 425.881 129.429C425.881 129.429 426.457 139.61 432.57 143.841L432.988 142.912Z" fill="#4D7CFE"/>
<path fill-rule="evenodd" clip-rule="evenodd" d="M434.566 129.895C434.566 129.895 431.499 119.973 428.104 118.46C428.104 118.46 428.778 130.159 433.783 132.325L434.566 129.895Z" fill="#4D7CFE"/>
<path fill-rule="evenodd" clip-rule="evenodd" d="M435.876 121.348L436.497 103.849C436.497 103.849 430.161 117.053 435.41 124.435L435.876 121.348Z" fill="#4D7CFE"/>
<path fill-rule="evenodd" clip-rule="evenodd" d="M440.781 103.958C440.781 103.958 445.348 91.1765 446.46 90.4667C446.46 90.4667 437.495 98.754 438.371 109.422L440.781 103.958Z" fill="#4D7CFE"/>
<path fill-rule="evenodd" clip-rule="evenodd" d="M403.457 241.504C403.457 241.504 411.497 240.449 411.254 251.816C411.254 251.816 403.989 252.996 401.62 243.601L403.457 241.504Z" fill="#4D7CFE"/>
<path fill-rule="evenodd" clip-rule="evenodd" d="M411.019 232.13C411.019 232.13 420.312 232.097 419.537 243.731C419.537 243.731 411.741 245.122 409.165 234.324L411.019 232.13Z" fill="#4D7CFE"/>
<path fill-rule="evenodd" clip-rule="evenodd" d="M416.203 223.741C416.203 223.741 424.636 219.786 430.035 229.992C430.035 229.992 422.243 233.29 415.46 225.388L416.203 223.741Z" fill="#4D7CFE"/>
<path fill-rule="evenodd" clip-rule="evenodd" d="M421.504 213.872C421.504 213.872 430.136 209.661 435.207 219.636C435.207 219.636 426.214 222.735 420.79 215.45L421.504 213.872Z" fill="#4D7CFE"/>
<path fill-rule="evenodd" clip-rule="evenodd" d="M424.559 205.276C424.559 205.276 432.871 197.338 439.503 205.369C439.503 205.369 431.013 211.9 424.174 207.045L424.559 205.276Z" fill="#4D7CFE"/>
<path fill-rule="evenodd" clip-rule="evenodd" d="M427.338 194.186C427.338 194.186 435.702 186.073 442.281 194.559C442.281 194.559 432.895 201.224 427.041 195.889L427.338 194.186Z" fill="#4D7CFE"/>
<path fill-rule="evenodd" clip-rule="evenodd" d="M428.903 184.288C428.903 184.288 435.345 174.147 442.926 176.414C442.926 176.414 436.246 187.152 428.976 186.673L428.903 184.288Z" fill="#4D7CFE"/>
<path fill-rule="evenodd" clip-rule="evenodd" d="M430.802 174.946C430.802 174.946 437.292 162.172 443.429 164.399C443.429 164.399 438.752 174.216 430.635 177.1L430.802 174.946Z" fill="#4D7CFE"/>
<path fill-rule="evenodd" clip-rule="evenodd" d="M431.248 162.894C431.248 162.894 437.921 152.842 444.172 154.068C444.172 154.068 438.72 164.261 430.603 165.803L431.248 162.894Z" fill="#4D7CFE"/>
<path fill-rule="evenodd" clip-rule="evenodd" d="M431.759 152.632C431.759 152.632 436.927 141.355 441.134 141.253C441.134 141.253 438.651 152.457 432.104 154.53L431.759 152.632Z" fill="#4D7CFE"/>
<path fill-rule="evenodd" clip-rule="evenodd" d="M432.781 142.665C432.781 142.665 438.529 131.242 442.849 131.222C442.849 131.222 439.908 140.986 432.976 143.671L432.781 142.665Z" fill="#4D7CFE"/>
<path fill-rule="evenodd" clip-rule="evenodd" d="M433.649 130.597C433.649 130.597 437.949 121.145 441.507 120.075C441.507 120.075 439.357 131.595 434.12 133.104L433.649 130.597Z" fill="#4D7CFE"/>
<path fill-rule="evenodd" clip-rule="evenodd" d="M436.392 121.016L445.997 106.38C445.997 106.38 443.539 120.817 434.988 123.823L436.392 121.016Z" fill="#4D7CFE"/>
<path fill-rule="evenodd" clip-rule="evenodd" d="M442.987 105.135C442.987 105.135 454.155 97.4275 454.556 96.1781C454.556 96.1781 448.877 106.976 438.331 108.883L442.987 105.135Z" fill="#4D7CFE"/>
<path fill-rule="evenodd" clip-rule="evenodd" d="M443.653 101.666C443.653 101.666 456.475 89.339 459.749 89.3552C459.749 89.3552 449.173 89.8379 443.344 101.009L443.653 101.666Z" fill="#4D7CFE"/>
<path fill-rule="evenodd" clip-rule="evenodd" d="M433.771 132.426L434.238 132.487C436.647 113.625 440.16 102.47 444.131 101.099L443.977 100.656C439.771 102.117 436.241 113.102 433.771 132.426Z" fill="#444053"/>
<path fill-rule="evenodd" clip-rule="evenodd" d="M430.23 177.522L430.936 177.583C431.082 175.822 431.195 174.017 431.272 172.224C431.946 156.611 432.992 142.28 434.363 131.534L433.958 131.027C432.583 141.793 431.244 156.562 430.571 172.192C430.489 173.977 430.376 175.769 430.23 177.522Z" fill="#444053"/>
<path fill-rule="evenodd" clip-rule="evenodd" d="M376.186 262.914C376.312 262.857 388.737 257.312 401.632 244.076C409.186 236.325 415.464 227.426 420.231 217.709C426.19 205.568 429.824 190.648 431.045 176.155L430.311 176.5C427.573 209.028 412.763 231.262 400.983 243.366C388.213 256.484 375.93 261.977 375.809 262.026L376.186 262.914Z" fill="#444053"/>
<path fill-rule="evenodd" clip-rule="evenodd" d="M425.808 19.8279H36.0333C34.1156 19.8279 32.561 21.3825 32.561 23.3002V33.4169H429.281V23.3002C429.281 21.3825 427.726 19.8279 425.808 19.8279Z" fill="#3F3D56"/>
<path fill-rule="evenodd" clip-rule="evenodd" d="M32.561 33.4169V261.08C32.561 264.947 35.6957 268.082 39.5624 268.082H422.279C426.146 268.082 429.281 264.947 429.281 261.08V33.4169H32.561Z" fill="white"/>
<circle opacity="0.8" cx="38.8485" cy="26.5169" r="1.62257" fill="#FA5959"/>
<circle opacity="0.8" cx="43.3106" cy="26.5169" r="1.62257" fill="#FED253"/>
<circle opacity="0.8" cx="47.7727" cy="26.5169" r="1.62257" fill="#8CCF4D"/>
<g opacity="0.3">
<rect x="47.7727" y="47.2048" width="366.702" height="206.878" stroke="#3F3D56"/>
<rect x="95.6386" y="47.2048" width="270.97" height="206.878" stroke="#3F3D56"/>
<rect x="143.505" y="47.2048" width="175.238" height="206.878" stroke="#3F3D56"/>
<rect x="191.371" y="47.2048" width="79.5062" height="206.878" stroke="#3F3D56"/>
<path d="M231.124 47.2048V254.083" stroke="#3F3D56"/>
<rect x="47.7727" y="77.2224" width="366.702" height="146.843" stroke="#3F3D56"/>
<rect x="47.7727" y="106.834" width="366.702" height="87.619" stroke="#3F3D56"/>
<rect x="47.7727" y="136.446" width="366.702" height="28.3951" stroke="#3F3D56"/>
</g>
<rect opacity="0.1" x="105.171" y="58.7656" width="28.8007" height="10.5467" fill="#3F3D56"/>
<rect opacity="0.1" x="60.1448" y="87.5663" width="21.4991" height="10.5467" fill="#3F3D56"/>
<rect opacity="0.1" x="151.82" y="58.7656" width="28.8007" height="10.5467" fill="#3F3D56"/>
<rect opacity="0.1" x="195.63" y="58.7656" width="28.8007" height="10.5467" fill="#3F3D56"/>
<rect opacity="0.1" x="236.194" y="58.7656" width="28.8007" height="10.5467" fill="#3F3D56"/>
<rect opacity="0.1" x="281.626" y="58.7656" width="28.8007" height="10.5467" fill="#3F3D56"/>
<rect opacity="0.1" x="327.87" y="58.7656" width="28.8007" height="10.5467" fill="#3F3D56"/>
<rect opacity="0.1" x="376.953" y="58.7656" width="28.8007" height="10.5467" fill="#3F3D56"/>
<rect x="162.172" y="115.941" width="18.7123" height="18.116" fill="url(#paint0_linear)"/>
<rect x="162.497" y="116.253" width="18.0674" height="17.4914" fill="#4D7CFE"/>
<rect x="200.725" y="112.014" width="18.7123" height="18.116" fill="url(#paint1_linear)"/>
<rect x="201.049" y="112.327" width="18.0674" height="17.4914" fill="#FFAB2B"/>
<rect x="274.957" y="173.672" width="18.7123" height="18.116" fill="url(#paint2_linear)"/>
<rect x="275.282" y="173.985" width="18.0674" height="17.4914" fill="#FFAB2B"/>
<rect x="110.161" y="83.6559" width="18.7123" height="18.116" fill="url(#paint3_linear)"/>
<rect x="110.481" y="83.9683" width="18.0674" height="17.4914" fill="#FFAB2B"/>
<rect x="147.342" y="109.617" width="18.7123" height="18.116" fill="url(#paint4_linear)"/>
<rect x="147.662" y="109.929" width="18.0674" height="17.4914" fill="#FE4D97"/>
<rect x="296.846" y="173.543" width="18.7123" height="18.116" fill="url(#paint5_linear)"/>
<rect x="297.171" y="173.855" width="18.0674" height="17.4914" fill="#4D7CFE"/>
<rect x="329.703" y="83.8952" width="18.7123" height="18.116" fill="url(#paint6_linear)"/>
<rect x="330.028" y="84.2076" width="18.0674" height="17.4914" fill="#4D7CFE"/>
<rect x="327.675" y="141.497" width="18.7123" height="18.116" fill="url(#paint7_linear)"/>
<rect x="327.999" y="141.809" width="18.0674" height="17.4914" fill="#4D7CFE"/>
<rect x="341.872" y="145.553" width="18.7123" height="18.116" fill="url(#paint8_linear)"/>
<rect x="342.197" y="145.865" width="18.0674" height="17.4914" fill="#4D7CFE"/>
<rect x="282.016" y="167.219" width="18.7123" height="18.116" fill="url(#paint9_linear)"/>
<rect x="282.336" y="167.531" width="18.0674" height="17.4914" fill="#FE4D97"/>
<rect x="284.044" y="112.457" width="18.7123" height="18.116" fill="url(#paint10_linear)"/>
<rect x="284.364" y="112.769" width="18.0674" height="17.4914" fill="#FE4D97"/>
<rect opacity="0.1" x="60.1448" y="115.961" width="21.4991" height="10.5467" fill="#3F3D56"/>
<rect opacity="0.1" x="60.1448" y="145.573" width="21.4991" height="10.5467" fill="#3F3D56"/>
<rect opacity="0.1" x="60.1448" y="175.185" width="21.4991" height="10.5467" fill="#3F3D56"/>
<rect opacity="0.1" x="60.1448" y="204.797" width="21.4991" height="10.5467" fill="#3F3D56"/>
<rect opacity="0.1" x="60.1448" y="234.409" width="21.4991" height="10.5467" fill="#3F3D56"/>
<path fill-rule="evenodd" clip-rule="evenodd" d="M125.453 142.413C126.054 142.032 125.814 141.01 125.198 140.657C124.581 140.304 123.815 140.422 123.121 140.56C123.182 140.197 123.001 139.836 122.675 139.667V139.513C123.08 139.107 122.926 138.296 122.431 137.939C121.937 137.582 121.166 137.566 120.501 137.598C120.596 136.78 120.295 135.966 119.689 135.408C119.573 135.283 119.414 135.206 119.243 135.193C118.837 135.193 118.724 135.712 118.695 136.098C118.618 137.11 118.451 138.113 118.196 139.095L105.589 160.189C105.476 160.352 105.4 160.463 105.356 160.529C105.131 160.779 104.899 161.023 104.66 161.26C103.817 162.012 102.874 162.644 101.857 163.138C101.178 163.158 100.51 162.968 99.9425 162.594C99.2303 162.095 98.6076 161.479 98.1009 160.773C97.0019 159.376 96.0081 157.899 95.1275 156.355C94.8222 155.867 94.5925 155.335 94.446 154.777C94.3691 154.416 94.3556 154.043 94.3422 153.671C94.323 153.14 94.3039 152.613 94.1012 152.129C93.9545 151.822 93.772 151.533 93.5577 151.269L92.6855 150.113V150.06C92.5882 148.348 91.1968 147.026 89.8988 145.898C88.7954 144.932 87.5988 143.926 86.1425 143.74C85.7499 143.689 85.3522 143.702 84.9545 143.714H84.9545C84.5632 143.727 84.172 143.739 83.7857 143.691C83.4411 143.647 83.106 143.557 82.7707 143.467L82.7706 143.467L82.7706 143.467L82.7705 143.467C82.4863 143.39 82.202 143.314 81.9116 143.265C81.3026 143.182 80.6859 143.17 80.0741 143.229L79.8145 142.989C81.1608 142.421 82.3044 141.459 83.0961 140.231C83.424 139.702 83.6708 139.127 83.9178 138.553C84.1231 138.075 84.3286 137.597 84.5808 137.144C84.9624 136.458 85.4484 135.84 85.9342 135.221C86.3107 134.742 86.687 134.263 87.0146 133.753C88.8279 130.982 89.1605 127.417 88.4263 124.188C87.6921 120.959 85.9721 118.026 83.9642 115.41C80.07 110.372 73.5392 108.514 67.3896 109.487C66.9839 109.552 66.5783 109.629 66.1727 109.719C65.1381 109.936 64.1283 110.258 63.1587 110.68C61.8469 111.217 60.7085 112.105 59.869 113.248C59.6426 113.581 59.451 113.938 59.297 114.31C59.1837 114.595 59.0915 114.888 59.0212 115.187C58.8326 116.088 58.7819 117.012 58.8711 117.929C58.8954 118.241 58.9279 118.553 58.9644 118.866L59.0252 119.336C59.0658 119.649 59.1104 119.961 59.155 120.273L59.155 120.273C59.2199 120.744 59.2808 121.214 59.3254 121.677C59.3611 122.004 59.3788 122.333 59.3781 122.663V122.91C59.3638 123.155 59.3271 123.398 59.2686 123.636C59.2366 123.767 59.196 123.896 59.1469 124.022C59.0008 124.394 58.8086 124.747 58.575 125.072C58.259 125.513 57.9162 125.935 57.5487 126.334L57.1958 126.739C57.1369 126.806 57.0791 126.874 57.0213 126.942C56.9635 127.01 56.9057 127.078 56.8469 127.145C56.3831 127.686 55.9588 128.259 55.5772 128.861C55.3911 129.164 55.2244 129.478 55.0783 129.802C54.9673 130.047 54.8711 130.299 54.7903 130.556C54.6871 130.901 54.6138 131.254 54.5713 131.611C54.5713 131.7 54.5713 131.79 54.5469 131.879V132.41C54.5558 132.587 54.5748 132.763 54.6037 132.938C54.6322 133.111 54.6729 133.281 54.7254 133.449C54.7762 133.618 54.84 133.784 54.916 133.944C54.916 133.975 54.9367 134.007 54.9574 134.039C54.9657 134.052 54.974 134.065 54.981 134.077L55.0459 134.211L55.0795 134.278L55.0795 134.278L55.0795 134.278L55.0795 134.278C55.1127 134.344 55.1453 134.408 55.1757 134.475C55.2369 134.604 55.2819 134.74 55.3095 134.881V135.023V135.177C55.245 135.584 55.0309 135.953 54.7092 136.211C54.6335 136.283 54.5578 136.348 54.4788 136.416L54.4787 136.416L54.4617 136.43L54.3319 136.536L54.0683 136.743L53.8168 136.945C53.5958 137.13 53.3909 137.334 53.2042 137.554C50.9201 137.432 48.6307 137.656 46.4138 138.219C45.6261 138.476 44.8074 138.624 43.9799 138.661C43.5767 138.698 43.1813 138.533 42.9252 138.219C42.7847 137.915 42.7463 137.573 42.8157 137.246C42.9251 135.887 42.7023 134.523 42.1667 133.27C42.0372 132.904 41.8133 132.578 41.5176 132.325C41.2085 132.074 40.7724 132.051 40.4386 132.268C41.1247 134.488 41.0259 136.875 40.1587 139.03C39.7134 140.046 39.1913 141.027 38.597 141.963C38.0685 142.865 37.6725 143.841 37.2764 144.817C36.9794 145.548 36.6824 146.28 36.3295 146.981C36.895 148.897 37.0352 150.893 37.1757 152.893C37.2639 154.15 37.3523 155.409 37.5464 156.652C37.9966 159.649 39.0432 162.521 40.0938 165.365L40.0998 165.38C40.9092 167.522 41.7531 169.753 43.4688 171.259C44.0231 171.818 44.7708 172.143 45.5578 172.167C46.1404 172.095 46.697 171.884 47.1804 171.551C47.6821 171.277 48.1447 170.938 48.5556 170.541C48.7076 170.374 48.8434 170.194 48.9612 170.001C49.0116 170.273 49.115 170.532 49.2654 170.764C50.2552 168.63 51.3423 166.545 52.5106 164.505C52.8586 164.319 53.1851 164.096 53.4841 163.84C53.4841 163.89 53.5016 163.941 53.5191 163.991C53.5269 164.014 53.5347 164.036 53.5409 164.059C53.5187 164.14 53.4973 164.225 53.4759 164.31C53.4465 164.426 53.4173 164.541 53.3868 164.647C53.3372 164.818 53.2804 165.001 53.2265 165.174L53.2265 165.174L53.2164 165.207C53.1596 165.389 53.1312 165.478 53.0866 165.612C53.042 165.746 52.9771 165.937 52.9162 166.099C52.8988 166.145 52.8807 166.194 52.8622 166.244C52.8159 166.369 52.7667 166.502 52.7175 166.626C52.6894 166.697 52.6688 166.752 52.6506 166.8C52.624 166.871 52.6027 166.927 52.5714 166.999C52.4457 167.308 52.3159 167.608 52.1658 167.908C52.2788 167.963 52.3953 168.011 52.5146 168.05L52.5917 168.074C52.6969 168.108 52.8039 168.135 52.9122 168.156H53.0298C53.1091 168.168 53.189 168.176 53.2691 168.18H53.3584H53.622C53.9123 168.167 54.1999 168.118 54.478 168.034L54.6362 168.683C55.0408 170.141 55.3017 171.636 55.415 173.145C55.4438 173.782 55.4204 174.424 55.397 175.065C55.3579 176.137 55.3189 177.208 55.5245 178.256C55.5983 178.643 55.7057 179.023 55.8129 179.402C55.9473 179.878 56.0815 180.353 56.1492 180.84C56.2277 181.665 56.2127 182.497 56.1046 183.319C55.9153 185.309 55.726 187.301 55.5367 189.294C55.5193 190.025 55.345 190.745 55.0256 191.403C54.9809 191.481 54.9317 191.56 54.8818 191.641C54.6194 192.065 54.3367 192.523 54.5753 192.928C55.0428 192.804 55.5186 192.713 55.9991 192.656C55.8247 193.289 55.6665 193.926 55.5164 194.567C55.37 195.043 55.3312 195.546 55.4028 196.04C55.4464 196.238 55.5275 196.429 55.6083 196.619C55.7156 196.871 55.8224 197.122 55.8409 197.39C55.8934 197.915 55.6461 198.396 55.3989 198.877C55.3022 199.065 55.2056 199.252 55.127 199.443C54.4131 201.171 55.1716 203.118 55.9383 204.83L58.1774 209.908L60.015 214.074C60.5586 215.291 61.1062 216.549 61.6376 217.798C64.0323 223.487 65.9878 229.351 67.4869 235.338C67.537 235.61 67.6404 235.869 67.7912 236.101C68.0063 236.384 68.3459 236.533 68.6873 236.682C68.8351 236.747 68.9832 236.812 69.1217 236.888C70.4968 237.646 70.655 239.91 69.3975 240.851C69.5798 243.027 68.47 245.151 67.3917 247.215C66.9584 248.045 66.5302 248.864 66.1929 249.674C64.3153 254.171 63.9744 259.07 63.633 263.975C63.4818 266.149 63.3304 268.325 63.0451 270.467L64.0958 269.854C64.2203 269.911 64.3353 269.986 64.4365 270.078C64.4122 270.207 64.3838 270.343 64.3513 270.483C64.2092 271.076 63.9824 271.646 63.678 272.175C63.4998 272.48 63.2943 272.776 63.0888 273.072C62.5877 273.793 62.0871 274.514 61.9864 275.371C61.9374 275.791 61.9904 276.211 62.0435 276.632C62.0827 276.943 62.122 277.254 62.1203 277.566V277.769C62.027 277.679 61.885 277.687 61.6741 277.854C61.3439 278.201 61.1152 278.631 61.0129 279.099C60.8303 279.622 60.6843 280.154 60.5383 280.685L59.9947 282.559C59.7171 283.689 59.3495 284.794 58.8954 285.865C58.5071 286.582 58.1813 287.331 57.9219 288.104C57.7773 288.734 57.7213 289.382 57.7556 290.027C57.7449 290.646 57.8339 291.262 58.0192 291.853C58.5115 293.028 59.4759 293.943 60.6762 294.372C61.8644 294.789 63.1089 295.024 64.3675 295.069C64.6902 295.111 65.0174 295.101 65.337 295.041C65.6794 294.942 65.9982 294.775 66.2741 294.55C67.9859 293.293 68.8702 290.98 69.0243 288.871C68.981 288.436 68.9037 288.004 68.7931 287.581C68.8421 286.51 68.7958 285.437 68.7496 284.364C68.6962 283.124 68.6428 281.886 68.7363 280.653C68.7728 280.916 68.8093 281.176 68.8499 281.436L69.2556 284.02C69.2318 283.928 69.1842 283.844 69.1176 283.776C68.8174 284.733 68.7644 285.75 68.9635 286.733C69.1657 287.712 69.4507 288.671 69.8153 289.601L70.367 291.143C70.5 291.608 70.7233 292.042 71.0242 292.42C71.5069 292.952 72.2411 293.151 72.9469 293.321C74.4641 293.764 76.026 294.036 77.6037 294.132C77.8147 294.157 78.0281 294.117 78.2162 294.019C78.3128 293.947 78.4049 293.87 78.4921 293.787C78.6322 293.687 78.7816 293.6 78.9383 293.528C79.6161 293.171 80.1283 292.564 80.3661 291.836C80.597 291.104 80.5009 290.307 80.1025 289.65C79.918 289.376 79.7075 289.121 79.4737 288.887L76.6991 285.946C76.2749 285.443 75.8226 284.963 75.3443 284.51C75.2284 284.392 75.0617 284.337 74.8981 284.364C74.1436 282.482 74.2409 280.284 74.3707 278.219C74.3914 277.905 74.489 277.419 74.5974 276.879L74.5974 276.879C74.7018 276.359 74.8162 275.789 74.8818 275.274C75.417 275.093 75.9156 274.818 76.3543 274.463C76.7772 274.154 77.0774 273.706 77.2021 273.197C78.4201 266.977 80.2833 260.922 82.1473 254.865L82.1491 254.859L82.1495 254.858L82.1499 254.856C82.4268 253.957 82.7037 253.057 82.9785 252.156C83.0729 251.849 83.1642 251.541 83.2554 251.233L83.2555 251.233C83.368 250.854 83.4805 250.474 83.5991 250.096C83.6612 249.892 83.7193 249.687 83.7776 249.482C83.8032 249.392 83.8287 249.301 83.8547 249.211C83.8997 249.055 83.9368 248.93 83.972 248.812L83.9723 248.811L83.9728 248.809C84.0038 248.705 84.0334 248.605 84.0656 248.493C84.1792 248.088 84.2928 247.682 84.4023 247.276C84.4185 247.222 84.4337 247.167 84.4489 247.112C84.4641 247.057 84.4794 247.003 84.4956 246.948C84.4948 246.938 84.4943 246.929 84.4942 246.919C84.4942 246.914 84.4942 246.908 84.4944 246.902C84.4947 246.895 84.4951 246.889 84.4956 246.883L84.5365 246.73L84.5954 246.509L84.5956 246.508C84.6952 246.134 84.7948 245.76 84.9012 245.386C84.9255 245.289 84.9508 245.194 84.9761 245.099L84.9763 245.098L84.9765 245.097C85.0018 245.002 85.0271 244.907 85.0513 244.81C85.2095 244.177 85.3677 243.536 85.5178 242.899C85.5425 242.812 85.5615 242.722 85.5746 242.632C85.6294 242.407 85.6138 242.17 85.53 241.954C85.4896 241.871 85.4362 241.794 85.3718 241.727C85.3272 241.674 85.2785 241.622 85.2298 241.573C85.1811 241.524 85.1243 241.459 85.0757 241.399C84.9476 241.241 84.8512 241.061 84.7917 240.867V240.283C84.7917 240.166 84.7813 240.029 84.7707 239.889L84.7707 239.889L84.7629 239.784C84.7601 239.744 84.7574 239.705 84.7552 239.666C84.7986 239.392 84.8596 239.121 84.9377 238.855C84.9552 238.798 84.9733 238.741 84.9915 238.685L85.0125 238.619L85.0128 238.618C85.0381 238.539 85.0635 238.46 85.0878 238.381L85.1187 238.279L85.1188 238.279C85.1646 238.128 85.2222 237.939 85.2744 237.792C85.5171 237.516 85.6486 237.159 85.6436 236.79C85.8951 236.163 86.1723 235.548 86.4751 234.945C86.8487 234.334 87.1008 233.656 87.2175 232.949C87.2157 232.31 87.1367 231.674 86.9822 231.055C86.6383 228.819 87.4605 226.634 88.2651 224.495L88.2653 224.495C88.4097 224.111 88.5535 223.728 88.6899 223.347C89.355 221.501 89.8599 219.601 90.1989 217.668C90.2319 217.484 90.2635 217.298 90.2953 217.111L90.2953 217.111L90.2954 217.11C90.5178 215.804 90.744 214.474 91.4362 213.352C91.6972 212.992 91.9201 212.606 92.1014 212.2C92.2242 211.776 92.2843 211.336 92.2799 210.894C92.3797 209.103 92.8131 207.346 93.5577 205.714C93.7227 205.398 93.835 205.057 93.8903 204.704C93.8925 204.681 93.8925 204.658 93.8903 204.635V204.538L94.0972 204.505C94.4501 202.27 94.8071 199.78 94.5637 197.528C94.2471 194.92 92.9771 192.522 90.9981 190.795H91.0386C91.7363 190.442 92.0487 189.578 92.0608 188.815C92.0642 187.645 91.536 186.536 90.6249 185.801C90.4237 185.676 90.2565 185.503 90.1381 185.298C90.0708 185.087 90.0501 184.865 90.0772 184.645C90.084 183.29 89.2714 182.066 88.0206 181.546C87.8937 181.511 87.7778 181.444 87.6839 181.351C87.5798 181.172 87.5478 180.96 87.5947 180.759C87.6714 179.417 86.9983 178.142 85.8464 177.449C86.0086 176.581 86.1709 175.672 85.9235 174.82C85.676 173.968 84.8769 173.198 84.0007 173.319C84.4096 172.204 84.2516 171.017 84.0923 169.82C83.9735 168.927 83.8539 168.028 83.9683 167.15C84.0193 166.766 84.1148 166.388 84.2101 166.012C84.3343 165.521 84.4582 165.032 84.4834 164.529C84.4951 164.295 84.4869 164.057 84.4788 163.819V163.819V163.819V163.819C84.4586 163.231 84.4386 162.646 84.7187 162.144C84.8486 161.911 85.0368 161.695 85.2221 161.482C85.5981 161.05 85.9621 160.632 85.8018 160.116C85.7465 159.937 85.6308 159.787 85.5141 159.637C85.4168 159.512 85.3187 159.385 85.2541 159.24C85.1122 158.919 85.6801 158.428 85.9721 158.607C86.1101 158.501 86.248 158.392 86.3778 158.278C86.4201 158.691 86.5016 159.098 86.6212 159.495C86.7247 159.842 86.8568 160.177 86.9889 160.512L86.9889 160.512L86.9889 160.512L86.9889 160.512C87.1104 160.821 87.2319 161.129 87.331 161.446C87.4413 161.798 87.524 162.161 87.6066 162.523C87.7609 163.199 87.9149 163.874 88.2478 164.476C88.7425 165.379 89.5737 166.005 90.41 166.634C90.9452 167.036 91.4824 167.441 91.9351 167.92C92.253 168.255 92.5294 168.631 92.805 169.005L92.8051 169.005L92.8051 169.005C93.1204 169.434 93.4348 169.861 93.8092 170.224C94.3422 170.722 94.9269 171.161 95.5534 171.535L99.3016 173.968C99.6904 174.251 100.124 174.466 100.583 174.605C101.173 174.718 101.783 174.583 102.27 174.232C102.757 173.882 103.079 173.346 103.159 172.752C102.815 172.63 102.5 172.434 102.238 172.18C102.291 172.18 102.344 172.18 102.397 172.155C103.287 171.922 104.111 171.485 104.802 170.877C107.471 168.752 109.39 165.852 111.264 163C113.227 160.01 122.675 152.1 122.675 152.1V148.896C123.877 148.199 124.943 147.29 125.823 146.214C126.297 145.64 126.574 144.929 126.614 144.186C126.651 143.407 126.183 142.691 125.453 142.413ZM107.143 158.181C106.639 158.97 106.075 159.719 105.455 160.419C105.632 160.182 105.945 159.753 106.27 159.308C107.039 158.256 107.875 157.112 107.143 158.181ZM46.8802 150.1C46.6991 151.266 46.476 152.423 46.2109 153.573C45.919 154.902 45.5451 156.212 45.0914 157.495L44.9453 157.901C44.8291 157.683 44.7129 157.467 44.5941 157.247L44.5941 157.247L44.5929 157.245L44.5924 157.244L44.5397 157.146C44.2826 156.608 44.0661 156.053 43.8486 155.495L43.8484 155.494C43.8085 155.392 43.7686 155.29 43.7284 155.187L42.1626 150.968C41.9598 150.421 41.757 149.788 42.0612 149.285C42.2842 148.977 42.5953 148.743 42.9536 148.616C44.0545 148.111 45.2045 147.721 46.3854 147.452C46.7587 147.377 47.1272 147.279 47.4887 147.159C47.1976 148.119 46.994 149.104 46.8802 150.1ZM48.6123 144.214C48.5062 144.405 48.5062 144.637 48.6123 144.827V144.839C48.6461 144.777 48.6799 144.715 48.7138 144.653L48.7138 144.653L48.7138 144.653C48.8591 144.387 49.004 144.122 49.1356 143.849L49.018 143.931C48.8669 144 48.7296 144.096 48.6123 144.214ZM51.8575 140.239L51.8564 140.24L51.8744 140.171C51.9073 140.043 51.9404 139.915 51.9873 139.785L50.1173 140.061C49.6654 140.086 49.229 140.235 48.8557 140.491C48.4794 140.773 48.4031 141.307 48.6854 141.683C48.8115 141.788 48.9473 141.88 49.091 141.959C49.4614 142.245 49.6348 142.718 49.5372 143.176C49.853 142.599 50.211 142.046 50.6081 141.521C50.9779 141.051 51.3963 140.622 51.8564 140.24L51.8534 140.251L51.8575 140.239ZM69.2556 274.313C69.3613 274.864 69.3981 275.427 69.3651 275.988C69.42 275.829 69.4749 275.669 69.5298 275.51C69.6693 275.104 69.8083 274.7 69.9451 274.313H69.2556Z" fill="url(#paint11_linear)"/>
<path fill-rule="evenodd" clip-rule="evenodd" d="M67.4586 110.704C64.2134 111.228 60.6032 112.477 59.3457 115.519C58.4086 117.819 59.1347 120.407 59.3741 122.878C59.4648 123.53 59.4415 124.193 59.3051 124.837C59.0374 125.879 58.2991 126.723 57.5852 127.53C56.5934 128.555 55.7607 129.723 55.1148 130.995C54.5307 132.293 54.3441 133.834 54.9485 135.132C55.1541 135.466 55.2919 135.836 55.3541 136.223C55.3947 137.067 54.5104 137.602 53.8614 138.142C51.4275 140.17 51.5289 143.821 51.5086 146.997C51.4712 153.474 50.0335 159.865 47.294 165.734C49.3952 166.798 51.9337 166.466 53.691 164.898C53.3537 166.34 52.867 167.743 52.2388 169.084C54.2995 170.082 56.7861 168.444 57.8205 166.399C58.8548 164.355 58.9765 161.978 59.7108 159.807C60.445 157.637 61.739 155.751 62.3109 153.565C62.4935 152.843 62.6071 152.072 63.0492 151.471C63.4218 151.037 63.8597 150.663 64.3473 150.364C66.4869 148.82 68.0908 146.646 68.9351 144.146C71.4582 144.701 74.034 145.261 76.6058 145.026C79.1776 144.79 81.8062 143.626 83.1651 141.428C83.7654 140.458 84.0899 139.343 84.6457 138.345C85.3272 137.128 86.3291 136.122 87.0795 134.958C88.8887 132.187 89.2213 128.63 88.4871 125.401C87.7529 122.172 86.0533 119.251 84.025 116.635C80.139 111.589 73.6081 109.719 67.4586 110.704Z" fill="#303D5C"/>
<path fill-rule="evenodd" clip-rule="evenodd" d="M46.9776 151.277C46.7951 152.437 46.572 153.597 46.3123 154.745C46.018 156.072 45.6441 157.381 45.1928 158.663C44.9274 159.225 44.8061 159.844 44.8399 160.465C44.9199 160.844 45.0669 161.207 45.2739 161.535C46.7545 164.168 48.7584 166.711 48.9247 169.729C48.9653 170.48 48.9247 171.295 49.3303 171.916C50.4743 169.452 51.7372 167.051 53.119 164.712C54.5631 162.278 56.1695 159.787 56.5832 156.972C56.7483 155.651 56.7305 154.313 56.5305 152.997C56.3399 151.516 56.0072 149.999 55.1067 148.814C54.125 147.533 51.4559 145.598 49.6995 145.999C47.6591 146.466 47.2372 149.626 46.9776 151.277Z" fill="#4D7CFE"/>
<path fill-rule="evenodd" clip-rule="evenodd" d="M99.261 165.466C101.2 164.675 103.18 163.844 104.717 162.416C105.656 161.485 106.489 160.452 107.199 159.337L111.763 152.753C112.842 151.187 113.957 149.545 114.197 147.658C116.869 144.837 118.479 141.175 118.752 137.298C118.785 136.913 118.914 136.406 119.3 136.394C119.47 136.406 119.63 136.483 119.746 136.609C120.351 137.166 120.653 137.978 120.557 138.795C121.223 138.763 121.945 138.746 122.488 139.136C123.032 139.525 123.178 140.491 122.594 140.811C122.998 140.934 123.247 141.34 123.174 141.756C123.871 141.618 124.638 141.505 125.255 141.854C125.871 142.202 126.107 143.225 125.51 143.606C126.223 143.881 126.685 144.575 126.666 145.338C126.629 146.082 126.352 146.794 125.875 147.366C124.123 149.719 121.032 150.668 119 152.786C118.332 153.526 117.733 154.326 117.211 155.175L111.325 164.132C109.455 166.971 107.536 169.88 104.867 171.997C104.176 172.604 103.352 173.042 102.462 173.275C101.554 173.504 100.594 173.237 99.9344 172.573C99.3462 171.904 99.257 170.95 99.2002 170.054C99.1028 168.545 99.3624 166.987 99.261 165.466Z" fill="#EE8E9E"/>
<path fill-rule="evenodd" clip-rule="evenodd" d="M79.5508 289.861C79.7855 290.093 79.9961 290.349 80.1795 290.623C80.5778 291.279 80.6739 292.074 80.4432 292.806C80.2081 293.533 79.6968 294.139 79.0194 294.493C78.861 294.565 78.7102 294.652 78.5691 294.753C78.4829 294.838 78.3907 294.916 78.2933 294.988C78.1039 295.083 77.8916 295.122 77.6808 295.102C76.1049 295.002 74.5447 294.73 73.028 294.29C72.3303 294.116 71.5921 293.917 71.1053 293.39C70.8044 293.011 70.5811 292.577 70.4481 292.112L69.8965 290.575C69.5342 289.646 69.2507 288.688 69.0487 287.711C68.8474 286.73 68.9004 285.713 69.2028 284.758C69.3396 284.929 69.4115 285.143 69.4056 285.362C69.568 286.397 69.974 287.379 70.5901 288.226C70.7189 288.438 70.8743 288.633 71.0526 288.806C71.4558 289.116 71.9324 289.316 72.4358 289.386C73.4047 289.597 74.3901 289.723 75.3808 289.763C75.5179 289.782 75.6576 289.765 75.7864 289.715C75.9455 289.627 76.0657 289.482 76.1231 289.309C76.265 288.916 76.265 288.485 76.1231 288.092C75.8554 287.342 75.1212 286.851 74.7723 286.137C74.5086 285.61 74.8697 285.03 75.4051 285.476C75.8858 285.928 76.3395 286.407 76.764 286.912L79.5508 289.861Z" fill="#303D5C"/>
<path fill-rule="evenodd" clip-rule="evenodd" d="M74.4519 279.205C74.2937 281.683 74.1841 284.36 75.539 286.441C76.0298 287.188 76.6829 287.816 77.2386 288.518C77.5573 288.869 77.7685 289.304 77.8471 289.772C77.9242 290.68 77.0723 291.459 76.1758 291.629C75.2794 291.8 74.3626 291.516 73.4945 291.224C72.6731 291.019 71.8999 290.656 71.2189 290.153C70.0385 289.155 69.7261 287.492 69.4908 285.967L68.9392 282.421C68.5213 280.629 68.6978 278.75 69.4422 277.067L70.3508 274.406C70.4103 274.147 70.5527 273.915 70.7564 273.745C70.9678 273.628 71.2109 273.583 71.4501 273.615C72.3182 273.659 74.5127 273.976 74.9346 274.897C75.2915 275.696 74.5127 278.251 74.4519 279.205Z" fill="#EE8E9E"/>
<path opacity="0.05" fill-rule="evenodd" clip-rule="evenodd" d="M74.4519 279.205C74.2937 281.683 74.1841 284.36 75.539 286.441C76.0298 287.188 76.6829 287.816 77.2386 288.518C77.5573 288.869 77.7685 289.304 77.8471 289.772C77.9242 290.68 77.0723 291.459 76.1758 291.629C75.2794 291.8 74.3626 291.516 73.4945 291.224C72.6731 291.019 71.8999 290.656 71.2189 290.153C70.0385 289.155 69.7261 287.492 69.4908 285.967L68.9392 282.421C68.5213 280.629 68.6978 278.75 69.4422 277.067L70.3508 274.406C70.4103 274.147 70.5527 273.915 70.7564 273.745C70.9678 273.628 71.2109 273.583 71.4501 273.615C72.3182 273.659 74.5127 273.976 74.9346 274.897C75.2915 275.696 74.5127 278.251 74.4519 279.205Z" fill="black"/>
<path fill-rule="evenodd" clip-rule="evenodd" d="M93.9511 205.738C93.9529 205.761 93.9529 205.784 93.9511 205.807C93.8996 206.158 93.787 206.497 93.6185 206.809C92.8739 208.437 92.4392 210.19 92.3367 211.977C92.3411 212.419 92.281 212.859 92.1582 213.283C91.9762 213.688 91.7533 214.072 91.4929 214.431C90.7019 215.717 90.5194 217.271 90.2557 218.743C89.9158 220.668 89.411 222.56 88.7467 224.398C87.8421 226.905 86.6252 229.469 87.039 232.105C87.1935 232.725 87.2725 233.361 87.2742 234C87.1587 234.706 86.9065 235.382 86.5319 235.991C86.229 236.592 85.9586 237.207 85.7206 237.837C85.457 238.51 85.2217 239.2 85.0148 239.898C84.7714 240.746 84.6092 241.752 85.169 242.433C85.3429 242.6 85.4967 242.786 85.6273 242.989C85.7327 243.299 85.7327 243.636 85.6273 243.946C85.3055 245.298 84.9621 246.65 84.597 248.002C84.313 249.057 84.0129 250.104 83.7046 251.15C81.4249 258.805 78.8369 266.382 77.3116 274.223C77.0926 275.351 75.6444 276.158 74.5249 276.406C73.3812 276.65 72.1897 276.332 71.3203 275.55C71.2432 275.481 71.1702 275.404 71.1012 275.331C69.9249 274.065 69.7504 272.122 69.8397 270.37C70.2453 262.301 74.3018 254.915 76.2326 247.074C76.931 244.238 77.3521 241.342 77.4901 238.425C77.9404 228.69 78.1229 218.395 75.3686 209.036C74.7966 207.089 74.1192 204.891 75.1496 203.146C75.7986 202.043 77.0033 201.39 78.1959 200.919C83.1093 199.005 88.5871 199.151 93.3914 201.325C93.3953 201.52 93.3872 201.715 93.367 201.909C93.2637 202.816 93.3692 203.735 93.6753 204.595C93.8328 204.957 93.9261 205.344 93.9511 205.738Z" fill="#303D5C"/>
<path fill-rule="evenodd" clip-rule="evenodd" d="M60.5991 281.699L60.0839 283.573C59.8096 284.701 59.4433 285.804 58.9887 286.871C58.6004 287.588 58.2746 288.337 58.0152 289.11C57.8706 289.74 57.8146 290.388 57.8489 291.033C57.8382 291.651 57.9272 292.266 58.1125 292.855C58.6036 294.029 59.5666 294.942 60.7654 295.369C61.9534 295.787 63.1982 296.021 64.4568 296.063C64.7791 296.108 65.1066 296.1 65.4263 296.039C65.7686 295.94 66.0874 295.773 66.3633 295.548C68.0751 294.295 68.9554 291.982 69.1095 289.869C69.0653 289.376 68.9687 288.889 68.8215 288.417C68.6877 288.238 67.3936 288.968 67.9494 289.581C68.7607 290.481 66.3714 290.015 65.1545 289.938C64.62 289.892 64.0897 289.805 63.5684 289.678L61.597 289.273C60.952 289.135 60.2097 288.912 59.9744 288.295C59.7392 287.678 60.2422 286.94 60.6316 286.34C61.6619 284.746 61.9296 282.795 62.169 280.912C62.2136 280.543 62.676 278.146 61.7227 278.884C61.3955 279.233 61.1673 279.663 61.0616 280.129C60.8871 280.637 60.7411 281.168 60.5991 281.699Z" fill="#303D5C"/>
<path opacity="0.05" fill-rule="evenodd" clip-rule="evenodd" d="M85.1487 242.437C84.5889 241.756 84.743 240.75 84.9986 239.902C85.0878 239.585 85.1892 239.273 85.2947 238.961L77.555 236.34C77.5266 237.038 77.4942 237.728 77.4617 238.417C77.3268 241.335 76.907 244.233 76.2083 247.069C74.2734 254.907 70.2129 262.293 69.8153 270.357C69.722 272.215 69.9208 274.292 71.2959 275.542C72.1637 276.324 73.3535 276.644 74.4965 276.402C75.6201 276.154 77.0642 275.343 77.2873 274.215C78.8206 266.374 81.3965 258.801 83.6802 251.138C84.3915 248.761 85.0324 246.365 85.603 243.95C85.7084 243.641 85.7084 243.306 85.603 242.997C85.476 242.792 85.3233 242.604 85.1487 242.437Z" fill="black"/>
<path fill-rule="evenodd" clip-rule="evenodd" d="M63.7631 273.197C63.1506 274.252 62.2176 275.185 62.0757 276.393C61.9905 277.12 62.2136 277.85 62.2095 278.584C62.1796 279.191 62.0719 279.793 61.8891 280.373C61.1346 283.096 60.2665 285.781 59.2848 288.429C59.1235 288.77 59.0522 289.147 59.078 289.524C59.1753 290.145 59.7797 290.554 60.3557 290.802C62.2014 291.589 64.2783 291.536 66.2822 291.455C66.865 291.479 67.4427 291.338 67.9494 291.049C68.6674 290.559 68.8459 289.589 68.8905 288.721C69.0284 286.206 68.6025 283.679 68.8905 281.18C68.9919 280.267 69.1825 279.371 69.3245 278.466C69.5233 277.209 69.6247 275.886 69.2109 274.682C68.8684 273.817 68.389 273.013 67.7912 272.301C67.2637 271.529 66.5964 270.863 65.8238 270.337C65.5885 270.199 64.9192 269.769 64.6799 270.037C64.5582 270.175 64.6109 270.544 64.5947 270.714C64.5632 270.976 64.5172 271.236 64.4568 271.493C64.3085 272.092 64.0749 272.665 63.7631 273.197Z" fill="#EE8E9E"/>
<path opacity="0.05" fill-rule="evenodd" clip-rule="evenodd" d="M78.634 208.878C78.273 209.369 78.346 210.05 78.4921 210.643C78.7476 211.714 79.1776 212.74 79.5265 213.782C80.0974 215.654 80.5419 217.562 80.857 219.494C81.1815 221.238 81.8711 223.181 81.5912 224.938C83.707 228.965 85.0979 233.332 85.7004 237.841C85.8586 238.997 83.2908 240.49 83.3395 241.654C83.4369 243.974 85.2866 244.161 83.9236 246.011C83.8547 246.104 84.4347 248.177 84.3577 248.266C83.8019 248.935 83.0961 249.483 82.4998 250.096C81.7307 250.967 81.0726 251.93 80.5406 252.963C77.0115 259.34 71.9085 266.569 73.4824 273.688C73.5481 274.213 73.2792 274.723 72.809 274.966C72.3431 275.19 71.8332 275.308 71.3162 275.31H71.0728C69.8965 274.045 69.722 272.102 69.8113 270.349C70.2169 262.281 74.2734 254.894 76.2042 247.053C76.9026 244.218 77.3237 241.322 77.4617 238.405C77.912 228.669 78.0945 218.374 75.3402 209.016C74.7683 207.069 74.0908 204.87 75.1212 203.126C75.7702 202.023 76.975 201.37 78.1676 200.899C83.081 198.984 88.5587 199.131 93.363 201.305C93.3669 201.5 93.3588 201.695 93.3386 201.889C93.2354 202.796 93.3408 203.714 93.6469 204.574C93.817 204.942 93.92 205.338 93.9511 205.742C93.9511 205.742 94.0891 204.173 94.085 204.197C90.9413 204.647 87.6231 206.704 84.451 207.17C82.8064 207.346 81.1862 207.702 79.6198 208.233C79.2381 208.353 78.897 208.577 78.634 208.878Z" fill="black"/>
<path fill-rule="evenodd" clip-rule="evenodd" d="M56.7333 191.606C56.3088 192.958 55.9342 194.324 55.6097 195.703C55.4653 196.18 55.4265 196.682 55.4961 197.175C55.5975 197.638 55.9018 198.052 55.9342 198.522C56.0072 199.252 55.5002 199.897 55.2203 200.575C54.5064 202.299 55.269 204.246 56.0316 205.953L58.2707 211.024L60.1123 215.186C60.66 216.423 61.2035 217.66 61.7349 218.906C64.1283 224.588 66.0825 230.445 67.5802 236.425C67.6307 236.696 67.7326 236.955 67.8804 237.188C68.1928 237.594 68.7566 237.723 69.2109 237.975C70.5901 238.729 70.7483 240.993 69.4868 241.934C69.7464 244.98 67.4586 247.921 66.2862 250.745C63.5765 257.235 64.0674 264.537 63.1384 271.514L64.1891 270.897C65.1991 271.359 65.1626 272.791 65.7062 273.761C66.5175 275.217 68.5132 275.42 70.1683 275.31C70.684 275.308 71.1927 275.19 71.657 274.966C72.128 274.724 72.3973 274.213 72.3303 273.688C70.7605 266.569 75.8594 259.34 79.3926 252.963C79.9233 251.93 80.58 250.967 81.3478 250.096C81.9482 249.463 82.6499 248.931 83.2097 248.266C84.7674 246.396 84.9661 243.759 84.8607 241.326C84.6133 235.602 83.1034 230.005 80.4392 224.934C80.7231 223.181 80.0335 221.238 79.709 219.494C79.3927 217.563 78.9441 215.656 78.3663 213.786C78.0175 212.736 77.5915 211.714 77.3319 210.643C77.1899 210.05 77.1129 209.369 77.4739 208.878C77.7406 208.575 78.086 208.352 78.4718 208.233C80.0382 207.702 81.6584 207.346 83.303 207.17L94.1864 205.609C94.5353 203.374 94.8922 200.883 94.6489 198.636C94.1142 194.379 91.0935 190.851 86.97 189.667C86.4954 189.541 85.9397 189.46 85.5503 189.76C75.9465 187.875 66.0181 188.511 56.7333 191.606Z" fill="#303D5C"/>
<path fill-rule="evenodd" clip-rule="evenodd" d="M66.6026 132.824C66.7613 133.887 66.5959 134.972 66.128 135.939C65.812 136.468 65.3991 136.931 64.9111 137.306C63.8588 138.152 62.6353 138.76 61.3252 139.087C60.5545 139.282 59.7026 139.412 59.1794 140.024C58.4168 140.945 58.9279 142.34 59.585 143.346C60.7127 145.099 62.2785 146.685 64.2864 147.232C65.909 147.671 67.6005 147.403 69.2393 147.687C70.4279 147.894 71.5474 148.384 72.7198 148.664C76.1089 149.44 79.6603 148.449 82.1591 146.032C80.4148 144.693 78.6056 143.269 77.697 141.265C77.0575 139.831 76.937 138.219 77.3563 136.706C77.7619 135.221 78.7152 133.777 78.4231 132.244C78.131 130.711 76.6383 129.684 75.178 129.173C73.8372 128.766 72.4594 128.493 71.0647 128.358C70.2981 128.252 65.4303 127.177 65.1261 127.709C64.9557 128.009 65.9658 129.786 66.0915 130.179C66.3881 131.032 66.5602 131.922 66.6026 132.824Z" fill="#EE8E9E"/>
<circle cx="72.74" cy="126.504" r="9.87337" fill="#EE8E9E"/>
<path fill-rule="evenodd" clip-rule="evenodd" d="M67.5235 142.823L74.2206 143.951C75.8668 144.286 77.5424 144.454 79.2222 144.454C80.1394 144.363 81.0634 144.363 81.9806 144.454C82.6134 144.559 83.2178 144.799 83.8506 144.88C84.6335 144.977 85.4286 144.827 86.2115 144.928C87.6637 145.115 88.8603 146.121 89.9637 147.082C91.2577 148.21 92.649 149.516 92.7504 151.24C92.7686 151.436 92.7409 151.633 92.6693 151.816C92.5422 152.023 92.372 152.2 92.1704 152.335C90.9534 153.345 90.2517 154.85 89.3755 156.181C88.4734 157.554 87.3493 158.767 86.0492 159.771C85.7571 159.584 85.2014 160.075 85.3272 160.4C85.4529 160.724 85.7734 160.947 85.8788 161.276C86.1182 162.034 85.1811 162.594 84.7917 163.304C84.4023 164.014 84.6011 164.878 84.5605 165.685C84.5118 166.574 84.1549 167.421 84.0453 168.302C83.7735 170.358 84.7917 172.524 84.0737 174.467C84.954 174.358 85.749 175.116 85.9965 175.964C86.2439 176.812 86.0857 177.725 85.9194 178.593C87.0716 179.282 87.7464 180.554 87.6718 181.895C87.6019 182.052 87.6072 182.232 87.686 182.385C87.7649 182.538 87.9088 182.647 88.0774 182.682C89.3261 183.202 90.138 184.424 90.134 185.777C90.1069 185.998 90.1277 186.222 90.1949 186.434C90.3131 186.637 90.4787 186.808 90.6776 186.933C91.589 187.666 92.1175 188.773 92.1136 189.943C92.1136 190.726 91.7891 191.565 91.0954 191.918C89.6757 192.64 88.1545 192.92 86.5968 193.257C85.1615 193.596 83.7084 193.855 82.2443 194.032C80.8951 194.142 79.5412 194.184 78.1878 194.157L69.2312 194.121C66.7122 194.121 64.1931 194.121 61.6822 193.93C59.3376 193.772 56.9402 193.48 54.6686 194.096C54.3847 193.614 54.839 193.058 55.1189 192.575C55.4397 191.917 55.6141 191.198 55.63 190.466L56.1979 184.499C56.306 183.678 56.3209 182.848 56.2425 182.025C56.1208 181.144 55.7882 180.313 55.6178 179.441C55.2933 177.769 55.5894 176.041 55.5123 174.338C55.3965 172.828 55.1343 171.334 54.7295 169.875L52.9527 162.574C52.6688 161.402 52.5187 160.039 52.0806 158.923C50.7149 155.408 49.283 151.93 47.7848 148.49C47.6751 148.185 47.7048 147.847 47.866 147.565L49.3466 144.912C49.7427 144.158 50.1956 143.435 50.7014 142.75C51.9519 141.169 53.7227 140.082 55.6989 139.683C57.6779 139.296 59.7297 139.6 61.5118 140.543C62.2014 140.913 62.8423 141.355 63.54 141.72C64.7367 142.288 66.197 142.912 67.5235 142.823Z" fill="#4D7CFE"/>
<path fill-rule="evenodd" clip-rule="evenodd" d="M91.2861 149.326L93.6185 152.437C93.8329 152.701 94.0153 152.99 94.1621 153.297C94.5109 154.108 94.3203 155.065 94.5069 155.938C94.6522 156.496 94.8835 157.028 95.1924 157.516C96.0693 159.057 97.0605 160.531 98.1577 161.925C98.6646 162.633 99.2888 163.249 100.003 163.746C100.728 164.247 101.633 164.408 102.486 164.188C102.133 164.326 101.844 164.589 101.675 164.927C100.786 166.687 100.721 168.772 101.099 170.703C101.205 171.366 101.424 172.005 101.748 172.593C102.072 173.187 102.599 173.643 103.232 173.879C103.152 174.474 102.83 175.009 102.343 175.359C101.855 175.709 101.245 175.843 100.656 175.729C100.197 175.591 99.765 175.376 99.3787 175.092L95.6305 172.658C95.0049 172.284 94.4203 171.844 93.8862 171.348C93.1845 170.65 92.6977 169.766 92.0162 169.048C90.8561 167.831 89.1524 167.085 88.333 165.608C87.8178 164.683 87.7286 163.58 87.4122 162.582C87.2053 161.921 86.9011 161.296 86.7023 160.631C86.0857 158.578 86.5319 156.327 87.469 154.4C88.406 152.473 89.8988 150.964 91.2861 149.326Z" fill="#4D7CFE"/>
<path fill-rule="evenodd" clip-rule="evenodd" d="M82.4958 120.874C81.582 119.456 80.403 118.229 79.0235 117.259C77.1778 115.884 75.0563 114.74 72.7563 114.611C71.7946 114.562 70.8336 114.718 69.937 115.069C69.8924 112.282 69.2028 110.424 67.4586 110.704C64.2134 111.228 60.6032 112.477 59.3457 115.519C58.4086 117.819 59.1347 120.407 59.3741 122.878C59.4648 123.53 59.4415 124.193 59.3051 124.837C59.0374 125.879 58.2991 126.723 57.5852 127.53C56.5934 128.555 55.7607 129.723 55.1148 130.995C54.5307 132.293 54.3441 133.834 54.9485 135.132C55.1541 135.466 55.2919 135.836 55.3541 136.223C55.3947 137.067 54.5104 137.602 53.8614 138.142C51.4275 140.17 51.5289 143.821 51.5086 146.997C51.4712 153.474 50.0335 159.865 47.294 165.734C49.3952 166.798 51.9337 166.466 53.691 164.898C53.3537 166.34 52.867 167.743 52.2388 169.084C54.2995 170.082 56.7861 168.444 57.8205 166.399C58.8548 164.355 58.9765 161.978 59.7108 159.807C60.445 157.637 61.739 155.751 62.3109 153.565C62.4935 152.843 62.6071 152.072 63.0492 151.471C63.4218 151.037 63.8597 150.663 64.3473 150.364C66.4728 148.839 63.3413 137.282 64.1728 134.799C65.3898 135.071 67.6817 129.12 68.9757 123.036C69.8781 123.347 70.8407 123.443 71.7868 123.316C72.1157 123.244 72.4532 123.221 72.7887 123.247C73.1003 123.311 73.3973 123.432 73.6649 123.604C74.6224 124.191 75.6232 124.705 76.6586 125.141C78.8004 125.952 81.1531 125.835 83.4369 125.721C83.7463 124.044 83.4101 122.313 82.4958 120.874Z" fill="#303D5C"/>
<g opacity="0.1">
<path fill-rule="evenodd" clip-rule="evenodd" d="M48.4541 165.734C51.202 159.873 52.6468 153.486 52.6891 147.013C52.7093 143.849 52.6039 140.174 55.0418 138.158C55.6908 137.619 56.5751 137.083 56.5346 136.24C56.4708 135.853 56.333 135.483 56.1289 135.148C55.5245 133.858 55.7233 132.309 56.2912 131.011C56.9372 129.738 57.7714 128.57 58.7656 127.547C59.4755 126.735 60.2178 125.896 60.4815 124.853C60.6174 124.209 60.6421 123.546 60.5545 122.894C60.3111 120.423 59.5891 117.835 60.5261 115.535C61.743 112.59 65.1464 111.329 68.3104 110.777C68.0353 110.69 67.7429 110.67 67.4586 110.72C64.2134 111.244 60.6032 112.493 59.3457 115.535C58.4086 117.835 59.1347 120.423 59.3741 122.894C59.4648 123.546 59.4415 124.209 59.3051 124.853C59.0374 125.896 58.2991 126.739 57.5852 127.547C56.5934 128.571 55.7607 129.739 55.1148 131.011C54.5307 132.309 54.3441 133.85 54.9485 135.148C55.1541 135.482 55.2919 135.853 55.3541 136.24C55.3947 137.083 54.5104 137.619 53.8614 138.158C51.4275 140.186 51.5289 143.837 51.5086 147.013C51.4689 153.484 50.0312 159.87 47.294 165.734C48.2591 166.233 49.3494 166.437 50.4296 166.322C49.7393 166.256 49.0683 166.056 48.4541 165.734Z" fill="black"/>
<path fill-rule="evenodd" clip-rule="evenodd" d="M53.3989 169.068C54.0229 167.727 54.5056 166.324 54.839 164.882C54.4224 165.263 53.9489 165.576 53.4354 165.811C53.119 166.924 52.712 168.009 52.2185 169.056C52.8119 169.338 53.4798 169.424 54.125 169.299C53.8742 169.253 53.6303 169.176 53.3989 169.068Z" fill="black"/>
<path fill-rule="evenodd" clip-rule="evenodd" d="M71.0972 115.069C71.7005 114.834 72.3343 114.687 72.9794 114.631H72.7563C72.1974 114.602 71.6372 114.644 71.0891 114.757C71.0931 114.846 71.0972 114.955 71.0972 115.069Z" fill="black"/>
<path fill-rule="evenodd" clip-rule="evenodd" d="M77.8187 125.129C76.7846 124.693 75.7852 124.179 74.8291 123.592C74.5601 123.419 74.2617 123.298 73.9489 123.235C73.6422 123.207 73.333 123.226 73.0321 123.291C73.2519 123.371 73.4638 123.472 73.6649 123.592C74.6224 124.179 75.6232 124.693 76.6586 125.129C78.2708 125.661 79.9696 125.881 81.6642 125.778C80.3551 125.778 79.0554 125.558 77.8187 125.129Z" fill="black"/>
<path fill-rule="evenodd" clip-rule="evenodd" d="M70.1358 123.024C70.1358 123.113 70.0993 123.202 70.079 123.291C70.5651 123.364 71.0581 123.377 71.5474 123.332C71.0669 123.282 70.5934 123.179 70.1358 123.024Z" fill="black"/>
</g>
<path fill-rule="evenodd" clip-rule="evenodd" d="M49.5859 168.813C49.7001 169.87 49.3442 170.925 48.6123 171.697C48.2012 172.093 47.7387 172.433 47.2372 172.707C46.7534 173.038 46.1968 173.249 45.6146 173.319C44.8299 173.294 44.0843 172.971 43.5296 172.415C41.8097 170.906 40.9497 168.671 40.1547 166.525C39.1041 163.685 38.0575 160.817 37.6072 157.82C37.1245 154.607 37.3314 151.281 36.4106 148.161C37.2219 146.539 37.7492 144.73 38.6781 143.156C39.2676 142.218 39.7895 141.239 40.2399 140.227C41.1024 138.072 41.1998 135.687 40.5157 133.469C40.8495 133.251 41.2856 133.274 41.5947 133.526C41.8896 133.779 42.1133 134.105 42.2437 134.471C42.7794 135.722 43.0022 137.085 42.8928 138.442C42.8233 138.769 42.8618 139.109 43.0023 139.412C43.2575 139.727 43.653 139.894 44.057 139.858C44.884 139.817 45.7022 139.668 46.4908 139.416C48.9413 138.79 51.4794 138.581 53.9993 138.795C54.507 138.81 55.006 138.932 55.4637 139.152C55.9251 139.382 56.2172 139.853 56.2182 140.369L50.2146 141.249C49.7627 141.274 49.3264 141.423 48.9531 141.679C48.5793 141.961 48.5032 142.492 48.7827 142.868C48.9096 142.971 49.0453 143.064 49.1884 143.144C49.5006 143.38 49.68 143.752 49.6704 144.144C49.6607 144.535 49.4632 144.898 49.1397 145.119C48.9886 145.189 48.8512 145.285 48.734 145.403C48.4907 145.732 48.8152 146.166 48.9206 146.563C49.0138 147.164 48.7265 147.759 48.1986 148.06C47.6779 148.346 47.1107 148.536 46.5233 148.624C45.3444 148.896 44.1961 149.286 43.0956 149.788C42.7373 149.916 42.4262 150.149 42.2032 150.457C41.9071 150.96 42.1018 151.593 42.3046 152.141L43.8704 156.351C44.1138 157.013 44.3612 157.674 44.6817 158.311C45.0873 159.122 45.57 159.909 45.9797 160.744C46.3894 161.58 46.6571 162.306 46.9573 163.101C47.7402 165.247 49.3182 166.545 49.5859 168.813Z" fill="#EE8E9E"/>
<rect x="103.76" y="141.497" width="18.7123" height="18.116" fill="url(#paint12_linear)"/>
<rect x="104.084" y="141.809" width="18.0674" height="17.4914" fill="#4D7CFE"/>
<path fill-rule="evenodd" clip-rule="evenodd" d="M119.02 140.43C118.686 140.678 118.445 141.031 118.334 141.432C118.282 141.601 118.346 141.786 118.493 141.886C118.582 141.915 118.679 141.915 118.768 141.886C119.218 141.807 119.638 141.609 119.985 141.314C119.847 141.387 119.725 141.487 119.624 141.606C119.523 141.73 119.504 141.901 119.576 142.044C119.676 142.166 119.823 142.241 119.981 142.251C120.56 142.356 121.155 142.329 121.722 142.17C121.458 142.268 121.213 142.413 120.999 142.596C120.784 142.785 120.664 143.06 120.671 143.346C120.672 143.454 120.719 143.556 120.801 143.626C120.86 143.664 120.926 143.687 120.995 143.695C121.532 143.79 122.081 143.79 122.618 143.695C122.899 143.684 123.156 143.531 123.299 143.29C123.355 143.018 123.298 142.735 123.141 142.507C122.854 141.888 122.715 141.21 122.736 140.527C122.753 140.389 122.734 140.249 122.679 140.122C122.589 139.998 122.463 139.905 122.318 139.858C121.746 139.606 120.967 139.257 120.33 139.452C119.833 139.689 119.388 140.021 119.02 140.43Z" fill="#EE8E9E"/>
<defs>
<linearGradient id="paint0_linear" x1="180.887" y1="134.057" x2="180.887" y2="115.941" gradientUnits="userSpaceOnUse">
<stop stop-color="#808080" stop-opacity="0.25"/>
<stop offset="0.54" stop-color="#808080" stop-opacity="0.12"/>
<stop offset="1" stop-color="#808080" stop-opacity="0.1"/>
</linearGradient>
<linearGradient id="paint1_linear" x1="219.439" y1="130.131" x2="219.439" y2="112.014" gradientUnits="userSpaceOnUse">
<stop stop-color="#808080" stop-opacity="0.25"/>
<stop offset="0.54" stop-color="#808080" stop-opacity="0.12"/>
<stop offset="1" stop-color="#808080" stop-opacity="0.1"/>
</linearGradient>
<linearGradient id="paint2_linear" x1="293.672" y1="191.788" x2="293.672" y2="173.672" gradientUnits="userSpaceOnUse">
<stop stop-color="#808080" stop-opacity="0.25"/>
<stop offset="0.54" stop-color="#808080" stop-opacity="0.12"/>
<stop offset="1" stop-color="#808080" stop-opacity="0.1"/>
</linearGradient>
<linearGradient id="paint3_linear" x1="128.871" y1="101.772" x2="128.871" y2="83.6559" gradientUnits="userSpaceOnUse">
<stop stop-color="#808080" stop-opacity="0.25"/>
<stop offset="0.54" stop-color="#808080" stop-opacity="0.12"/>
<stop offset="1" stop-color="#808080" stop-opacity="0.1"/>
</linearGradient>
<linearGradient id="paint4_linear" x1="166.052" y1="127.733" x2="166.052" y2="109.617" gradientUnits="userSpaceOnUse">
<stop stop-color="#808080" stop-opacity="0.25"/>
<stop offset="0.54" stop-color="#808080" stop-opacity="0.12"/>
<stop offset="1" stop-color="#808080" stop-opacity="0.1"/>
</linearGradient>
<linearGradient id="paint5_linear" x1="315.56" y1="191.659" x2="315.56" y2="173.543" gradientUnits="userSpaceOnUse">
<stop stop-color="#808080" stop-opacity="0.25"/>
<stop offset="0.54" stop-color="#808080" stop-opacity="0.12"/>
<stop offset="1" stop-color="#808080" stop-opacity="0.1"/>
</linearGradient>
<linearGradient id="paint6_linear" x1="348.418" y1="102.011" x2="348.418" y2="83.8952" gradientUnits="userSpaceOnUse">
<stop stop-color="#808080" stop-opacity="0.25"/>
<stop offset="0.54" stop-color="#808080" stop-opacity="0.12"/>
<stop offset="1" stop-color="#808080" stop-opacity="0.1"/>
</linearGradient>
<linearGradient id="paint7_linear" x1="346.389" y1="159.613" x2="346.389" y2="141.497" gradientUnits="userSpaceOnUse">
<stop stop-color="#808080" stop-opacity="0.25"/>
<stop offset="0.54" stop-color="#808080" stop-opacity="0.12"/>
<stop offset="1" stop-color="#808080" stop-opacity="0.1"/>
</linearGradient>
<linearGradient id="paint8_linear" x1="360.587" y1="163.669" x2="360.587" y2="145.553" gradientUnits="userSpaceOnUse">
<stop stop-color="#808080" stop-opacity="0.25"/>
<stop offset="0.54" stop-color="#808080" stop-opacity="0.12"/>
<stop offset="1" stop-color="#808080" stop-opacity="0.1"/>
</linearGradient>
<linearGradient id="paint9_linear" x1="300.726" y1="185.335" x2="300.726" y2="167.219" gradientUnits="userSpaceOnUse">
<stop stop-color="#808080" stop-opacity="0.25"/>
<stop offset="0.54" stop-color="#808080" stop-opacity="0.12"/>
<stop offset="1" stop-color="#808080" stop-opacity="0.1"/>
</linearGradient>
<linearGradient id="paint10_linear" x1="302.754" y1="130.573" x2="302.754" y2="112.457" gradientUnits="userSpaceOnUse">
<stop stop-color="#808080" stop-opacity="0.25"/>
<stop offset="0.54" stop-color="#808080" stop-opacity="0.12"/>
<stop offset="1" stop-color="#808080" stop-opacity="0.1"/>
</linearGradient>
<linearGradient id="paint11_linear" x1="36.2929" y1="295.124" x2="126.614" y2="295.124" gradientUnits="userSpaceOnUse">
<stop stop-color="#808080" stop-opacity="0.25"/>
<stop offset="0.54" stop-color="#808080" stop-opacity="0.12"/>
<stop offset="1" stop-color="#808080" stop-opacity="0.1"/>
</linearGradient>
<linearGradient id="paint12_linear" x1="122.474" y1="159.613" x2="122.474" y2="141.497" gradientUnits="userSpaceOnUse">
<stop stop-color="#808080" stop-opacity="0.25"/>
<stop offset="0.54" stop-color="#808080" stop-opacity="0.12"/>
<stop offset="1" stop-color="#808080" stop-opacity="0.1"/>
</linearGradient>
</defs>
</svg>
