<svg width="468" height="350" viewBox="0 0 468 350" fill="none" xmlns="http://www.w3.org/2000/svg">
<path opacity="0.1" fill-rule="evenodd" clip-rule="evenodd" d="M266.735 49.044C238.242 48.0578 211.105 38.8566 185.192 28.7924C159.279 18.7283 133.612 7.56351 105.801 2.24967C87.9138 -1.18429 67.4553 -1.66857 53.0459 7.92451C39.1824 17.1522 34.6918 33.0981 32.2836 47.8641C30.4698 58.9849 29.4044 70.6912 34.3704 81.1031C37.822 88.3321 43.9415 94.4075 48.1767 101.328C62.9119 125.423 52.4956 155.131 36.5321 178.654C29.0478 189.687 20.3528 200.226 14.5723 211.959C8.79183 223.692 6.1195 237.164 11.178 249.147C16.1881 261.034 28.1321 269.945 41.0711 276.218C67.3497 288.964 98.3038 292.609 128.509 294.678C195.353 299.248 262.548 297.271 329.568 295.286C354.372 294.555 379.281 293.811 403.68 289.976C417.231 287.845 431.218 284.464 441.057 276.302C453.543 265.943 456.638 248.403 448.269 235.411C434.233 213.623 395.438 208.213 385.616 184.831C380.219 171.958 385.762 157.623 393.611 145.688C410.447 120.079 438.662 97.6126 440.146 68.3446C441.167 48.2427 427.603 28.11 406.63 18.5962C384.648 8.62451 354.16 9.87923 337.95 26.3799C321.243 43.378 291.887 49.9201 266.735 49.044Z" fill="#4D7CFE"/>
<rect y="54.3623" width="114.25" height="114.25" fill="#E8E9ED"/>
<rect x="353.297" y="54.3623" width="114.25" height="114.25" fill="#E8E9ED"/>
<path opacity="0.5" fill-rule="evenodd" clip-rule="evenodd" d="M64.0082 14.1012L62.8679 12.9346C62.8221 12.8833 62.7562 12.8544 62.6874 12.8553C62.6184 12.8532 62.5521 12.8823 62.5069 12.9346L54.6264 20.8591L51.756 17.9931C51.7093 17.9429 51.644 17.9145 51.5755 17.9145C51.507 17.9145 51.4416 17.9429 51.395 17.9931L50.2459 19.1421C50.1953 19.1903 50.1667 19.2572 50.1667 19.327C50.1667 19.3969 50.1953 19.4637 50.2459 19.5119L53.8648 23.1264C54.0591 23.3416 54.3286 23.4739 54.6176 23.4962C54.9031 23.4713 55.1703 23.3447 55.3704 23.1396L64.0126 14.4711C64.1068 14.3658 64.1068 14.2065 64.0126 14.1012H64.0082Z" fill="#3ACC6C"/>
<path opacity="0.5" fill-rule="evenodd" clip-rule="evenodd" d="M44.7045 13.0398C46.7846 8.0167 51.6859 4.74146 57.1226 4.74146C60.6873 4.73912 64.1068 6.15385 66.6278 8.67406C69.1488 11.1943 70.5647 14.6132 70.5635 18.1779C70.5653 23.6147 67.2917 28.517 62.2693 30.5988C57.2469 32.6806 51.465 31.5317 47.6201 27.688C43.7751 23.8443 42.6243 18.0628 44.7045 13.0398ZM68.5105 15.9086C67.4322 10.4725 62.6646 6.55486 57.1226 6.55089C54.0369 6.54186 51.0758 7.76722 48.8987 9.95404C44.9801 13.8729 44.3749 20.0139 47.4531 24.6224C50.5313 29.2308 56.4359 31.0236 61.5567 28.9045C66.6776 26.7855 69.5888 21.3446 68.5105 15.9086Z" fill="#4D7CFE"/>
<path opacity="0.8" fill-rule="evenodd" clip-rule="evenodd" d="M152.248 51.6679L150.813 50.1975C150.755 50.1347 150.673 50.0994 150.588 50.1006C150.501 50.097 150.417 50.1325 150.359 50.1975L140.44 60.1912L136.826 56.5811C136.767 56.5192 136.686 56.4842 136.601 56.4842C136.515 56.484 136.432 56.519 136.372 56.5811L134.924 58.0295C134.86 58.0894 134.824 58.1731 134.824 58.2607C134.824 58.3482 134.86 58.4319 134.924 58.4918L139.476 63.0352C139.722 63.3054 140.063 63.4709 140.427 63.4975C140.783 63.4669 141.117 63.3109 141.369 63.0572L152.243 52.1214C152.348 51.9933 152.348 51.8092 152.243 51.6811L152.248 51.6679Z" fill="#3ACC6C"/>
<path opacity="0.8" fill-rule="evenodd" clip-rule="evenodd" d="M126.656 56.8013C126.656 47.4573 134.231 39.8824 143.575 39.8824C148.062 39.8813 152.366 41.6634 155.54 44.8366C158.713 48.0097 160.495 52.3138 160.494 56.8013C160.494 66.1453 152.919 73.7202 143.575 73.7202C134.231 73.7202 126.656 66.1453 126.656 56.8013ZM157.929 53.9433C156.568 47.0941 150.558 42.1601 143.575 42.1585C139.689 42.1455 135.959 43.6899 133.22 46.4466C128.283 51.3847 127.521 59.123 131.4 64.9294C135.28 70.7358 142.72 72.9933 149.172 70.3215C155.624 67.6496 159.29 60.7925 157.929 53.9433Z" fill="#4D7CFE"/>
<path opacity="0.5" fill-rule="evenodd" clip-rule="evenodd" d="M398.002 13.0398C400.082 8.0167 404.983 4.74146 410.42 4.74146C413.985 4.73912 417.404 6.15385 419.925 8.67406C422.446 11.1943 423.862 14.6132 423.861 18.1779C423.863 23.6147 420.589 28.517 415.567 30.5988C410.544 32.6806 404.763 31.5317 400.918 27.688C397.073 23.8443 395.922 18.0628 398.002 13.0398ZM421.808 15.9086C420.73 10.4725 415.962 6.55486 410.42 6.55089C407.334 6.54186 404.373 7.76722 402.196 9.95404C398.278 13.8729 397.672 20.0139 400.751 24.6224C403.829 29.2308 409.733 31.0236 414.854 28.9045C419.975 26.7855 422.886 21.3446 421.808 15.9086Z" fill="#4D7CFE"/>
<path opacity="0.8" fill-rule="evenodd" clip-rule="evenodd" d="M306.455 56.8012C306.455 47.4572 314.03 39.8823 323.374 39.8823H323.352C327.843 39.8753 332.153 41.6549 335.331 44.8287C338.508 48.0025 340.294 52.3099 340.292 56.8012C340.292 66.1452 332.718 73.7201 323.374 73.7201C314.03 73.7201 306.455 66.1452 306.455 56.8012ZM337.725 53.927C336.356 47.0828 330.347 42.1575 323.369 42.1584C319.485 42.1496 315.759 43.6934 313.019 46.4465C308.08 51.3861 307.319 59.1272 311.202 64.9339C315.085 70.7405 322.529 72.9946 328.981 70.3171C335.433 67.6397 339.094 60.7767 337.725 53.927Z" fill="#4D7CFE"/>
<path fill-rule="evenodd" clip-rule="evenodd" d="M210.669 88.3628C210.669 76.0087 220.684 65.9937 233.038 65.9937C238.971 65.9925 244.662 68.3489 248.857 72.5441C253.052 76.7394 255.409 82.4298 255.408 88.3628C255.408 100.717 245.393 110.732 233.038 110.732C220.684 110.732 210.669 100.717 210.669 88.3628ZM252 84.5852C250.205 75.534 242.266 69.0112 233.038 69.005C227.901 68.9884 222.97 71.0288 219.347 74.671C212.822 81.196 211.814 91.4211 216.939 99.0944C222.065 106.768 231.896 109.753 240.422 106.224C248.949 102.696 253.796 93.6364 252 84.5852Z" fill="#4D7CFE"/>
<rect x="79.9145" y="84.3082" width="127.321" height="127.321" fill="#F3F5F7"/>
<rect x="259.691" y="84.3082" width="127.321" height="127.321" fill="#F3F5F7"/>
<rect opacity="0.1" x="11.4157" y="74.6447" width="42.4667" height="4.7195" fill="black"/>
<rect opacity="0.1" x="373.857" y="74.6447" width="42.4667" height="4.7195" fill="black"/>
<path d="M308.7 272.256C308.7 272.256 319.733 252.713 336.348 247.082C343.331 244.765 349.375 240.245 353.57 234.201C355.539 231.311 357.239 228.247 358.651 225.048" stroke="#535461" stroke-width="2"/>
<path fill-rule="evenodd" clip-rule="evenodd" d="M369.098 221.451C367.205 223.287 358.387 225.189 358.387 225.189C358.387 225.189 360.553 216.432 362.446 214.592C364.34 212.755 367.365 212.801 369.202 214.695C371.039 216.589 370.992 219.614 369.098 221.451Z" fill="#4D7CFE"/>
<path fill-rule="evenodd" clip-rule="evenodd" d="M364.11 237.291C361.521 237.806 353.104 234.61 353.104 234.61C353.104 234.61 359.677 228.447 362.265 227.923C364.822 227.476 367.268 229.153 367.773 231.699C368.278 234.245 366.657 236.729 364.123 237.291H364.11Z" fill="#4D7CFE"/>
<path fill-rule="evenodd" clip-rule="evenodd" d="M345.95 254.439C343.458 253.558 337.792 246.558 337.792 246.558C337.792 246.558 346.597 244.547 349.075 245.409C350.688 245.968 351.881 247.344 352.204 249.02C352.527 250.696 351.931 252.417 350.641 253.535C349.351 254.653 347.563 254.997 345.95 254.439Z" fill="#4D7CFE"/>
<path fill-rule="evenodd" clip-rule="evenodd" d="M329.308 264.314C326.702 263.874 319.931 257.926 319.931 257.926C319.931 257.926 328.26 254.461 330.862 254.888C332.559 255.152 333.984 256.306 334.594 257.911C335.204 259.516 334.906 261.325 333.813 262.649C332.72 263.973 331 264.609 329.308 264.314Z" fill="#4D7CFE"/>
<path fill-rule="evenodd" clip-rule="evenodd" d="M345.738 227.769C345.738 230.41 350.511 238.057 350.511 238.057C350.511 238.057 355.283 230.41 355.283 227.773C355.283 225.135 353.144 222.996 350.506 222.996C347.868 222.996 345.73 225.135 345.73 227.773L345.738 227.769Z" fill="#4D7CFE"/>
<path fill-rule="evenodd" clip-rule="evenodd" d="M326.398 239.576C327.186 242.094 334.032 247.967 334.032 247.967C334.032 247.967 336.304 239.241 335.516 236.723C335.006 235.095 333.666 233.861 332.001 233.488C330.336 233.115 328.598 233.659 327.442 234.915C326.287 236.171 325.889 237.947 326.398 239.576Z" fill="#4D7CFE"/>
<path fill-rule="evenodd" clip-rule="evenodd" d="M309.175 253.616C309.528 256.231 315.277 263.174 315.277 263.174C315.277 263.174 318.993 254.958 318.645 252.343C318.418 250.652 317.306 249.21 315.727 248.561C314.148 247.912 312.343 248.154 310.992 249.197C309.641 250.24 308.948 251.924 309.175 253.616Z" fill="#4D7CFE"/>
<path opacity="0.25" fill-rule="evenodd" clip-rule="evenodd" d="M369.098 221.451C367.205 223.287 358.387 225.189 358.387 225.189C358.387 225.189 360.553 216.432 362.446 214.592C364.34 212.755 367.365 212.801 369.202 214.695C371.039 216.589 370.992 219.614 369.098 221.451Z" fill="black"/>
<path opacity="0.25" fill-rule="evenodd" clip-rule="evenodd" d="M364.11 237.291C361.521 237.806 353.104 234.61 353.104 234.61C353.104 234.61 359.677 228.447 362.265 227.923C364.822 227.476 367.268 229.153 367.773 231.699C368.278 234.245 366.657 236.729 364.123 237.291H364.11Z" fill="black"/>
<path opacity="0.25" fill-rule="evenodd" clip-rule="evenodd" d="M345.95 254.439C343.458 253.558 337.792 246.558 337.792 246.558C337.792 246.558 346.597 244.547 349.075 245.409C350.688 245.968 351.881 247.344 352.204 249.02C352.527 250.696 351.931 252.417 350.641 253.535C349.351 254.653 347.563 254.997 345.95 254.439Z" fill="black"/>
<path opacity="0.25" fill-rule="evenodd" clip-rule="evenodd" d="M329.308 264.314C326.702 263.874 319.931 257.926 319.931 257.926C319.931 257.926 328.26 254.461 330.862 254.888C332.559 255.152 333.984 256.306 334.594 257.911C335.204 259.516 334.906 261.325 333.813 262.649C332.72 263.973 331 264.609 329.308 264.314Z" fill="black"/>
<path opacity="0.25" fill-rule="evenodd" clip-rule="evenodd" d="M345.738 227.769C345.738 230.41 350.511 238.057 350.511 238.057C350.511 238.057 355.283 230.41 355.283 227.773C355.283 225.135 353.144 222.996 350.506 222.996C347.868 222.996 345.73 225.135 345.73 227.773L345.738 227.769Z" fill="black"/>
<path opacity="0.25" fill-rule="evenodd" clip-rule="evenodd" d="M326.398 239.576C327.186 242.094 334.032 247.967 334.032 247.967C334.032 247.967 336.304 239.241 335.516 236.723C335.006 235.095 333.666 233.861 332.001 233.488C330.336 233.115 328.598 233.659 327.442 234.915C326.287 236.171 325.889 237.947 326.398 239.576Z" fill="black"/>
<path opacity="0.25" fill-rule="evenodd" clip-rule="evenodd" d="M309.175 253.616C309.528 256.231 315.277 263.174 315.277 263.174C315.277 263.174 318.993 254.958 318.645 252.343C318.418 250.652 317.306 249.21 315.727 248.561C314.148 247.912 312.343 248.154 310.992 249.197C309.641 250.24 308.948 251.924 309.175 253.616Z" fill="black"/>
<path d="M309.334 271.869C309.334 271.869 311.504 249.535 324.408 237.652C329.854 232.699 333.547 226.114 334.935 218.884C335.564 215.448 335.878 211.961 335.872 208.468" stroke="#535461" stroke-width="2"/>
<path fill-rule="evenodd" clip-rule="evenodd" d="M343.964 200.944C342.978 203.392 335.687 208.701 335.687 208.701C335.687 208.701 334.116 199.821 335.102 197.374C335.74 195.79 337.174 194.668 338.864 194.429C340.553 194.19 342.243 194.87 343.295 196.214C344.347 197.558 344.602 199.361 343.964 200.944Z" fill="#4D7CFE"/>
<path fill-rule="evenodd" clip-rule="evenodd" d="M345.822 217.449C343.665 218.968 334.662 219.465 334.662 219.465C334.662 219.465 338.184 211.153 340.328 209.639C342.483 208.218 345.378 208.767 346.863 210.879C348.349 212.99 347.888 215.9 345.822 217.449Z" fill="#4D7CFE"/>
<path fill-rule="evenodd" clip-rule="evenodd" d="M336.167 240.483C333.526 240.703 325.518 236.587 325.518 236.587C325.518 236.587 332.738 231.185 335.366 230.965C337.084 230.789 338.763 231.554 339.758 232.966C340.752 234.378 340.907 236.217 340.163 237.776C339.418 239.334 337.891 240.369 336.167 240.483Z" fill="#4D7CFE"/>
<path fill-rule="evenodd" clip-rule="evenodd" d="M324.941 256.266C322.383 256.926 313.781 254.223 313.781 254.223C313.781 254.223 319.988 247.681 322.542 247.016C325.072 246.413 327.619 247.946 328.273 250.463C328.926 252.981 327.445 255.558 324.941 256.262V256.266Z" fill="#4D7CFE"/>
<path fill-rule="evenodd" clip-rule="evenodd" d="M325.165 216.19C326.235 218.602 333.697 223.674 333.697 223.674C333.697 223.674 334.97 214.746 333.904 212.333C332.836 209.92 330.013 208.83 327.6 209.899C325.187 210.967 324.097 213.79 325.165 216.203V216.19Z" fill="#4D7CFE"/>
<path fill-rule="evenodd" clip-rule="evenodd" d="M312.266 234.813C314.027 236.794 322.647 239.391 322.647 239.391C322.647 239.391 321.186 230.489 319.447 228.508C317.706 226.525 314.687 226.329 312.704 228.07C310.721 229.811 310.525 232.83 312.266 234.813Z" fill="#4D7CFE"/>
<path fill-rule="evenodd" clip-rule="evenodd" d="M302.215 254.633C303.593 256.882 311.667 260.902 311.667 260.902C311.667 260.902 311.738 251.881 310.347 249.631C308.965 247.384 306.024 246.681 303.776 248.062C301.528 249.443 300.825 252.385 302.206 254.633H302.215Z" fill="#4D7CFE"/>
<rect opacity="0.1" x="96.3491" y="111.485" width="42.4667" height="4.7195" fill="black"/>
<rect opacity="0.1" x="174.604" y="152.97" width="25.3541" height="4.7195" fill="black"/>
<rect opacity="0.1" x="174.604" y="184.641" width="37.5447" height="4.7195" fill="black"/>
<rect opacity="0.1" x="96.3491" y="128.118" width="42.4667" height="4.7195" fill="black"/>
<rect opacity="0.1" x="287.449" y="111.485" width="42.4667" height="4.7195" fill="black"/>
<rect opacity="0.1" x="287.449" y="128.118" width="42.4667" height="4.7195" fill="black"/>
<path fill-rule="evenodd" clip-rule="evenodd" d="M227.02 94.9403L228.209 93.3818C229.352 94.5023 230.887 95.1338 232.488 95.1428C234.496 95.1428 235.984 94.161 235.984 92.5717C235.984 90.8459 234.557 89.7101 230.604 89.7101V87.9183C234.126 87.9183 235.447 86.7604 235.447 85.2327C235.447 83.8503 234.262 82.9874 232.506 82.9874C231.137 83.0278 229.83 83.5627 228.825 84.4931L227.562 82.9874C228.95 81.7464 230.741 81.0504 232.603 81.0283C235.645 81.0283 237.886 82.49 237.886 85.0522C237.886 86.8573 236.565 88.0371 234.663 88.6887V88.7856C236.701 89.2258 238.409 90.5774 238.409 92.6862C238.409 95.4686 235.768 97.1371 232.651 97.1371C230.001 97.1327 228.182 96.1245 227.02 94.9403Z" fill="#4D7CFE"/>
<g opacity="0.8">
<path fill-rule="evenodd" clip-rule="evenodd" d="M324.756 54.3711C324.756 53.5258 324.831 52.4472 324.875 51.6019H324.765C324.281 52.3503 323.73 53.0944 323.237 53.8384L319.715 58.3554H329.066V60.1736H317.303V58.6327L324.325 49.3875H326.909V64.0875H324.756V54.3711Z" fill="#4D7CFE"/>
</g>
<g opacity="0.5">
<path fill-rule="evenodd" clip-rule="evenodd" d="M405.846 22.8403L406.643 21.7529C407.413 22.508 408.448 22.9329 409.526 22.9371C410.944 22.9371 412.058 22.0918 412.058 20.7051C412.058 19.3183 411.076 18.5698 409.619 18.5698C408.881 18.5637 408.158 18.7767 407.541 19.1818L406.713 18.6491L407.048 13.4497H413.211V14.8805H408.501L408.241 17.729C408.814 17.4685 409.438 17.3363 410.068 17.3415C412.089 17.3415 413.735 18.3805 413.735 20.6786C413.735 22.9768 411.807 24.3195 409.725 24.3195C408.286 24.3617 406.891 23.8294 405.846 22.8403Z" fill="#4D7CFE"/>
</g>
<rect opacity="0.1" x="152.838" y="124.732" width="157.386" height="157.386" fill="#4D7CFE"/>
<rect x="158.121" y="117.248" width="157.386" height="157.386" fill="white"/>
<rect opacity="0.5" x="174.604" y="134.682" width="124.415" height="4.7195" fill="#4D7CFE"/>
<rect opacity="0.1" x="174.604" y="168.806" width="79.2233" height="4.7195" fill="black"/>
<rect opacity="0.1" x="174.604" y="200.482" width="76.8679" height="4.7195" fill="black"/>
<rect opacity="0.1" x="174.604" y="216.318" width="104.784" height="4.7195" fill="black"/>
<path opacity="0.5" fill-rule="evenodd" clip-rule="evenodd" d="M276.267 169.224L275.725 168.665C275.701 168.643 275.67 168.63 275.637 168.63C275.606 168.63 275.576 168.642 275.553 168.665L271.798 172.451L270.429 171.082C270.405 171.06 270.373 171.048 270.341 171.046C270.31 171.048 270.28 171.06 270.257 171.082L269.707 171.632C269.683 171.655 269.67 171.687 269.67 171.72C269.67 171.753 269.683 171.785 269.707 171.808L271.433 173.53C271.527 173.632 271.655 173.694 271.794 173.706C271.93 173.694 272.057 173.633 272.15 173.534L276.267 169.4C276.308 169.348 276.308 169.275 276.267 169.224Z" fill="#3ACC6C"/>
<path opacity="0.5" fill-rule="evenodd" clip-rule="evenodd" d="M267.065 168.708C268.058 166.314 270.395 164.754 272.987 164.755V164.764C276.519 164.764 279.383 167.625 279.388 171.157C279.39 173.748 277.83 176.086 275.436 177.078C273.042 178.071 270.285 177.523 268.453 175.691C266.62 173.858 266.073 171.102 267.065 168.708ZM278.431 170.076C277.913 167.48 275.634 165.612 272.987 165.614C271.516 165.61 270.105 166.195 269.069 167.238C267.197 169.11 266.908 172.043 268.379 174.244C269.85 176.444 272.67 177.299 275.115 176.285C277.56 175.272 278.949 172.672 278.431 170.076Z" fill="#3ACC6C"/>
<path opacity="0.5" fill-rule="evenodd" clip-rule="evenodd" d="M276.267 200.896L275.725 200.341C275.702 200.317 275.67 200.304 275.637 200.306C275.605 200.304 275.575 200.317 275.553 200.341L271.798 204.123L270.429 202.758C270.406 202.733 270.374 202.719 270.341 202.718C270.309 202.719 270.278 202.733 270.257 202.758L269.707 203.304C269.683 203.327 269.67 203.359 269.67 203.392C269.67 203.425 269.683 203.457 269.707 203.48L271.433 205.206C271.527 205.308 271.655 205.371 271.794 205.382C271.929 205.368 272.055 205.308 272.15 205.21L276.267 201.072C276.308 201.02 276.308 200.947 276.267 200.896Z" fill="#3ACC6C"/>
<path opacity="0.5" fill-rule="evenodd" clip-rule="evenodd" d="M267.066 200.383C268.058 197.989 270.396 196.43 272.987 196.431C274.685 196.431 276.314 197.106 277.515 198.308C278.715 199.509 279.389 201.139 279.388 202.837C279.388 205.428 277.827 207.764 275.433 208.756C273.039 209.747 270.283 209.198 268.451 207.365C266.62 205.532 266.073 202.776 267.066 200.383ZM278.431 201.774C277.913 199.178 275.634 197.31 272.987 197.312C271.516 197.308 270.105 197.893 269.069 198.936C267.197 200.808 266.908 203.741 268.379 205.942C269.85 208.142 272.67 208.997 275.115 207.983C277.56 206.97 278.949 204.37 278.431 201.774Z" fill="#3ACC6C"/>
<ellipse opacity="0.1" cx="225.633" cy="344.444" rx="31.4384" ry="5.27421" fill="#4D7CFE"/>
<path fill-rule="evenodd" clip-rule="evenodd" d="M57.6333 305.257C57.6333 305.257 59.2711 307.401 56.8761 310.641C54.4811 313.882 52.5 316.611 53.3013 318.632C53.3013 318.632 56.9157 312.618 59.861 312.535C62.8063 312.451 60.8692 308.876 57.6333 305.257Z" fill="#4D7CFE"/>
<path opacity="0.1" fill-rule="evenodd" clip-rule="evenodd" d="M57.6333 305.257C57.776 305.465 57.8886 305.692 57.9679 305.931C60.8384 309.308 62.3704 312.455 59.6101 312.535C57.039 312.609 53.9528 317.206 53.2132 318.368C53.2366 318.458 53.266 318.546 53.3013 318.632C53.3013 318.632 56.9157 312.618 59.861 312.535C62.8063 312.451 60.8692 308.876 57.6333 305.257Z" fill="black"/>
<path fill-rule="evenodd" clip-rule="evenodd" d="M60.6799 307.991C60.6799 308.748 60.5962 309.36 60.4906 309.36C60.3849 309.36 60.3013 308.748 60.3013 307.991C60.3013 307.234 60.4069 307.591 60.5126 307.591C60.6182 307.591 60.6799 307.238 60.6799 307.991Z" fill="#FFD037"/>
<path fill-rule="evenodd" clip-rule="evenodd" d="M61.7277 308.894C61.0629 309.255 60.4862 309.475 60.4377 309.382C60.3893 309.29 60.878 308.942 61.5472 308.559C62.2164 308.176 61.9478 308.462 61.9874 308.559C62.027 308.656 62.3881 308.533 61.7277 308.894Z" fill="#FFD037"/>
<path fill-rule="evenodd" clip-rule="evenodd" d="M48.9692 305.257C48.9692 305.257 47.327 307.401 49.7264 310.641C52.1258 313.882 54.0981 316.611 53.3013 318.632C53.3013 318.632 49.6824 312.618 46.7415 312.535C43.8006 312.451 45.7289 308.876 48.9692 305.257Z" fill="#4D7CFE"/>
<path opacity="0.1" fill-rule="evenodd" clip-rule="evenodd" d="M48.9692 305.257C48.8266 305.465 48.7139 305.692 48.6346 305.931C45.7597 309.308 44.2321 312.455 46.9925 312.535C49.5635 312.609 52.6497 317.206 53.3893 318.368C53.3629 318.456 53.3365 318.544 53.3013 318.632C53.3013 318.632 49.6824 312.618 46.7415 312.535C43.8006 312.451 45.7289 308.876 48.9692 305.257Z" fill="black"/>
<path fill-rule="evenodd" clip-rule="evenodd" d="M45.9182 307.991C45.9182 308.748 46.0019 309.36 46.1075 309.36C46.2132 309.36 46.2969 308.748 46.2969 307.991C46.2969 307.234 46.1912 307.591 46.0855 307.591C45.9799 307.591 45.9182 307.238 45.9182 307.991Z" fill="#FFD037"/>
<path fill-rule="evenodd" clip-rule="evenodd" d="M44.8748 308.894C45.5352 309.255 46.112 309.475 46.1648 309.382C46.2176 309.29 45.7245 308.942 45.0554 308.559C44.3862 308.176 44.6547 308.462 44.6151 308.559C44.5755 308.656 44.2101 308.533 44.8748 308.894Z" fill="#FFD037"/>
<ellipse opacity="0.1" cx="53.3013" cy="332.408" rx="17.1478" ry="2.6327" fill="#4D7CFE"/>
<path fill-rule="evenodd" clip-rule="evenodd" d="M62.1283 315.74L62.0447 316.413L61.9302 317.355L61.8818 317.752L61.7673 318.698L61.7189 319.094L61.6 320.036L60.2792 330.796C60.1648 331.756 58.5931 332.504 56.7 332.504H49.8893C47.9962 332.504 46.4289 331.756 46.3145 330.796L44.9937 320.036L44.8792 319.094L44.8308 318.698L44.7164 317.752L44.6679 317.355L44.5535 316.413L44.4654 315.74C44.3994 315.198 45.2491 314.74 46.3189 314.74H60.266C61.3447 314.74 62.1943 315.198 62.1283 315.74Z" fill="#65617D"/>
<path fill-rule="evenodd" clip-rule="evenodd" d="M62.0447 316.409L61.9302 317.355H44.6723L44.5535 316.409H62.0447Z" fill="#9D9CB5"/>
<path fill-rule="evenodd" clip-rule="evenodd" d="M61.8818 317.752L61.7673 318.698H44.8352L44.7208 317.752H61.8818Z" fill="#9D9CB5"/>
<path fill-rule="evenodd" clip-rule="evenodd" d="M61.7189 319.09L61.6 320.037H44.9981L44.8837 319.09H61.7189Z" fill="#9D9CB5"/>
<path opacity="0.1" fill-rule="evenodd" clip-rule="evenodd" d="M257.477 194.939C257.477 194.939 259.823 202.701 260.118 203.304C260.413 203.916 260.682 207.715 258.507 209.705C257.866 210.208 257.04 210.41 256.24 210.26C255.854 210.779 255.411 211.253 254.919 211.673H253.752L243.499 211.779C243.499 211.779 240.179 211.466 240.417 215.023C240.655 218.58 239.149 223.084 239.149 223.084C239.149 223.084 238.92 225.735 239.07 226.245C239.216 226.744 238.779 228.653 238.692 229.029L238.687 229.054V229.094C238.687 229.094 238.348 230.419 238.788 230.885C238.826 230.929 238.873 230.965 238.925 230.991C239.558 231.308 240.509 234.39 240.509 234.39C241.002 234.988 241.254 235.747 241.218 236.521C241.139 237.789 241.614 240.791 243.67 242.53C245.726 244.269 247.862 248.381 247.862 248.381C247.862 248.381 247.615 251.252 245.295 252.995C245.304 253.093 245.314 253.186 245.323 253.28C245.336 253.404 245.348 253.528 245.361 253.664C245.748 258.37 245.097 267.638 243.64 271.274C241.876 275.664 240.117 289.697 239.686 293.135C239.653 293.397 239.628 293.597 239.611 293.727C239.374 295.563 239.431 303.091 239.431 303.091C239.431 303.091 238.995 319.27 238.955 321.582C238.916 323.893 237.194 329.704 237.194 329.704C237.194 329.704 236.604 334.565 236.899 336.167C237.102 337.259 236.67 339.57 236.375 340.926L236.49 340.852C236.569 340.794 236.648 340.737 236.723 340.671C236.747 340.654 236.769 340.635 236.789 340.614C237.426 340.088 238.326 340.026 239.029 340.459C239.732 340.892 240.081 341.724 239.897 342.529C239.86 342.685 239.817 342.848 239.772 343.014L239.748 343.106C239.442 344.134 238.994 344.456 238.139 345.072C237.467 345.556 236.543 346.221 235.24 347.552C233.738 349.158 231.47 349.8 229.349 349.221C229.016 349.131 228.794 348.816 228.821 348.472L229.191 343.568L229.226 343.128C228.979 342.982 228.838 342.881 228.838 342.881C228.838 342.881 227.711 337.426 228.896 336.062C230.08 334.697 228.482 330.488 228.482 330.488C228.482 330.488 229.076 308.603 229.252 307.595C229.428 306.587 228.543 303.505 227.711 300.956C226.879 298.407 228.187 288.329 228.482 286.489C228.777 284.649 228.367 276.293 228.068 274.572C227.769 272.85 228.42 265.679 228.42 265.679C227.236 262.121 226.289 265.322 226.289 265.322L225.286 274.567L224.277 293.661C224.277 293.661 224.396 299.485 223.507 301.145C222.618 302.805 221.847 307.071 221.847 307.071L222.261 328.643C222.261 328.643 222.204 333.152 222.499 334.868C222.644 335.701 222.494 337.149 222.305 338.47C222.971 338.142 223.767 338.226 224.349 338.687C224.932 339.148 225.197 339.903 225.03 340.627C224.997 340.781 224.955 340.939 224.911 341.102C224.902 341.134 224.894 341.167 224.885 341.199C224.579 342.23 224.131 342.552 223.276 343.168C222.604 343.651 221.68 344.315 220.377 345.646C218.876 347.254 216.607 347.896 214.486 347.314C214.152 347.226 213.929 346.911 213.958 346.566L214.279 342.304C213.936 341.899 213.654 341.53 213.465 341.261C213.639 341.349 213.818 341.425 214.002 341.49C213.713 341.136 213.442 340.767 213.192 340.385C213.192 340.385 213.425 339.077 213.901 338.901C214.376 338.725 213.747 335.538 213.368 334.987C212.989 334.437 213.43 330.585 213.43 330.585C213.43 330.585 213.011 327.085 212.36 322.876C211.708 318.667 211.889 302.422 212.303 301.414C212.716 300.406 213.073 295.721 213.073 295.721C213.073 295.721 212.597 293.053 213.192 291.156C213.608 289.827 212.743 285.5 212.188 282.722C211.951 281.536 211.77 280.632 211.77 280.365C211.77 279.476 211.021 273.964 210.581 273.37C210.309 272.859 210.167 272.289 210.167 271.71C210.167 271.71 210.11 270.526 209.102 266.968C208.384 264.371 208.816 259.251 209.102 256.671C209.134 256.416 209.161 256.187 209.181 255.984C208.508 255.777 208.301 255.297 208.701 254.712C208.91 254.359 209.046 253.969 209.102 253.563C208.436 252.668 207.847 251.718 207.341 250.723C206.553 249.041 205.602 242.358 205.602 242.358C205.782 241.258 205.575 236.279 205.465 233.906C205.267 233.87 205.074 233.831 204.893 233.782C202.583 233.199 203.159 230.843 203.394 229.879C203.425 229.752 203.45 229.649 203.462 229.578C203.475 229.491 203.502 229.306 203.54 229.052C203.746 227.677 204.255 224.283 204.255 223.648C204.255 222.895 204.255 219.804 204.136 218.391C204.017 216.978 204.726 213.016 204.726 213.016C204.726 213.016 204.73 203.075 210.497 201.895C210.563 200.717 210.493 199.535 210.291 198.373L210.238 198.875C210.115 198.061 209.912 197.262 209.63 196.489C209.408 195.879 209.133 195.271 208.858 194.663C208.104 193.001 207.35 191.337 207.689 189.625C207.786 189.165 207.946 188.721 208.164 188.304L208.195 188.375C208.844 187.014 210.084 185.832 211.319 184.656C211.826 184.173 212.332 183.691 212.796 183.197C214.788 181.144 216.111 178.534 216.591 175.713C216.63 175.475 216.662 175.235 216.693 174.995C216.816 174.071 216.94 173.144 217.471 172.319C222.279 164.879 238.163 173.565 241.685 177.602C244.731 181.093 245.264 186.138 241.905 189.396C241.733 189.572 241.553 189.744 241.355 189.911C241.23 190.017 241.101 190.12 240.973 190.224C240.692 190.45 240.41 190.676 240.166 190.924C240.058 191.035 239.961 191.156 239.875 191.285C239.531 191.888 239.395 192.587 239.488 193.275C239.629 195.162 240.429 196.954 241.23 198.749C241.502 199.357 241.773 199.966 242.019 200.579C243.301 200.75 244.745 201.054 245 201.565C245.616 201.891 246.286 202.106 246.977 202.199C247.075 202.199 247.185 202.198 247.305 202.197C248.088 202.192 249.236 202.185 249.618 202.357C249.679 202.383 249.746 202.393 249.812 202.384C250.199 202.344 250.604 201.763 250.604 201.763C250.604 201.763 251.036 201.763 251.701 201.807L252.211 199.024C252.211 199.024 250.64 194.182 250.772 192.861C250.904 191.54 248.319 184.936 248.319 184.936C248.319 184.936 242.024 175.894 246.118 172.125C250.213 168.357 252.955 183.462 252.955 183.462L257.477 194.939ZM212.509 232.316L212.435 234.121V234.117C212.435 234.117 212.201 234.139 211.783 234.165L211.884 235.196C211.93 235.162 211.979 235.133 212.03 235.107C212.46 234.924 212.784 234.555 212.91 234.104C213.032 233.63 213.032 233.133 212.91 232.66L212.509 232.316Z" fill="black"/>
<path fill-rule="evenodd" clip-rule="evenodd" d="M250.899 206.804C250.899 206.804 256.737 210.559 258.947 208.565C261.157 206.57 260.884 202.723 260.585 202.115C260.286 201.508 257.908 193.693 257.908 193.693L253.316 182.123C253.316 182.123 250.525 166.895 246.36 170.677C242.196 174.458 248.606 183.589 248.606 183.589C248.606 183.589 251.247 190.25 251.097 191.584C250.948 192.918 252.559 197.805 252.559 197.805L250.899 206.804Z" fill="url(#paint0_linear)"/>
<path fill-rule="evenodd" clip-rule="evenodd" d="M240.012 342.476C239.968 342.665 239.92 342.859 239.858 343.057C239.316 344.911 238.291 344.492 235.279 347.539C233.747 349.162 231.445 349.809 229.292 349.221C228.954 349.132 228.728 348.816 228.755 348.468L229.133 343.524L229.314 341.142C229.314 341.142 234.108 342.489 236.552 340.786C236.631 340.728 236.71 340.671 236.785 340.605L236.855 340.548C237.5 340.02 238.407 339.957 239.118 340.392C239.829 340.826 240.187 341.662 240.012 342.476Z" fill="url(#paint1_linear)"/>
<path fill-rule="evenodd" clip-rule="evenodd" d="M224.969 340.609C224.929 340.799 224.876 340.992 224.819 341.191C224.277 343.044 223.252 342.626 220.24 345.672C218.707 347.293 216.407 347.941 214.253 347.358C213.913 347.271 213.685 346.951 213.716 346.601L214.09 341.657L214.275 339.275C214.275 339.275 219.069 340.623 221.508 338.919C221.592 338.862 221.667 338.804 221.746 338.738L221.816 338.681C222.46 338.151 223.368 338.087 224.079 338.522C224.791 338.957 225.148 339.795 224.969 340.609Z" fill="url(#paint2_linear)"/>
<g opacity="0.1">
<path fill-rule="evenodd" clip-rule="evenodd" d="M220.003 341.353L220.201 343.92C217.445 346.65 214.169 342.599 213.201 341.252C215.723 342.547 220.003 341.353 220.003 341.353Z" fill="url(#paint3_linear)"/>
</g>
<g opacity="0.1">
<path fill-rule="evenodd" clip-rule="evenodd" d="M236.182 342.397L236.547 342.159C234.029 345.954 230.296 344.202 229.133 343.524L229.314 341.142C229.314 341.142 234.108 342.489 236.552 340.786C236.358 341.714 236.182 342.397 236.182 342.397Z" fill="url(#paint4_linear)"/>
</g>
<path fill-rule="evenodd" clip-rule="evenodd" d="M243.838 270.609C241.909 275.391 239.981 291.411 239.739 293.265C239.497 295.118 239.558 302.708 239.558 302.708L239.057 321.357C238.999 323.691 237.252 329.546 237.252 329.546C237.252 329.546 236.648 334.45 236.948 336.062C237.247 337.673 236.164 341.921 236.164 341.921L236.53 341.684C233.514 346.223 228.755 342.815 228.755 342.815C228.755 342.815 227.61 337.316 228.812 335.943C230.014 334.569 228.394 330.325 228.394 330.325C228.394 330.325 228.992 308.269 229.177 307.252C229.362 306.235 228.491 303.126 227.61 300.555C226.73 297.984 228.09 287.823 228.394 285.97C228.697 284.116 228.27 275.69 227.953 273.955C227.636 272.221 228.314 264.987 228.314 264.987C227.108 261.404 226.144 264.631 226.144 264.631L225.18 274.017L224.189 293.287C224.189 293.287 224.313 299.142 223.406 300.815C222.499 302.488 221.719 306.794 221.719 306.794L222.16 328.551C222.16 328.551 222.098 333.094 222.402 334.829C222.706 336.563 221.737 341.045 221.737 341.045C218.365 348.935 212.932 340.389 212.932 340.389C212.932 340.389 213.17 339.069 213.654 338.892C214.138 338.716 213.474 335.485 213.113 334.93C212.752 334.375 213.17 330.528 213.17 330.528C213.17 330.528 212.752 327.006 212.087 322.753C211.422 318.5 211.607 302.131 212.025 301.114C212.443 300.097 212.809 295.391 212.809 295.391C212.809 295.391 212.329 292.701 212.932 290.786C213.535 288.871 211.484 280.806 211.484 279.908C211.484 279.009 210.7 273.453 210.277 272.863C209.994 272.351 209.842 271.776 209.837 271.191C209.837 271.191 209.775 269.993 208.75 266.409C208.001 263.768 208.442 258.626 208.75 256.028C208.855 255.064 208.943 254.452 208.943 254.452C208.943 254.452 243.534 248.892 244.921 250.151C245.247 250.441 245.462 251.472 245.586 252.907C245.977 257.6 245.313 266.947 243.838 270.609Z" fill="url(#paint5_linear)"/>
<g opacity="0.1">
<path fill-rule="evenodd" clip-rule="evenodd" d="M230.758 297.53C230.921 297.53 234.72 297.895 236.142 297.575C237.564 297.255 230.758 297.53 230.758 297.53Z" fill="url(#paint6_linear)"/>
</g>
<g opacity="0.1">
<path fill-rule="evenodd" clip-rule="evenodd" d="M231.04 299.719C231.04 299.719 236.323 300.635 236.587 300.159C236.851 299.684 231.04 299.719 231.04 299.719Z" fill="url(#paint7_linear)"/>
</g>
<g opacity="0.1">
<path fill-rule="evenodd" clip-rule="evenodd" d="M214.931 298.764C214.931 298.764 217.66 298.882 219.148 299.56C220.636 300.238 214.931 298.764 214.931 298.764Z" fill="url(#paint8_linear)"/>
</g>
<path fill-rule="evenodd" clip-rule="evenodd" d="M205.008 231.735C205.008 231.735 205.448 240.065 205.21 241.535C205.21 241.535 206.174 248.271 206.971 249.984C207.69 251.35 208.538 252.644 209.503 253.849L211.871 237.313L211.321 231.652L205.008 231.735Z" fill="url(#paint9_linear)"/>
<ellipse cx="229.917" cy="184.589" rx="9.2805" ry="9.20566" fill="url(#paint10_linear)"/>
<path fill-rule="evenodd" clip-rule="evenodd" d="M225.096 188.894C225.096 188.894 222.204 194.512 219.311 197.145C216.419 199.777 236.666 202.762 237.146 202.762C237.626 202.762 233.531 190.809 234.253 189.374C234.975 187.939 225.096 188.894 225.096 188.894Z" fill="url(#paint11_linear)"/>
<g opacity="0.1">
<path fill-rule="evenodd" clip-rule="evenodd" d="M245.586 252.863C245.131 253.208 244.63 253.487 244.097 253.691C240.404 255.126 236.384 257.12 233.65 256.332C230.916 255.544 225.136 256.332 225.136 256.332C225.136 256.332 213.482 255.372 211.153 255.931C210.372 256.169 209.542 256.19 208.75 255.993C208.855 255.029 208.943 254.417 208.943 254.417C208.943 254.417 243.534 248.857 244.921 250.116C245.247 250.398 245.462 251.414 245.586 252.863Z" fill="url(#paint12_linear)"/>
</g>
<path fill-rule="evenodd" clip-rule="evenodd" d="M248.117 247.553C248.117 247.553 247.796 251.516 244.097 252.973C240.399 254.43 236.384 256.403 233.65 255.614C230.916 254.826 225.136 255.614 225.136 255.614C225.136 255.614 213.482 254.655 211.153 255.214C208.825 255.773 207.631 255.055 208.34 254.016C209.049 252.977 208.987 249.557 208.987 248.121C208.987 246.686 208.182 240.866 208.904 239.831C209.626 238.797 210.269 234.813 211.717 234.174C212.156 233.992 212.488 233.619 212.62 233.162C212.746 232.684 212.746 232.182 212.62 231.704C212.62 231.704 212.377 231.506 212.038 231.207C211.189 230.454 209.745 229.054 210.207 228.596C210.85 227.958 210.207 223.811 210.207 223.811C210.207 223.811 208.679 220.623 209.243 219.43C209.806 218.237 204.343 211.946 204.343 211.946C204.343 211.946 204.343 201.107 210.947 200.627C210.947 200.627 215.604 200.79 216.168 198.716C216.731 196.643 220.425 195.445 220.425 195.445L228.86 197.281C228.86 197.281 236.345 198.875 237.701 197.92C239.057 196.964 240.113 199.192 240.113 199.192C240.113 199.192 244.771 199.434 245.255 200.389C245.74 201.345 243.728 210.669 243.728 210.669C243.728 210.669 240.351 210.352 240.593 213.94C240.835 217.528 239.308 222.067 239.308 222.067C239.308 222.067 239.065 224.709 239.228 225.255C239.391 225.801 238.911 227.773 238.836 228.086V228.125C238.836 228.125 238.502 229.446 238.938 229.935C238.98 229.976 239.027 230.012 239.079 230.04C239.721 230.357 240.686 233.465 240.686 233.465C241.188 234.067 241.447 234.835 241.412 235.618C241.333 236.895 241.813 239.92 243.899 241.676C245.986 243.433 248.117 247.553 248.117 247.553Z" fill="url(#paint13_linear)"/>
<path fill-rule="evenodd" clip-rule="evenodd" d="M212.276 229.103V229.442L212.126 233.17C212.126 233.17 207.187 233.567 204.492 232.889C201.798 232.211 202.938 229.265 203.044 228.649C203.123 228.09 203.845 223.428 203.845 222.67C203.845 221.913 203.845 218.805 203.726 217.387C203.608 215.97 204.33 211.968 204.33 211.968L204.849 211.33L210.515 213.482L212.276 229.103Z" fill="url(#paint14_linear)"/>
<g opacity="0.1">
<path fill-rule="evenodd" clip-rule="evenodd" d="M212.267 229.45L212.118 233.179C212.118 233.179 207.178 233.575 204.484 232.897C201.789 232.219 202.93 229.274 203.035 228.658L212.267 229.45Z" fill="url(#paint15_linear)"/>
</g>
<g opacity="0.1">
<path fill-rule="evenodd" clip-rule="evenodd" d="M212.642 233.153C212.768 232.675 212.768 232.173 212.642 231.696C212.642 231.696 212.399 231.497 212.06 231.198C216.318 230.613 233.166 228.314 238.845 228.068V228.107C238.845 228.107 238.511 229.428 238.947 229.917L212.642 233.153Z" fill="url(#paint16_linear)"/>
</g>
<g opacity="0.1">
<path fill-rule="evenodd" clip-rule="evenodd" d="M239.44 236.054C239.44 236.054 240.483 241.914 236.587 243.979C236.587 243.979 238.797 241.06 239.44 236.054Z" fill="url(#paint17_linear)"/>
</g>
<g opacity="0.1">
<path fill-rule="evenodd" clip-rule="evenodd" d="M213.927 244.128C213.927 244.128 223.326 242.535 225.175 243.767C227.025 245 213.927 244.128 213.927 244.128Z" fill="url(#paint18_linear)"/>
</g>
<g opacity="0.1">
<path fill-rule="evenodd" clip-rule="evenodd" d="M236.182 207.825C236.182 207.825 234.738 213.72 235.821 215.076C236.904 216.432 236.182 207.825 236.182 207.825Z" fill="url(#paint19_linear)"/>
</g>
<g opacity="0.1">
<path fill-rule="evenodd" clip-rule="evenodd" d="M208.943 203C208.943 203 210.264 205.201 209.467 207.464C208.67 209.727 208.943 203 208.943 203Z" fill="url(#paint20_linear)"/>
</g>
<path fill-rule="evenodd" clip-rule="evenodd" d="M206.214 222.208C206.214 222.208 207.9 223.208 207.336 224.762C206.773 226.316 206.214 222.208 206.214 222.208Z" fill="url(#paint21_linear)"/>
<g opacity="0.1">
<path fill-rule="evenodd" clip-rule="evenodd" d="M206.038 217.665C206.038 217.665 207.605 218.506 207.799 219.738C207.992 220.971 206.038 217.665 206.038 217.665Z" fill="url(#paint22_linear)"/>
</g>
<g opacity="0.1">
<path fill-rule="evenodd" clip-rule="evenodd" d="M229.274 265.326C229.274 265.326 239.118 266.326 241.086 264.006C241.086 264.014 232.206 265.767 229.274 265.326Z" fill="url(#paint23_linear)"/>
</g>
<g opacity="0.1">
<path fill-rule="evenodd" clip-rule="evenodd" d="M212.281 264.772C212.281 264.772 222.847 267.242 224.933 265.287C224.933 265.287 215.855 265.965 212.281 264.772Z" fill="url(#paint24_linear)"/>
</g>
<g opacity="0.1">
<path fill-rule="evenodd" clip-rule="evenodd" d="M230.036 268.618C230.036 268.618 234.438 268.618 236.503 268.753C238.568 268.888 230.036 268.618 230.036 268.618Z" fill="url(#paint25_linear)"/>
</g>
<g opacity="0.1">
<path fill-rule="evenodd" clip-rule="evenodd" d="M213.003 270.429C213.003 270.429 215.173 272.859 217.621 272.423C220.069 271.987 213.003 270.429 213.003 270.429Z" fill="url(#paint26_linear)"/>
</g>
<path fill-rule="evenodd" clip-rule="evenodd" d="M217.264 170.897C216.582 171.945 216.56 173.155 216.384 174.318C215.899 177.174 214.553 179.814 212.527 181.886C210.599 183.919 207.953 185.76 207.455 188.243C206.984 190.603 208.587 192.87 209.428 195.164C211.629 201.217 208.547 207.561 207.645 213.808C207.398 215.534 207.697 217.74 209.846 218.312C210.515 218.492 211.281 218.47 211.88 218.752C212.69 219.135 212.936 219.932 213.086 220.65C213.622 223.215 213.808 225.841 213.636 228.455C213.54 229.926 213.434 231.612 214.83 232.62C215.541 233.059 216.325 233.369 217.145 233.536C219.347 234.126 222.195 234.597 223.679 233.219C224.304 232.642 224.559 231.823 225.312 231.365C226.474 230.683 228.125 231.145 229.591 231.216C232.413 231.337 235.077 229.917 236.552 227.509C237.736 225.391 237.635 222.979 237.194 220.698C236.754 218.418 235.997 216.164 235.94 213.857C235.871 213.048 236.053 212.238 236.459 211.536C237.34 210.163 239.44 209.538 240.862 208.455C243.53 206.43 243.503 203.11 242.552 200.332C241.601 197.554 239.84 194.899 239.625 192.029C239.53 191.334 239.669 190.628 240.021 190.021C240.487 189.445 241.032 188.938 241.641 188.516C245.537 185.253 245.079 179.891 241.857 176.224C238.282 172.143 222.129 163.382 217.264 170.897Z" fill="url(#paint27_linear)"/>
<g opacity="0.1">
<path fill-rule="evenodd" clip-rule="evenodd" d="M209.921 197.668C210.304 195.259 210.094 192.793 209.309 190.484C208.869 189.326 208.265 188.172 207.821 187.014C207.597 187.429 207.434 187.874 207.336 188.335C206.861 190.691 208.468 192.958 209.309 195.256C209.592 196.038 209.797 196.846 209.921 197.668Z" fill="url(#paint28_linear)"/>
<path fill-rule="evenodd" clip-rule="evenodd" d="M213.522 223.775C213.694 221.16 213.507 218.534 212.967 215.97C212.818 215.252 212.571 214.455 211.765 214.072C211.162 213.786 210.396 213.808 209.727 213.632C208.899 213.433 208.207 212.865 207.852 212.091C207.733 212.699 207.623 213.306 207.535 213.909C207.284 215.635 207.583 217.841 209.736 218.413C210.405 218.594 211.171 218.572 211.774 218.853C212.58 219.236 212.826 220.033 212.976 220.751C213.226 221.941 213.399 223.145 213.496 224.357C213.487 224.167 213.522 223.969 213.522 223.775Z" fill="url(#paint29_linear)"/>
<path fill-rule="evenodd" clip-rule="evenodd" d="M236.415 222.846C234.942 225.254 232.279 226.674 229.459 226.553C227.993 226.483 226.342 226.021 225.18 226.703C224.405 227.143 224.167 227.98 223.547 228.557C222.063 229.935 219.214 229.463 217.013 228.873C216.193 228.708 215.409 228.398 214.697 227.958C214.09 227.519 213.68 226.857 213.557 226.118C213.557 226.936 213.557 227.76 213.504 228.579C213.408 230.045 213.302 231.731 214.697 232.739C215.409 233.179 216.193 233.489 217.013 233.655C219.214 234.249 222.063 234.716 223.547 233.338C224.167 232.761 224.427 231.946 225.18 231.489C226.342 230.802 227.993 231.264 229.459 231.339C232.28 231.46 234.945 230.039 236.415 227.628C237.555 225.594 237.507 223.287 237.111 221.085C236.958 221.701 236.724 222.293 236.415 222.846Z" fill="url(#paint30_linear)"/>
<path fill-rule="evenodd" clip-rule="evenodd" d="M241.518 183.84C240.908 184.263 240.361 184.77 239.893 185.346C239.543 185.953 239.405 186.659 239.501 187.353C239.576 188.226 239.761 189.085 240.052 189.911C240.501 189.439 240.992 189.007 241.518 188.621C244.159 186.42 244.793 183.25 243.939 180.296C243.487 181.684 242.647 182.914 241.518 183.84Z" fill="url(#paint31_linear)"/>
<path fill-rule="evenodd" clip-rule="evenodd" d="M240.738 203.779C239.312 204.858 237.216 205.483 236.336 206.861C235.927 207.562 235.746 208.373 235.816 209.181C235.85 210.114 235.964 211.042 236.16 211.955C236.212 211.847 236.271 211.743 236.336 211.642C237.216 210.273 239.312 209.643 240.738 208.56C243.173 206.711 243.38 203.784 242.658 201.173C242.29 202.212 241.622 203.119 240.738 203.779Z" fill="url(#paint32_linear)"/>
</g>
<path fill-rule="evenodd" clip-rule="evenodd" d="M259.084 204.757C257.437 208.899 255.306 210.533 255.306 210.533H254.122L243.697 210.638L242.491 207.372L244.181 200.328L245.22 200.394C245.847 200.723 246.526 200.939 247.228 201.032C247.989 201.032 249.477 200.992 249.918 201.191C249.98 201.219 250.049 201.228 250.116 201.217C250.508 201.177 250.926 200.592 250.926 200.592C250.926 200.592 260.73 200.609 259.084 204.757Z" fill="url(#paint33_linear)"/>
<g opacity="0.1">
<path fill-rule="evenodd" clip-rule="evenodd" d="M259.084 204.757C257.437 208.899 255.306 210.533 255.306 210.533H254.122C254.738 208.891 256.042 205.518 256.552 204.743C257.063 203.969 252.674 202.172 250.12 201.182C250.512 201.142 250.93 200.557 250.93 200.557C250.93 200.557 260.73 200.609 259.084 204.757Z" fill="url(#paint34_linear)"/>
</g>
<path fill-rule="evenodd" clip-rule="evenodd" d="M250.591 207.966C250.591 207.966 256.314 211.691 258.516 209.701C260.717 207.711 260.422 203.907 260.127 203.304C259.832 202.701 257.486 194.939 257.486 194.939L252.964 183.462C252.964 183.462 250.221 168.357 246.127 172.125C242.033 175.894 248.328 184.936 248.328 184.936C248.328 184.936 250.913 191.54 250.78 192.861C250.648 194.182 252.22 199.025 252.22 199.025L250.591 207.966Z" fill="#EFB7B9"/>
<path fill-rule="evenodd" clip-rule="evenodd" d="M239.88 342.533C239.836 342.718 239.783 342.912 239.73 343.11C239.193 344.946 238.185 344.532 235.222 347.557C233.72 349.163 231.452 349.805 229.331 349.225C228.998 349.135 228.776 348.821 228.803 348.477L229.173 343.572L229.353 341.213C229.353 341.213 234.073 342.533 236.472 340.856C236.552 340.799 236.631 340.742 236.706 340.676C236.73 340.659 236.752 340.64 236.772 340.618C237.408 340.093 238.309 340.03 239.011 340.463C239.714 340.896 240.063 341.729 239.88 342.533Z" fill="#4D7CFE"/>
<path fill-rule="evenodd" clip-rule="evenodd" d="M225.065 340.684C225.026 340.869 224.973 341.059 224.92 341.257C224.383 343.097 223.375 342.679 220.412 345.703C218.911 347.311 216.642 347.954 214.521 347.372C214.187 347.283 213.965 346.968 213.993 346.623L214.363 341.719L214.543 339.359C214.543 339.359 219.263 340.68 221.662 339.003C221.743 338.948 221.821 338.889 221.896 338.826L221.962 338.765C222.599 338.241 223.498 338.181 224.2 338.615C224.901 339.049 225.249 339.88 225.065 340.684Z" fill="#4D7CFE"/>
<path opacity="0.1" fill-rule="evenodd" clip-rule="evenodd" d="M220.192 341.419L220.386 343.969C217.678 346.672 214.451 342.648 213.5 341.327C215.992 342.595 220.192 341.419 220.192 341.419Z" fill="black"/>
<path opacity="0.1" fill-rule="evenodd" clip-rule="evenodd" d="M236.111 342.454L236.468 342.221C233.994 345.98 230.304 344.246 229.173 343.572L229.353 341.213C229.353 341.213 234.073 342.533 236.472 340.856C236.283 341.776 236.111 342.454 236.111 342.454Z" fill="black"/>
<path fill-rule="evenodd" clip-rule="evenodd" d="M243.64 271.274C241.742 276.016 239.845 291.904 239.611 293.727C239.378 295.55 239.431 303.091 239.431 303.091L238.955 321.582C238.898 323.893 237.194 329.704 237.194 329.704C237.194 329.704 236.604 334.547 236.899 336.167C237.194 337.787 236.129 341.979 236.129 341.979L236.486 341.741C233.523 346.245 228.838 342.868 228.838 342.868C228.838 342.868 227.711 337.413 228.896 336.048C230.08 334.684 228.482 330.475 228.482 330.475C228.482 330.475 229.076 308.599 229.252 307.582C229.428 306.565 228.539 303.492 227.711 300.943C226.884 298.394 228.187 288.312 228.482 286.476C228.777 284.64 228.363 276.276 228.068 274.559C227.773 272.842 228.42 265.665 228.42 265.665C227.236 262.108 226.289 265.309 226.289 265.309L225.338 274.616L224.313 293.727C224.313 293.727 224.431 299.534 223.542 301.211C222.653 302.889 221.887 307.12 221.887 307.12L222.301 328.692C222.301 328.692 222.243 333.2 222.538 334.917C222.833 336.634 221.887 341.081 221.887 341.081C218.567 348.904 213.231 340.429 213.231 340.429C213.231 340.429 213.469 339.108 213.94 338.945C214.411 338.782 213.764 335.564 213.408 335.032C213.051 334.499 213.469 330.629 213.469 330.629C213.469 330.629 213.029 327.129 212.399 322.92C211.77 318.711 211.928 302.466 212.342 301.458C212.756 300.45 213.113 295.765 213.113 295.765C213.113 295.765 212.637 293.098 213.231 291.2C213.826 289.303 211.809 281.299 211.809 280.409C211.809 279.52 211.039 274.008 210.621 273.414C210.349 272.903 210.206 272.333 210.207 271.754C210.207 271.754 210.15 270.57 209.142 267.013C208.406 264.415 208.838 259.295 209.142 256.715C209.247 255.76 209.335 255.152 209.335 255.152C209.335 255.152 243.367 249.64 244.731 250.886C245.048 251.177 245.264 252.207 245.383 253.62C245.748 258.348 245.097 267.616 243.64 271.274Z" fill="#444053"/>
<path opacity="0.1" fill-rule="evenodd" clip-rule="evenodd" d="M230.775 297.909C230.934 297.909 234.689 298.226 236.058 297.949C237.428 297.672 230.775 297.909 230.775 297.909Z" fill="black"/>
<path opacity="0.1" fill-rule="evenodd" clip-rule="evenodd" d="M231.053 300.124C231.053 300.124 236.23 301.035 236.508 300.564C236.785 300.093 231.053 300.124 231.053 300.124Z" fill="black"/>
<path opacity="0.1" fill-rule="evenodd" clip-rule="evenodd" d="M215.204 299.177C215.204 299.177 217.889 299.296 219.351 299.965C220.813 300.635 215.204 299.177 215.204 299.177Z" fill="black"/>
<path fill-rule="evenodd" clip-rule="evenodd" d="M205.439 232.695C205.439 232.695 205.879 240.954 205.637 242.416C205.637 242.416 206.588 249.099 207.376 250.781C208.084 252.134 208.918 253.418 209.868 254.615L212.201 238.229L211.651 232.616L205.439 232.695Z" fill="#EFB7B9"/>
<circle cx="229.948" cy="185.936" r="9.13082" fill="#EFB7B9"/>
<path fill-rule="evenodd" clip-rule="evenodd" d="M225.202 190.206C225.202 190.206 222.358 195.776 219.509 198.386C216.661 200.997 236.587 203.96 237.062 203.96C237.538 203.96 233.505 192.099 234.214 190.677C234.923 189.255 225.202 190.206 225.202 190.206Z" fill="#EFB7B9"/>
<path opacity="0.1" fill-rule="evenodd" clip-rule="evenodd" d="M245.361 253.664C244.915 254.006 244.423 254.283 243.899 254.487C240.263 255.909 236.309 257.886 233.619 257.094C230.93 256.301 225.255 257.094 225.255 257.094C225.255 257.094 213.808 256.147 211.501 256.697C210.727 256.931 209.903 256.947 209.119 256.746C209.225 255.791 209.313 255.183 209.313 255.183C209.313 255.183 243.345 249.671 244.709 250.917C245.026 251.208 245.242 252.216 245.361 253.664Z" fill="black"/>
<path fill-rule="evenodd" clip-rule="evenodd" d="M247.862 248.381C247.862 248.381 247.545 252.343 243.899 253.757C240.254 255.17 236.309 257.155 233.619 256.367C230.93 255.579 225.255 256.367 225.255 256.367C225.255 256.367 213.808 255.416 211.501 255.971C209.194 256.526 208.023 255.813 208.732 254.782C209.441 253.752 209.366 250.38 209.366 248.936C209.366 247.492 208.574 241.742 209.287 240.712C210 239.682 210.608 235.733 212.056 235.099C212.487 234.915 212.811 234.546 212.936 234.095C213.059 233.621 213.059 233.125 212.936 232.651C212.936 232.651 212.699 232.453 212.364 232.158C211.528 231.409 210.11 230.023 210.568 229.569C211.197 228.935 210.568 224.823 210.568 224.823C210.568 224.823 209.062 221.662 209.617 220.478C210.172 219.294 204.774 213.047 204.774 213.047C204.774 213.047 204.774 202.296 211.259 201.82C211.259 201.82 215.842 201.979 216.397 199.923C216.952 197.867 220.588 196.682 220.588 196.682L228.887 198.501C228.887 198.501 236.239 200.081 237.582 199.135C238.925 198.188 239.937 200.394 239.937 200.394C239.937 200.394 244.52 200.631 244.996 201.578C245.471 202.525 243.494 211.774 243.494 211.774C243.494 211.774 240.175 211.462 240.413 215.019C240.65 218.576 239.145 223.08 239.145 223.08C239.145 223.08 238.907 225.691 239.065 226.241C239.224 226.791 238.753 228.741 238.682 229.05V229.089C238.682 229.089 238.357 230.41 238.784 230.881C238.822 230.925 238.868 230.961 238.92 230.987C239.554 231.299 240.505 234.386 240.505 234.386C240.997 234.983 241.25 235.743 241.214 236.516C241.135 237.784 241.61 240.787 243.666 242.526C245.722 244.265 247.862 248.381 247.862 248.381Z" fill="#4D7CFE"/>
<path fill-rule="evenodd" clip-rule="evenodd" d="M212.593 230.084V230.419L212.448 234.117C212.448 234.117 207.605 234.513 204.964 233.84C202.322 233.166 203.431 230.247 203.533 229.635C203.612 229.08 204.325 224.453 204.325 223.705C204.325 222.957 204.325 219.87 204.206 218.448C204.087 217.026 204.796 213.073 204.796 213.073L205.311 212.439L210.885 214.574L212.593 230.084Z" fill="#4D7CFE"/>
<path opacity="0.1" fill-rule="evenodd" clip-rule="evenodd" d="M212.58 230.419L212.435 234.117C212.435 234.117 207.592 234.513 204.95 233.84C202.309 233.166 203.418 230.247 203.52 229.635L212.58 230.419Z" fill="black"/>
<path opacity="0.1" fill-rule="evenodd" clip-rule="evenodd" d="M212.932 234.099C213.054 233.626 213.054 233.129 212.932 232.655C212.932 232.655 212.694 232.457 212.36 232.162C216.551 231.581 233.126 229.305 238.713 229.081V229.12C238.713 229.12 238.387 230.441 238.814 230.912L212.932 234.099Z" fill="black"/>
<path opacity="0.1" fill-rule="evenodd" clip-rule="evenodd" d="M239.312 236.961C239.312 236.961 240.342 242.772 236.508 244.828C236.508 244.828 238.682 241.945 239.312 236.961Z" fill="black"/>
<path opacity="0.1" fill-rule="evenodd" clip-rule="evenodd" d="M214.213 244.987C214.213 244.987 223.458 243.406 225.281 244.63C227.104 245.854 214.213 244.987 214.213 244.987Z" fill="black"/>
<path opacity="0.1" fill-rule="evenodd" clip-rule="evenodd" d="M236.111 208.979C236.111 208.979 234.689 214.83 235.755 216.172C236.82 217.515 236.111 208.979 236.111 208.979Z" fill="black"/>
<path opacity="0.1" fill-rule="evenodd" clip-rule="evenodd" d="M209.313 204.198C209.313 204.198 210.634 206.368 209.828 208.622C209.023 210.876 209.313 204.198 209.313 204.198Z" fill="black"/>
<path fill-rule="evenodd" clip-rule="evenodd" d="M206.628 223.247C206.628 223.247 208.287 224.238 207.733 225.779C207.178 227.32 206.628 223.247 206.628 223.247Z" fill="#4D7CFE"/>
<path opacity="0.1" fill-rule="evenodd" clip-rule="evenodd" d="M206.478 218.743C206.478 218.743 208.019 219.571 208.217 220.795C208.415 222.019 206.478 218.743 206.478 218.743Z" fill="black"/>
<path opacity="0.1" fill-rule="evenodd" clip-rule="evenodd" d="M229.314 266.013C229.314 266.013 238.999 267.004 240.932 264.692C240.932 264.71 232.197 266.431 229.314 266.013Z" fill="black"/>
<path opacity="0.1" fill-rule="evenodd" clip-rule="evenodd" d="M212.593 265.458C212.593 265.458 222.987 267.911 225.043 265.974C225.043 265.991 216.111 266.647 212.593 265.458Z" fill="black"/>
<path opacity="0.1" fill-rule="evenodd" clip-rule="evenodd" d="M230.062 269.214C230.062 269.214 234.412 269.214 236.428 269.333C238.445 269.452 230.062 269.214 230.062 269.214Z" fill="black"/>
<path opacity="0.1" fill-rule="evenodd" clip-rule="evenodd" d="M213.306 271.072C213.306 271.072 215.442 273.484 217.85 273.048C220.258 272.613 213.306 271.072 213.306 271.072Z" fill="black"/>
<path fill-rule="evenodd" clip-rule="evenodd" d="M217.484 172.332C216.815 173.371 216.793 174.573 216.604 175.726C216.125 178.547 214.801 181.157 212.809 183.211C210.916 185.227 208.314 187.054 207.821 189.515C207.358 191.853 208.935 194.102 209.762 196.379C211.964 202.379 208.882 208.675 208.001 214.869C207.755 216.582 208.05 218.77 210.158 219.338C210.819 219.514 211.572 219.492 212.166 219.778C212.958 220.157 213.201 220.949 213.346 221.658C213.876 224.203 214.06 226.808 213.892 229.402C213.795 230.859 213.689 232.532 215.063 233.536C215.765 233.968 216.536 234.275 217.343 234.443C219.509 235.028 222.309 235.491 223.771 234.126C224.383 233.553 224.612 232.743 225.378 232.29C226.523 231.612 228.147 232.07 229.587 232.14C232.369 232.256 234.992 230.847 236.433 228.464C237.599 226.36 237.498 223.974 237.067 221.711C236.635 219.448 235.887 217.211 235.834 214.922C235.765 214.122 235.943 213.32 236.345 212.624C237.225 211.259 239.272 210.638 240.677 209.568C243.318 207.561 243.292 204.285 242.341 201.512C241.39 198.738 239.669 196.123 239.457 193.275C239.364 192.587 239.5 191.888 239.845 191.285C240.32 190.727 240.869 190.236 241.478 189.828C245.313 186.592 244.859 181.274 241.689 177.637C238.176 173.587 222.283 164.901 217.484 172.332Z" fill="#E3787D"/>
<g opacity="0.1">
<path fill-rule="evenodd" clip-rule="evenodd" d="M210.277 198.906C210.651 196.515 210.442 194.07 209.67 191.778C209.256 190.629 208.648 189.489 208.204 188.34C207.985 188.756 207.826 189.2 207.728 189.66C207.266 191.998 208.842 194.248 209.67 196.524C209.951 197.296 210.155 198.093 210.277 198.906Z" fill="black"/>
<path fill-rule="evenodd" clip-rule="evenodd" d="M213.808 224.801C213.976 222.207 213.793 219.602 213.262 217.057C213.117 216.348 212.875 215.556 212.082 215.177C211.488 214.891 210.735 214.913 210.075 214.737C209.259 214.536 208.58 213.973 208.23 213.209C208.111 213.808 208.006 214.411 207.918 215.01C207.671 216.723 207.966 218.911 210.075 219.479C210.735 219.655 211.488 219.633 212.082 219.919C212.875 220.302 213.117 221.09 213.262 221.803C213.507 222.983 213.677 224.177 213.773 225.378C213.782 225.184 213.795 224.991 213.808 224.801Z" fill="black"/>
<path fill-rule="evenodd" clip-rule="evenodd" d="M236.349 223.864C234.909 226.247 232.285 227.656 229.503 227.54C228.064 227.469 226.421 227.011 225.294 227.689C224.533 228.13 224.299 228.953 223.687 229.525C222.226 230.89 219.426 230.428 217.26 229.842C216.453 229.676 215.682 229.367 214.984 228.931C214.387 228.492 213.983 227.838 213.857 227.108C213.857 227.918 213.857 228.733 213.808 229.543C213.711 231 213.606 232.673 214.984 233.677C215.684 234.11 216.454 234.417 217.26 234.584C219.426 235.169 222.226 235.631 223.687 234.271C224.299 233.694 224.533 232.884 225.294 232.431C226.439 231.753 228.064 232.211 229.503 232.281C232.285 232.398 234.909 230.988 236.349 228.605C237.472 226.584 237.423 224.299 237.031 222.116C236.882 222.726 236.652 223.313 236.349 223.864Z" fill="black"/>
<path fill-rule="evenodd" clip-rule="evenodd" d="M241.359 185.192C240.759 185.611 240.221 186.114 239.761 186.684C239.417 187.287 239.28 187.986 239.374 188.674C239.451 189.54 239.634 190.393 239.92 191.214C240.359 190.744 240.841 190.315 241.359 189.933C243.952 187.732 244.582 184.606 243.741 181.679C243.299 183.053 242.472 184.272 241.359 185.192Z" fill="black"/>
<path fill-rule="evenodd" clip-rule="evenodd" d="M240.593 204.968C239.189 206.038 237.142 206.659 236.261 208.019C235.861 208.717 235.683 209.52 235.75 210.321C235.784 211.247 235.898 212.167 236.089 213.073C236.138 212.966 236.195 212.863 236.261 212.765C237.142 211.4 239.189 210.779 240.593 209.709C242.988 207.874 243.191 204.972 242.482 202.384C242.119 203.411 241.462 204.31 240.593 204.968Z" fill="black"/>
</g>
<path fill-rule="evenodd" clip-rule="evenodd" d="M258.643 205.936C257.023 210.048 254.923 211.66 254.923 211.66H253.757L243.503 211.765L242.319 208.525L243.979 201.53L245.004 201.569C245.621 201.895 246.29 202.11 246.981 202.203C247.734 202.203 249.182 202.164 249.623 202.362C249.684 202.388 249.751 202.397 249.816 202.388C250.204 202.348 250.609 201.767 250.609 201.767C250.609 201.767 260.259 201.825 258.643 205.936Z" fill="#4D7CFE"/>
<path opacity="0.1" fill-rule="evenodd" clip-rule="evenodd" d="M258.643 205.936C257.023 210.048 254.923 211.66 254.923 211.66H253.757C254.369 210.031 255.65 206.689 256.152 205.936C256.653 205.184 252.335 203.387 249.825 202.414C250.213 202.375 250.618 201.794 250.618 201.794C250.618 201.794 260.259 201.825 258.643 205.936Z" fill="black"/>
<defs>
<linearGradient id="paint0_linear" x1="260.786" y1="209.142" x2="260.786" y2="170.074" gradientUnits="userSpaceOnUse">
<stop stop-color="#808080" stop-opacity="0.25"/>
<stop offset="0.54" stop-color="#808080" stop-opacity="0.12"/>
<stop offset="1" stop-color="#808080" stop-opacity="0.1"/>
</linearGradient>
<linearGradient id="paint1_linear" x1="240.064" y1="349.432" x2="240.064" y2="340.094" gradientUnits="userSpaceOnUse">
<stop stop-color="#808080" stop-opacity="0.25"/>
<stop offset="0.54" stop-color="#808080" stop-opacity="0.12"/>
<stop offset="1" stop-color="#808080" stop-opacity="0.1"/>
</linearGradient>
<linearGradient id="paint2_linear" x1="225.008" y1="347.565" x2="225.008" y2="338.228" gradientUnits="userSpaceOnUse">
<stop stop-color="#808080" stop-opacity="0.25"/>
<stop offset="0.54" stop-color="#808080" stop-opacity="0.12"/>
<stop offset="1" stop-color="#808080" stop-opacity="0.1"/>
</linearGradient>
<linearGradient id="paint3_linear" x1="220.2" y1="344.845" x2="220.2" y2="341.252" gradientUnits="userSpaceOnUse">
<stop stop-color="#808080" stop-opacity="0.25"/>
<stop offset="0.54" stop-color="#808080" stop-opacity="0.12"/>
<stop offset="1" stop-color="#808080" stop-opacity="0.1"/>
</linearGradient>
<linearGradient id="paint4_linear" x1="236.551" y1="344.523" x2="236.551" y2="340.786" gradientUnits="userSpaceOnUse">
<stop stop-color="#808080" stop-opacity="0.25"/>
<stop offset="0.54" stop-color="#808080" stop-opacity="0.12"/>
<stop offset="1" stop-color="#808080" stop-opacity="0.1"/>
</linearGradient>
<linearGradient id="paint5_linear" x1="245.708" y1="344.369" x2="245.708" y2="249.922" gradientUnits="userSpaceOnUse">
<stop stop-color="#808080" stop-opacity="0.25"/>
<stop offset="0.54" stop-color="#808080" stop-opacity="0.12"/>
<stop offset="1" stop-color="#808080" stop-opacity="0.1"/>
</linearGradient>
<linearGradient id="paint6_linear" x1="235.139" y1="297.705" x2="235.139" y2="297.42" gradientUnits="userSpaceOnUse">
<stop stop-color="#808080" stop-opacity="0.25"/>
<stop offset="0.54" stop-color="#808080" stop-opacity="0.12"/>
<stop offset="1" stop-color="#808080" stop-opacity="0.1"/>
</linearGradient>
<linearGradient id="paint7_linear" x1="236.591" y1="300.296" x2="236.591" y2="299.719" gradientUnits="userSpaceOnUse">
<stop stop-color="#808080" stop-opacity="0.25"/>
<stop offset="0.54" stop-color="#808080" stop-opacity="0.12"/>
<stop offset="1" stop-color="#808080" stop-opacity="0.1"/>
</linearGradient>
<linearGradient id="paint8_linear" x1="219.391" y1="299.737" x2="219.391" y2="298.764" gradientUnits="userSpaceOnUse">
<stop stop-color="#808080" stop-opacity="0.25"/>
<stop offset="0.54" stop-color="#808080" stop-opacity="0.12"/>
<stop offset="1" stop-color="#808080" stop-opacity="0.1"/>
</linearGradient>
<linearGradient id="paint9_linear" x1="211.873" y1="253.849" x2="211.873" y2="231.656" gradientUnits="userSpaceOnUse">
<stop stop-color="#808080" stop-opacity="0.25"/>
<stop offset="0.54" stop-color="#808080" stop-opacity="0.12"/>
<stop offset="1" stop-color="#808080" stop-opacity="0.1"/>
</linearGradient>
<linearGradient id="paint10_linear" x1="239.197" y1="193.794" x2="239.197" y2="175.383" gradientUnits="userSpaceOnUse">
<stop stop-color="#808080" stop-opacity="0.25"/>
<stop offset="0.54" stop-color="#808080" stop-opacity="0.12"/>
<stop offset="1" stop-color="#808080" stop-opacity="0.1"/>
</linearGradient>
<linearGradient id="paint11_linear" x1="237.186" y1="202.762" x2="237.186" y2="188.582" gradientUnits="userSpaceOnUse">
<stop stop-color="#808080" stop-opacity="0.25"/>
<stop offset="0.54" stop-color="#808080" stop-opacity="0.12"/>
<stop offset="1" stop-color="#808080" stop-opacity="0.1"/>
</linearGradient>
<linearGradient id="paint12_linear" x1="245.587" y1="256.504" x2="245.587" y2="249.922" gradientUnits="userSpaceOnUse">
<stop stop-color="#808080" stop-opacity="0.25"/>
<stop offset="0.54" stop-color="#808080" stop-opacity="0.12"/>
<stop offset="1" stop-color="#808080" stop-opacity="0.1"/>
</linearGradient>
<linearGradient id="paint13_linear" x1="248.109" y1="255.786" x2="248.109" y2="195.428" gradientUnits="userSpaceOnUse">
<stop stop-color="#808080" stop-opacity="0.25"/>
<stop offset="0.54" stop-color="#808080" stop-opacity="0.12"/>
<stop offset="1" stop-color="#808080" stop-opacity="0.1"/>
</linearGradient>
<linearGradient id="paint14_linear" x1="212.288" y1="233.285" x2="212.288" y2="211.29" gradientUnits="userSpaceOnUse">
<stop stop-color="#808080" stop-opacity="0.25"/>
<stop offset="0.54" stop-color="#808080" stop-opacity="0.12"/>
<stop offset="1" stop-color="#808080" stop-opacity="0.1"/>
</linearGradient>
<linearGradient id="paint15_linear" x1="212.27" y1="233.285" x2="212.27" y2="228.649" gradientUnits="userSpaceOnUse">
<stop stop-color="#808080" stop-opacity="0.25"/>
<stop offset="0.54" stop-color="#808080" stop-opacity="0.12"/>
<stop offset="1" stop-color="#808080" stop-opacity="0.1"/>
</linearGradient>
<linearGradient id="paint16_linear" x1="238.9" y1="233.153" x2="238.9" y2="228.068" gradientUnits="userSpaceOnUse">
<stop stop-color="#808080" stop-opacity="0.25"/>
<stop offset="0.54" stop-color="#808080" stop-opacity="0.12"/>
<stop offset="1" stop-color="#808080" stop-opacity="0.1"/>
</linearGradient>
<linearGradient id="paint17_linear" x1="239.566" y1="243.97" x2="239.566" y2="236.036" gradientUnits="userSpaceOnUse">
<stop stop-color="#808080" stop-opacity="0.25"/>
<stop offset="0.54" stop-color="#808080" stop-opacity="0.12"/>
<stop offset="1" stop-color="#808080" stop-opacity="0.1"/>
</linearGradient>
<linearGradient id="paint18_linear" x1="225.351" y1="244.428" x2="225.351" y2="243.301" gradientUnits="userSpaceOnUse">
<stop stop-color="#808080" stop-opacity="0.25"/>
<stop offset="0.54" stop-color="#808080" stop-opacity="0.12"/>
<stop offset="1" stop-color="#808080" stop-opacity="0.1"/>
</linearGradient>
<linearGradient id="paint19_linear" x1="236.417" y1="215.221" x2="236.417" y2="207.825" gradientUnits="userSpaceOnUse">
<stop stop-color="#808080" stop-opacity="0.25"/>
<stop offset="0.54" stop-color="#808080" stop-opacity="0.12"/>
<stop offset="1" stop-color="#808080" stop-opacity="0.1"/>
</linearGradient>
<linearGradient id="paint20_linear" x1="209.722" y1="207.935" x2="209.722" y2="203" gradientUnits="userSpaceOnUse">
<stop stop-color="#808080" stop-opacity="0.25"/>
<stop offset="0.54" stop-color="#808080" stop-opacity="0.12"/>
<stop offset="1" stop-color="#808080" stop-opacity="0.1"/>
</linearGradient>
<linearGradient id="paint21_linear" x1="207.449" y1="225.114" x2="207.449" y2="222.208" gradientUnits="userSpaceOnUse">
<stop stop-color="#808080" stop-opacity="0.25"/>
<stop offset="0.54" stop-color="#808080" stop-opacity="0.12"/>
<stop offset="1" stop-color="#808080" stop-opacity="0.1"/>
</linearGradient>
<linearGradient id="paint22_linear" x1="207.833" y1="220.016" x2="207.833" y2="217.665" gradientUnits="userSpaceOnUse">
<stop stop-color="#808080" stop-opacity="0.25"/>
<stop offset="0.54" stop-color="#808080" stop-opacity="0.12"/>
<stop offset="1" stop-color="#808080" stop-opacity="0.1"/>
</linearGradient>
<linearGradient id="paint23_linear" x1="241.057" y1="265.542" x2="241.057" y2="264.014" gradientUnits="userSpaceOnUse">
<stop stop-color="#808080" stop-opacity="0.25"/>
<stop offset="0.54" stop-color="#808080" stop-opacity="0.12"/>
<stop offset="1" stop-color="#808080" stop-opacity="0.1"/>
</linearGradient>
<linearGradient id="paint24_linear" x1="224.934" y1="266.04" x2="224.934" y2="264.772" gradientUnits="userSpaceOnUse">
<stop stop-color="#808080" stop-opacity="0.25"/>
<stop offset="0.54" stop-color="#808080" stop-opacity="0.12"/>
<stop offset="1" stop-color="#808080" stop-opacity="0.1"/>
</linearGradient>
<linearGradient id="paint25_linear" x1="234.584" y1="268.788" x2="234.584" y2="268.618" gradientUnits="userSpaceOnUse">
<stop stop-color="#808080" stop-opacity="0.25"/>
<stop offset="0.54" stop-color="#808080" stop-opacity="0.12"/>
<stop offset="1" stop-color="#808080" stop-opacity="0.1"/>
</linearGradient>
<linearGradient id="paint26_linear" x1="218.137" y1="272.476" x2="218.137" y2="270.429" gradientUnits="userSpaceOnUse">
<stop stop-color="#808080" stop-opacity="0.25"/>
<stop offset="0.54" stop-color="#808080" stop-opacity="0.12"/>
<stop offset="1" stop-color="#808080" stop-opacity="0.1"/>
</linearGradient>
<linearGradient id="paint27_linear" x1="244.415" y1="234.099" x2="244.415" y2="167.943" gradientUnits="userSpaceOnUse">
<stop stop-color="#808080" stop-opacity="0.25"/>
<stop offset="0.54" stop-color="#808080" stop-opacity="0.12"/>
<stop offset="1" stop-color="#808080" stop-opacity="0.1"/>
</linearGradient>
<linearGradient id="paint28_linear" x1="210.099" y1="197.668" x2="210.099" y2="187.014" gradientUnits="userSpaceOnUse">
<stop stop-color="#808080" stop-opacity="0.25"/>
<stop offset="0.54" stop-color="#808080" stop-opacity="0.12"/>
<stop offset="1" stop-color="#808080" stop-opacity="0.1"/>
</linearGradient>
<linearGradient id="paint29_linear" x1="213.578" y1="224.357" x2="213.578" y2="212.087" gradientUnits="userSpaceOnUse">
<stop stop-color="#808080" stop-opacity="0.25"/>
<stop offset="0.54" stop-color="#808080" stop-opacity="0.12"/>
<stop offset="1" stop-color="#808080" stop-opacity="0.1"/>
</linearGradient>
<linearGradient id="paint30_linear" x1="237.373" y1="234.218" x2="237.373" y2="221.068" gradientUnits="userSpaceOnUse">
<stop stop-color="#808080" stop-opacity="0.25"/>
<stop offset="0.54" stop-color="#808080" stop-opacity="0.12"/>
<stop offset="1" stop-color="#808080" stop-opacity="0.1"/>
</linearGradient>
<linearGradient id="paint31_linear" x1="244.299" y1="189.911" x2="244.299" y2="180.296" gradientUnits="userSpaceOnUse">
<stop stop-color="#808080" stop-opacity="0.25"/>
<stop offset="0.54" stop-color="#808080" stop-opacity="0.12"/>
<stop offset="1" stop-color="#808080" stop-opacity="0.1"/>
</linearGradient>
<linearGradient id="paint32_linear" x1="243.027" y1="211.95" x2="243.027" y2="201.173" gradientUnits="userSpaceOnUse">
<stop stop-color="#808080" stop-opacity="0.25"/>
<stop offset="0.54" stop-color="#808080" stop-opacity="0.12"/>
<stop offset="1" stop-color="#808080" stop-opacity="0.1"/>
</linearGradient>
<linearGradient id="paint33_linear" x1="259.279" y1="210.652" x2="259.279" y2="200.332" gradientUnits="userSpaceOnUse">
<stop stop-color="#808080" stop-opacity="0.25"/>
<stop offset="0.54" stop-color="#808080" stop-opacity="0.12"/>
<stop offset="1" stop-color="#808080" stop-opacity="0.1"/>
</linearGradient>
<linearGradient id="paint34_linear" x1="259.269" y1="210.546" x2="259.269" y2="200.57" gradientUnits="userSpaceOnUse">
<stop stop-color="#808080" stop-opacity="0.25"/>
<stop offset="0.54" stop-color="#808080" stop-opacity="0.12"/>
<stop offset="1" stop-color="#808080" stop-opacity="0.1"/>
</linearGradient>
</defs>
</svg>
