<svg width="107" height="21" viewBox="0 0 107 21" fill="none" xmlns="http://www.w3.org/2000/svg">
<path fill-rule="evenodd" clip-rule="evenodd" d="M17.5891 3.22256C17.4106 3.22256 17.2678 3.169 17.1607 3.06189C17.0536 2.95478 17 2.81196 17 2.63344V1.61589C17 1.43737 17.0536 1.29009 17.1607 1.17406C17.2678 1.05802 17.4106 1 17.5891 1H18.6067C18.7852 1 18.9325 1.05802 19.0485 1.17406C19.1645 1.29009 19.2226 1.43737 19.2226 1.61589V2.63344C19.2226 2.81196 19.1645 2.95478 19.0485 3.06189C18.9325 3.169 18.7852 3.22256 18.6067 3.22256H17.5891ZM17.8837 20.0122C17.7051 20.0122 17.5623 19.9587 17.4552 19.8516C17.3481 19.7444 17.2946 19.6016 17.2946 19.4231V6.67689C17.2946 6.49837 17.3481 6.35556 17.4552 6.24844C17.5623 6.14133 17.7051 6.08778 17.8837 6.08778H18.3389C18.5174 6.08778 18.6602 6.14133 18.7673 6.24844C18.8744 6.35556 18.928 6.49837 18.928 6.67689V19.4231C18.928 19.6016 18.8744 19.7444 18.7673 19.8516C18.6602 19.9587 18.5174 20.0122 18.3389 20.0122H17.8837ZM29.2374 20.28C27.3808 20.28 25.9393 19.7132 24.9128 18.5796C23.8863 17.446 23.3463 15.9777 23.2928 14.1747L23.266 13.05L23.2928 11.9253C23.3463 10.1223 23.8863 8.65399 24.9128 7.52039C25.9393 6.38679 27.3808 5.82 29.2374 5.82C31.094 5.82 32.5356 6.38679 33.5621 7.52039C34.5885 8.65399 35.1286 10.1223 35.1821 11.9253C35.2 12.1039 35.2089 12.4787 35.2089 13.05C35.2089 13.6213 35.2 13.9961 35.1821 14.1747C35.1286 15.9777 34.5885 17.446 33.5621 18.5796C32.5356 19.7132 31.094 20.28 29.2374 20.28ZM29.2374 18.7269C30.5049 18.7269 31.5269 18.3208 32.3035 17.5085C33.0801 16.6962 33.4951 15.5403 33.5487 14.0408C33.5665 13.8623 33.5754 13.532 33.5754 13.05C33.5754 12.568 33.5665 12.2377 33.5487 12.0592C33.4951 10.5597 33.0801 9.40376 32.3035 8.5915C31.5269 7.77924 30.5049 7.37311 29.2374 7.37311C27.97 7.37311 26.9479 7.77924 26.1714 8.5915C25.3948 9.40376 24.9798 10.5597 24.9262 12.0592L24.8994 13.05L24.9262 14.0408C24.9798 15.5403 25.3948 16.6962 26.1714 17.5085C26.9479 18.3208 27.97 18.7269 29.2374 18.7269ZM42.5192 20.0122C42.3853 20.0122 42.2715 19.9654 42.1778 19.8716C42.0841 19.7779 42.0372 19.6641 42.0372 19.5302V8.46431H38.3218C38.1879 8.46431 38.0741 8.41744 37.9804 8.32372C37.8867 8.23 37.8398 8.1095 37.8398 7.96222V6.45597C37.8398 6.30869 37.8833 6.18819 37.9703 6.09447C38.0574 6.00075 38.1745 5.95389 38.3218 5.95389H48.5844C48.7317 5.95389 48.8522 6.00075 48.9459 6.09447C49.0396 6.18819 49.0865 6.30869 49.0865 6.45597V7.96222C49.0865 8.1095 49.0396 8.23 48.9459 8.32372C48.8522 8.41744 48.7317 8.46431 48.5844 8.46431H44.8891V19.5302C44.8891 19.6641 44.8455 19.7779 44.7585 19.8716C44.6715 19.9654 44.5543 20.0122 44.4071 20.0122H42.5192ZM49.4547 20.0122C49.3342 20.0122 49.2337 19.9721 49.1534 19.8917C49.0731 19.8114 49.0329 19.711 49.0329 19.5905L49.0731 19.4097L53.8931 6.45597C54.027 6.12125 54.268 5.95389 54.6161 5.95389H56.8252C57.1734 5.95389 57.4144 6.12125 57.5482 6.45597L62.3682 19.4097L62.4084 19.5905C62.4084 19.711 62.3649 19.8114 62.2779 19.8917C62.1908 19.9721 62.0938 20.0122 61.9867 20.0122H60.1992C59.9181 20.0122 59.7239 19.885 59.6168 19.6306L58.693 17.2006H52.7483L51.8245 19.6306C51.7174 19.885 51.5233 20.0122 51.2421 20.0122H49.4547ZM53.4513 14.8709H57.9901L55.7207 8.68522L53.4513 14.8709ZM69.625 20.2131C68.42 20.2131 67.3891 20.0323 66.5322 19.6708C65.6753 19.3093 65.0259 18.834 64.5841 18.2449C64.1423 17.6558 63.908 17.0131 63.8812 16.3169C63.8812 16.2098 63.9214 16.1127 64.0017 16.0257C64.082 15.9387 64.1824 15.8951 64.3029 15.8951H66.1305C66.2778 15.8951 66.3983 15.9286 66.492 15.9956C66.5858 16.0625 66.6728 16.1562 66.7531 16.2767C66.887 16.7319 67.1916 17.1135 67.6669 17.4215C68.1422 17.7294 68.7949 17.8834 69.625 17.8834C70.5623 17.8834 71.2685 17.7261 71.7438 17.4114C72.2191 17.0968 72.4568 16.665 72.4568 16.1161C72.4568 15.7546 72.3363 15.4533 72.0953 15.2123C71.8543 14.9713 71.4894 14.7604 71.0007 14.5797C70.512 14.3989 69.7857 14.1814 68.8217 13.927C67.2418 13.5521 66.0837 13.0567 65.3473 12.4408C64.6109 11.8249 64.2427 10.9413 64.2427 9.78981C64.2427 9.01325 64.4569 8.32038 64.8854 7.71118C65.3138 7.10198 65.9263 6.62333 66.723 6.27522C67.5196 5.92711 68.4468 5.75306 69.5045 5.75306C70.6158 5.75306 71.5765 5.94719 72.3865 6.33547C73.1965 6.72375 73.8124 7.20909 74.2342 7.79151C74.6559 8.37393 74.8802 8.953 74.9069 9.52872C74.9069 9.63583 74.8668 9.7329 74.7864 9.81993C74.7061 9.90696 74.6057 9.95047 74.4852 9.95047H72.5773C72.2827 9.95047 72.0819 9.82997 71.9748 9.58897C71.9078 9.16053 71.6468 8.80238 71.1915 8.51451C70.7363 8.22665 70.174 8.08272 69.5045 8.08272C68.7681 8.08272 68.1891 8.2233 67.7673 8.50447C67.3456 8.78564 67.1347 9.194 67.1347 9.72956C67.1347 10.0911 67.2418 10.3923 67.456 10.6333C67.6702 10.8743 68.005 11.0852 68.4602 11.2659C68.9154 11.4467 69.5782 11.6509 70.4484 11.8785C71.6401 12.1463 72.5873 12.4475 73.2902 12.7822C73.9932 13.1169 74.512 13.5387 74.8467 14.0475C75.1814 14.5563 75.3488 15.2056 75.3488 15.9956C75.3488 16.8658 75.1111 17.619 74.6358 18.2549C74.1605 18.8909 73.4911 19.3762 72.6275 19.711C71.7639 20.0457 70.7631 20.2131 69.625 20.2131ZM78.7897 20.0122C78.6558 20.0122 78.542 19.9654 78.4483 19.8716C78.3546 19.7779 78.3077 19.6641 78.3077 19.5302V6.45597C78.3077 6.30869 78.3512 6.18819 78.4383 6.09447C78.5253 6.00075 78.6424 5.95389 78.7897 5.95389H80.5972C80.7445 5.95389 80.865 6.00075 80.9587 6.09447C81.0524 6.18819 81.0993 6.30869 81.0993 6.45597V11.1555L85.5779 6.31539C85.7787 6.07439 86.0398 5.95389 86.3611 5.95389H88.4096C88.5168 5.95389 88.6138 5.99406 88.7009 6.07439C88.7879 6.15472 88.8314 6.25514 88.8314 6.37564C88.8314 6.46936 88.7979 6.54969 88.731 6.61664L83.2683 12.6818L89.1326 19.3294C89.1862 19.4231 89.213 19.5101 89.213 19.5905C89.213 19.711 89.1728 19.8114 89.0925 19.8917C89.0121 19.9721 88.9184 20.0122 88.8113 20.0122H86.7026C86.4214 20.0122 86.2206 19.9553 86.1001 19.8415C85.9796 19.7277 85.9126 19.6641 85.8992 19.6507L81.0993 14.3487V19.5302C81.0993 19.6641 81.0524 19.7779 80.9587 19.8716C80.865 19.9654 80.7445 20.0122 80.5972 20.0122H78.7897Z" fill="#4D7CFE"/>
</svg>
